<?xml version="1.0" encoding="utf-8"?>
<!-- Generator: Adobe Illustrator 23.0.3, SVG Export Plug-In . SVG Version: 6.00 Build 0)  -->
<svg version="1.1" id="Layer_1" xmlns="http://www.w3.org/2000/svg" xmlns:xlink="http://www.w3.org/1999/xlink" x="0px" y="0px"
	 width="1114.5px" height="377.7px" viewBox="0 0 1114.5 377.7" style="enable-background:new 0 0 1114.5 377.7;"
	 xml:space="preserve">
<style type="text/css">
	.st0{fill:none;stroke:#FFFFFF;stroke-miterlimit:10;}
	.st1{fill:none;stroke:#FFFFFF;stroke-width:0.75;stroke-miterlimit:10;}
	
		.st2{fill:none;stroke:#FFFFFF;stroke-width:0.75;stroke-miterlimit:10;stroke-dasharray:3.9169,0,3.9169,3.9071,1.958447e-02,3.8973;}
	.st3{fill:none;stroke:#FFFFFF;stroke-width:0.75;stroke-miterlimit:10;stroke-dasharray:3.9169,0,3.9169,0,3.9169,3.9071;}
	.st4{stroke:#FFFFFF;stroke-miterlimit:10;}
	.st5{fill:none;stroke:#000000;stroke-miterlimit:10;}
	.st6{fill:none;stroke:#FFFFFF;stroke-miterlimit:10;stroke-dasharray:3,4,3,4,3,4;}
</style>
<g>
	<g>
		<path class="st0" d="M1086.5,189.3c0,0,7.1-3.1,13.3,10.2c0,0,0,7.1,0,13.3c0,0,14.3,4.1,14.3,24.5c0,0-2,9.2-2,14.3l1,53.1
			c0,0-74.5,34.7-214.3,51c0,0-181.7,21.4-270.5,21.4L413.9,372c0,0-203.1,3.1-234.7,0S63.8,366.9,24,352.6l-3.1-2L17.9,324
			c0,0,0-1-5.1-1c0,0-11.2-28.6-12.2-48c0,0,0-1,4.1-1v-10.2c0,0,4.1-4.1,10.2-4.1h2l1-18.4c0,0-8.2-6.1,0-10.2H24l-3.1-82.7
			c0,0,8.2-48,8.2-55.1s4.1-5.1,4.1-5.1"/>
		<path class="st0" d="M1099.2,201c0,0-33.7,20.4-92.9,27.6c-59.2,7.1-180.7,23.5-277.6,23.5l-170.4,2l-230.7,1l-205.1-2
			c0,0-90.4-2.6-104.1-10.2l-0.6,9.9c0,0,44.5,11.5,118,11.5s169.4,7.1,254.1,0c0,0,169.4,1,190.9,1c21.4,0,170.4-1,222.5-6.1
			c52.1-5.1,204.1-10.2,296-45.9V201z"/>
		<path class="st0" d="M216.9,243.4c0,0-70.4-90.8-83.7-95.9c0,0-69.9-58.7-99.5-58.7L55,35.6c0,0,131,68,228,68s192-60,192-60
			s42-30,65-30s62,13,78,24s184,80,193,86c0,0,54,22,63,24c0,0,230.9,27.4,212.5,41.7c0,0,5.1,54.1-514.4,54.1l-264.9,2.6
			c0,0-227.6-2-283.7-14.3"/>
		<g>
			<g>
				<path class="st1" d="M28.6,97.4c0,0,0.7,0.1,2,0.4"/>
				<path class="st2" d="M30.5,97.8c2.7,0.6,8.2,2,15.9,4.9"/>
				<path class="st3" d="M49.2,103.7c31.1,12.1,93.1,46,155.3,136.4"/>
				<path class="st1" d="M205.5,241.7c0.4,0.5,0.7,1.1,1.1,1.7"/>
			</g>
		</g>
	</g>
	<path class="st4" d="M679.4,377.1l-0.9-0.5c0.1-0.2,10.8-20.9,29.7-43c17.5-20.4,45.8-46.2,81.5-53.2
		c1.8-0.2,173.4-18.8,309.2-67.3l0.3,1c-135.9,48.5-307.7,67.1-309.4,67.3c-35.3,7-63.5,32.6-80.8,52.9
		C690.1,356.3,679.5,376.9,679.4,377.1z"/>
	<path class="st5" d="M811,123.6"/>
	<path class="st0" d="M474.4,244.1c0,0,14.1-92.1,179.1-89c0,0,108.5,1.5,128.5-0.5c20-2.1,30-16.5,29-34"/>
	<path class="st6" d="M481,244.6c4.8-17.3,27.6-88.2,172.5-85.5c0,0,108.4,0.9,128.5-0.5c29-2,34-15.5,33-33"/>
	<path class="st6" d="M496,244.6c12.1-26,34.8-76.8,157.5-74.5c0,0,108.4-1.1,128.5-0.5c34,1,50-20.5,49-38"/>
	<path class="st0" d="M509,1.6c0,0-8.8,17.8-9.9,26.9L474,43.6l15-42C489,1.6,497-0.4,509,1.6z"/>
	<path class="st0" d="M540,13.6c0,0-15-10-31-13c0,0-8,18-10,28"/>
	
		<ellipse transform="matrix(0.3301 -0.9439 0.9439 0.3301 346.3575 622.5914)" class="st0" cx="611.8" cy="67.3" rx="6.6" ry="10.6"/>
	
		<ellipse transform="matrix(0.3301 -0.9439 0.9439 0.3301 360.3016 682.2409)" class="st0" cx="660.8" cy="87.3" rx="5.6" ry="10.6"/>
	<ellipse transform="matrix(0.3301 -0.9439 0.9439 0.3301 330.5745 561.5956)" class="st0" cx="561" cy="47.9" rx="7" ry="10.6"/>
	<ellipse transform="matrix(0.3301 -0.9439 0.9439 0.3301 346.152 624.1136)" class="st0" cx="612.8" cy="68.2" rx="9.9" ry="16"/>
	<ellipse transform="matrix(0.3301 -0.9439 0.9439 0.3301 360.0961 683.7632)" class="st0" cx="661.8" cy="88.2" rx="8.9" ry="16"/>
	
		<ellipse transform="matrix(0.3301 -0.9439 0.9439 0.3301 376.568 738.8907)" class="st0" cx="708.9" cy="104.1" rx="5.5" ry="10.6"/>
	<ellipse transform="matrix(0.3301 -0.9439 0.9439 0.3301 376.3729 740.41)" class="st0" cx="709.9" cy="105" rx="8.7" ry="16"/>
	
		<ellipse transform="matrix(0.3301 -0.9439 0.9439 0.3301 393.2584 796.5554)" class="st0" cx="757.9" cy="121.2" rx="4.7" ry="10.6"/>
	<ellipse transform="matrix(0.3301 -0.9439 0.9439 0.3301 393.1488 798.05)" class="st0" cx="758.9" cy="122" rx="7.4" ry="16"/>
	<ellipse class="st0" cx="560.5" cy="48.1" rx="15.5" ry="12.5"/>
	<path class="st0" d="M750.6,122.6l7.4-33c0,0,17,4,21,14l-15.6,23.3C763.4,126.8,758.1,127.6,750.6,122.6z"/>
	<path class="st0" d="M715,109.6c0,0,22.2-16.3,41.1-11.6l0.9-3.8c0,0-9-5.6-13-6.6c0,0-24.5-11.3-37.3,7.8c0,0-3.7,6.5-2.2,12.8
		C704.5,108.2,711,111.6,715,109.6z"/>
	<path class="st0" d="M662.5,93.4c0,0,35.5-25.7,57.5-9.8l2.6,1.1c0,0-11.5-16.2-27.5-17.2c0,0-18-7-29,1c0,0-10,9-10,15l-0.7,7.3"
		/>
	<path class="st0" d="M692.3,66.7c0,0-10.3-12.1-28.3-10.1c0,0,5.6,2.7,6.8,5.8l5.7,2.5C676.5,64.9,681.6,63.8,692.3,66.7z"/>
	<path class="st0" d="M603.7,69.7c0,0,2.3-33.1,39.3-22.1c0,0,12,1,21,9c0,0,6,3,7,6c0,0-7-7-29-4c0,0-21.4,3.3-29.2,15.7"/>
</g>
</svg>
