<?xml version="1.0" encoding="utf-8"?>
<!-- Generator: Adobe Illustrator 23.0.3, SVG Export Plug-In . SVG Version: 6.00 Build 0)  -->
<svg version="1.1" id="Layer_1" xmlns="http://www.w3.org/2000/svg" xmlns:xlink="http://www.w3.org/1999/xlink" x="0px" y="0px"
	 width="1114.5px" height="377.7px" viewBox="0 0 1114.5 377.7" style="enable-background:new 0 0 1114.5 377.7;"
	 xml:space="preserve">
<style type="text/css">
	.st0{fill:none;stroke:#FFFFFF;stroke-miterlimit:10;stroke-dasharray:3,4,3,4,3,4;}
	.st1{fill:none;stroke:#FFFFFF;stroke-miterlimit:10;}
	.st2{fill:#FFFFFF;}
	.st3{fill:none;stroke:#FFFFFF;stroke-miterlimit:10;stroke-dasharray:2,4,2,4,2,4;}
</style>
<g>
	<path class="st0" d="M479.5,247.5c4.8-17.3,27.6-88.2,172.5-85.5c0,0,108.4,0.9,128.5-0.5c29-2,34-15.5,33-33"/>
	<path class="st0" d="M494.5,247.5c12.1-26,34.8-76.8,157.5-74.5c0,0,108.4-1.1,128.5-0.5c34,1,50-20.5,49-38"/>
	<g>
		<g>
			<path class="st1" d="M1086,189.2c0,0,7.1-3.1,13.3,10.2c0,0,0,7.1,0,13.3c0,0,14.3,4.1,14.3,24.5c0,0-2,9.2-2,14.3l1,53.1
				c0,0-74.5,34.7-214.3,51c0,0-181.7,21.4-270.5,21.4l-214.3-5.1c0,0-203.1,3.1-234.7,0c-31.6-3.1-115.3-5.1-155.1-19.4l-3.1-2
				l-3.1-26.5c0,0,0-1-5.1-1c0,0-11.2-28.6-12.2-48c0,0,0-1,4.1-1v-10.2c0,0,4.1-4.1,10.2-4.1h2l1-18.4c0,0-8.2-6.1,0-10.2h6.1
				l-3.1-82.7c0,0,8.2-48,8.2-55.1s4.1-5.1,4.1-5.1"/>
			<g>
				<path class="st2" d="M1097.7,202.7v9.8c-75.8,29.3-190.9,37.7-259.8,42.8c-14.1,1-26.3,1.9-35.3,2.8
					c-50.9,5-197.5,6.1-222.4,6.1c-21.2,0-189.2-1-190.9-1l0,0l0,0c-25.3,2.1-53.8,3.2-87.1,3.2c-30.8,0-61.5-0.9-91.1-1.7
					c-27-0.8-52.5-1.5-75.8-1.5c-67.2,0-110.6-9.8-116.9-11.3l0.5-7.6c17.4,7.1,99.6,9.6,103.2,9.7l205.2,2l230.7-1l170.4-2
					c87.1,0,194-13.2,257.8-21c7.2-0.9,13.9-1.7,19.9-2.4C1057.8,223.2,1090.5,206.6,1097.7,202.7 M1098.7,200.9
					c0,0-33.7,20.4-92.9,27.6c-59.2,7.1-180.7,23.5-277.6,23.5l-170.4,2l-230.7,1L122,253c0,0-90.4-2.6-104.1-10.2l-0.6,9.9
					c0,0,44.5,11.5,118,11.5c49,0,108,3.2,166.9,3.2c29.5,0,59-0.8,87.2-3.2c0,0,169.4,1,190.9,1c21.4,0,170.4-1,222.5-6.1
					c52.1-5.1,204.1-10.2,296-45.9V200.9L1098.7,200.9z"/>
			</g>
			<path class="st1" d="M216.4,243.3c0,0-70.4-90.8-83.7-95.9c0,0-69.9-58.7-99.5-58.7l21.3-53.2c0,0,131,68,228,68s192-60,192-60
				s42-30,65-30s62,13,78,24s184,80,193,86c0,0,54,22,63,24c0,0,230.9,27.4,212.5,41.7c0,0,5.1,54.1-514.4,54.1l-264.9,2.6
				c0,0-227.6-2-283.7-14.3"/>
			<path class="st1" d="M28.1,97.3c0,0,89.3,14.8,178.1,146"/>
		</g>
		<g>
			<path class="st2" d="M1098.3,213c-135.8,48.4-307.4,67.1-309.2,67.3c-35.6,7-64,32.8-81.5,53.2c-18.9,22.1-29.6,42.8-29.7,43
				l0.9,0.5c0.1-0.2,10.7-20.8,29.6-42.8c17.4-20.3,45.5-45.9,80.8-52.9c1.7-0.2,173.4-18.8,309.4-67.3L1098.3,213L1098.3,213z"/>
		</g>
		<path class="st1" d="M810.5,123.5"/>
		<path class="st1" d="M473.9,244c0,0,14.1-92.1,179.1-89c0,0,108.5,1.5,128.5-0.5s30-16.5,29-34"/>
		<g>
			<path class="st2" d="M498,1.6L498,1.6c3,0,6,0.2,9,0.7c-2,4.1-8.2,17.5-9.3,25.5l-22.3,13.4l13.9-38.8
				C490.4,2.1,493.5,1.6,498,1.6 M498,0.6c-5.9,0-9.5,0.9-9.5,0.9l-15,42l25.1-15.1c1.1-9.1,9.9-26.9,9.9-26.9
				C504.5,0.8,500.9,0.6,498,0.6L498,0.6z"/>
		</g>
		<path class="st1" d="M539.5,13.5c0,0-15-10-31-13c0,0-8,18-10,28"/>
		<g>
			<path class="st2" d="M608.3,61.1L608.3,61.1c1.6,0,3.2,0.3,4.9,0.9c4.9,1.7,8.2,5.6,7.2,8.4c-0.6,1.8-2.9,2.9-6,2.9
				c-1.6,0-3.2-0.3-4.9-0.9c-2.5-0.9-4.6-2.3-6-4c-1.3-1.6-1.7-3.1-1.2-4.4C602.9,62.2,605.2,61.1,608.3,61.1 M608.3,60.1
				c-3.4,0-6.2,1.3-7,3.6c-1.2,3.4,2.3,7.8,7.8,9.7c1.8,0.6,3.6,0.9,5.2,0.9c3.4,0,6.2-1.3,7-3.6c1.2-3.4-2.3-7.8-7.8-9.7
				C611.7,60.4,609.9,60.1,608.3,60.1L608.3,60.1z"/>
		</g>
		<g>
			<path class="st2" d="M656.4,81.8L656.4,81.8c1.7,0,3.6,0.3,5.5,1c4.3,1.5,8.4,5,7.5,7.5c-0.5,1.3-2.4,2.2-5.1,2.2
				c-1.7,0-3.6-0.3-5.5-1c-4.3-1.5-8.4-5-7.5-7.5C651.7,82.7,653.7,81.8,656.4,81.8 M656.4,80.8c-3,0-5.4,1-6.1,2.9
				c-1,2.9,2.6,6.9,8.2,8.8c2,0.7,4,1.1,5.8,1.1c3,0,5.4-1,6.1-2.9c1-2.9-2.6-6.9-8.2-8.8C660.2,81.2,658.2,80.8,656.4,80.8
				L656.4,80.8z"/>
		</g>
		<g>
			<path class="st2" d="M557.8,41.4L557.8,41.4c1.5,0,3.1,0.3,4.6,0.8c4.9,1.7,8.2,5.7,7.1,8.8c-0.7,2-3.2,3.3-6.4,3.3
				c-1.5,0-3.1-0.3-4.6-0.8c-2.5-0.9-4.6-2.3-5.9-4.1c-1.2-1.6-1.7-3.3-1.2-4.7C552.1,42.6,554.6,41.4,557.8,41.4 M557.8,40.4
				c-3.5,0-6.5,1.4-7.3,3.9c-1.3,3.6,2.2,8.1,7.7,10.1c1.7,0.6,3.4,0.9,5,0.9c3.5,0,6.5-1.4,7.3-3.9c1.3-3.6-2.2-8.1-7.7-10.1
				C561.1,40.7,559.4,40.4,557.8,40.4L557.8,40.4z"/>
		</g>
		<g>
			<path class="st2" d="M607.7,57.4v1c2.4,0,5,0.5,7.5,1.3c3.9,1.3,7.1,3.5,9.3,6.1c2,2.5,2.7,5,1.9,7.2c-1,2.9-4.7,4.8-9.6,4.8
				c-2.4,0-5-0.5-7.5-1.3c-3.9-1.3-7.1-3.5-9.3-6.1c-2-2.5-2.7-5-1.9-7.2c1-2.9,4.7-4.8,9.6-4.8V57.4 M607.7,57.4
				c-5.1,0-9.3,2-10.5,5.4c-1.8,5.2,3.5,11.7,11.8,14.6c2.7,0.9,5.4,1.4,7.8,1.4c5.1,0,9.3-2,10.5-5.4c1.8-5.2-3.5-11.7-11.8-14.6
				C612.9,57.8,610.2,57.4,607.7,57.4L607.7,57.4z"/>
		</g>
		<g>
			<path class="st2" d="M655.8,78.2v1c2.6,0,5.4,0.5,8.1,1.5c3.9,1.4,7.2,3.4,9.4,5.9c2,2.3,2.8,4.6,2.2,6.5
				c-0.9,2.4-4.1,3.9-8.6,3.9c-2.6,0-5.4-0.5-8.2-1.5c-3.9-1.4-7.2-3.4-9.4-5.9c-2-2.3-2.8-4.6-2.2-6.5c0.9-2.4,4.1-3.9,8.6-3.9
				L655.8,78.2 M655.8,78.2c-4.8,0-8.5,1.6-9.5,4.6c-1.6,4.6,3.8,10.7,12.2,13.6c3,1,5.9,1.5,8.5,1.5c4.8,0,8.5-1.6,9.5-4.6
				c1.6-4.6-3.8-10.7-12.2-13.6C661.3,78.7,658.4,78.2,655.8,78.2L655.8,78.2z"/>
		</g>
		<g>
			<path class="st2" d="M704.3,98.8L704.3,98.8c1.7,0,3.7,0.3,5.6,1c4.3,1.5,8.5,4.9,7.6,7.4c-0.5,1.3-2.4,2.1-5,2.1
				c-1.7,0-3.7-0.3-5.6-1c-2.5-0.9-4.7-2.2-6.1-3.7c-1.3-1.3-1.8-2.7-1.4-3.7C699.8,99.6,701.7,98.8,704.3,98.8 M704.3,97.8
				c-3,0-5.3,1-5.9,2.8c-1,2.9,2.7,6.8,8.2,8.7c2.1,0.7,4.1,1.1,5.9,1.1c3,0,5.3-1,5.9-2.8c1-2.9-2.7-6.8-8.2-8.7
				C708.2,98.1,706.1,97.8,704.3,97.8L704.3,97.8z"/>
		</g>
		<g>
			<path class="st2" d="M703.7,95.2v1c2.6,0,5.5,0.5,8.3,1.5c3.9,1.4,7.2,3.4,9.4,5.9c2,2.3,2.8,4.5,2.2,6.4
				c-0.8,2.4-4.1,3.8-8.4,3.8c-2.6,0-5.5-0.5-8.3-1.5c-3.9-1.4-7.2-3.4-9.4-5.9c-2-2.3-2.8-4.5-2.2-6.4c0.8-2.4,4.1-3.8,8.4-3.8
				L703.7,95.2 M703.7,95.2c-4.7,0-8.3,1.6-9.4,4.5c-1.6,4.5,3.9,10.6,12.2,13.5c3,1,6,1.5,8.6,1.5c4.7,0,8.3-1.6,9.4-4.5
				c1.6-4.5-3.9-10.6-12.2-13.5C709.2,95.7,706.3,95.2,703.7,95.2L703.7,95.2z"/>
		</g>
		<g>
			<path class="st2" d="M752.4,116.5L752.4,116.5c1.9,0,4.1,0.4,6.2,1.2c5.2,1.8,8.4,5,7.8,6.7c-0.3,0.9-1.9,1.5-4.1,1.5
				c-1.9,0-4.1-0.4-6.2-1.2c-2.5-0.9-4.8-2.2-6.3-3.6c-1.3-1.2-1.8-2.3-1.6-3.1C748.6,117,750.2,116.5,752.4,116.5 M752.4,115.5
				c-2.6,0-4.6,0.7-5,2.2c-0.9,2.5,2.9,6,8.5,7.9c2.3,0.8,4.6,1.2,6.5,1.2c2.6,0,4.6-0.7,5-2.2c0.9-2.5-2.9-6-8.5-7.9
				C756.6,115.9,754.3,115.5,752.4,115.5L752.4,115.5z"/>
		</g>
		<g>
			<path class="st2" d="M751.3,114.2L751.3,114.2c2.8,0,6,0.6,9.2,1.7c3.9,1.4,7.3,3.3,9.6,5.6c2.1,2,2.9,4,2.4,5.5
				c-0.6,1.8-3.3,2.8-7,2.8c-2.8,0-6-0.6-9.2-1.7c-3.9-1.4-7.3-3.3-9.6-5.6c-2.1-2-2.9-4-2.4-5.5
				C744.9,115.2,747.5,114.2,751.3,114.2 M751.3,113.2c-4.1,0-7.2,1.2-8,3.5c-1.4,3.9,4.3,9.4,12.6,12.3c3.4,1.2,6.7,1.8,9.5,1.8
				c4.1,0,7.2-1.2,8-3.5c1.4-3.9-4.3-9.4-12.6-12.3C757.4,113.8,754.1,113.2,751.3,113.2L751.3,113.2z"/>
		</g>
		<g>
			<path class="st2" d="M560,36.5c8,0,14.5,5.2,14.5,11.5S568,59.5,560,59.5s-14.5-5.2-14.5-11.5S552,36.5,560,36.5 M560,35.5
				c-8.6,0-15.5,5.6-15.5,12.5s6.9,12.5,15.5,12.5s15.5-5.6,15.5-12.5S568.6,35.5,560,35.5L560,35.5z"/>
		</g>
		<g>
			<path class="st2" d="M758.2,90.7c3.5,1,15.6,4.9,19.1,12.7l-15.1,22.4c-0.1,0-0.2,0-0.3,0c-1.5,0-5.5-0.4-10.8-3.7L758.2,90.7
				 M757.5,89.5l-7.4,33c5.7,3.8,10.1,4.3,11.9,4.3c0.6,0,0.9,0,0.9,0l15.6-23.3C774.5,93.5,757.5,89.5,757.5,89.5L757.5,89.5z"/>
		</g>
		<g>
			<path class="st2" d="M727.7,85.2c8.3,0,15.3,3.2,15.4,3.2l0.1,0l0.1,0c3.2,0.8,10,4.8,12.1,6.1l-0.5,2.1c-2-0.4-4.2-0.6-6.4-0.6
				c-16.7,0-33.1,11.6-34.5,12.6c-0.7,0.3-1.5,0.5-2.5,0.5c-2.6,0-5.5-1.2-6.6-1.7c-1.1-5.5,2-11.2,2.2-11.6
				C711.8,88.8,718.7,85.2,727.7,85.2 M727.7,84.2c-7.3,0-15.6,2.4-21.5,11.2c0,0-3.7,6.5-2.2,12.8c0,0,3.8,2,7.4,2
				c1.1,0,2.1-0.2,3.1-0.6c0,0,17-12.5,33.9-12.5c2.4,0,4.8,0.3,7.2,0.8l0.9-3.8c0,0-9-5.6-13-6.6C743.5,87.5,736.3,84.2,727.7,84.2
				L727.7,84.2z"/>
		</g>
		<path class="st1" d="M662,93.4c0,0,35.5-25.7,57.5-9.8l2.6,1.1c0,0-11.5-16.2-27.5-17.2c0,0-18-7-29,1c0,0-10,9-10,15l-0.7,7.3"/>
		<g>
			<path class="st2" d="M667.5,56.3l0,1c10,0,17.2,4.5,20.9,7.5c-4.3-0.9-7.5-1.1-9.5-1.1c-1.4,0-2.3,0.1-2.7,0.2l-5-2.2
				c-0.8-1.7-2.6-3.2-4.2-4.3c0.2,0,0.4,0,0.6,0V56.3 M667.5,56.3c-1.3,0-2.6,0.1-4,0.2c0,0,5.6,2.7,6.8,5.8l5.7,2.5
				c0,0,0.9-0.2,2.8-0.2c2.6,0,6.9,0.4,13,2C691.8,66.6,683,56.3,667.5,56.3L667.5,56.3z"/>
		</g>
		<path class="st1" d="M603.2,69.6c0,0,2.3-33.1,39.3-22.1c0,0,12,1,21,9c0,0,6,3,7,6c0,0-7-7-29-4c0,0-21.4,3.3-29.2,15.7"/>
	</g>
	<path class="st3" d="M788,152.7L575.7,88c0,0-177.2,112.5-443.2,59.5"/>
</g>
</svg>
