<?xml version="1.0" encoding="utf-8"?>
<!-- Generator: Adobe Illustrator 23.0.3, SVG Export Plug-In . SVG Version: 6.00 Build 0)  -->
<svg version="1.1" id="Layer_1" xmlns="http://www.w3.org/2000/svg" xmlns:xlink="http://www.w3.org/1999/xlink" x="0px" y="0px"
	 width="1163.6px" height="495.3px" viewBox="0 0 1163.6 495.3" style="enable-background:new 0 0 1163.6 495.3;"
	 xml:space="preserve">
<style type="text/css">
	.st0{fill:#FFFFFF;}
	.st1{fill:none;stroke:#FFFFFF;stroke-miterlimit:10;}
</style>
<g>
	<path class="st0" d="M811.2,495.3c-128.7,0-756.7-8.6-763-8.7c-0.1,0-13.2,1.7-27.1-4.4l-0.1,0l-0.1-0.1c-0.1-0.2-3.6-4.6-4.4-16.7
		l0-0.4l0.4,0c0.3,0,6.7-0.7,8.4-0.9c0.5-3.2,0.9-39.7-9.2-52.4c-2.5-3.1-5.4-4.5-8.7-4l-0.3,0L7,407.4c-2.1-3.9-7-13.2-7-14.1V393
		l4.3-0.9v-8.5l0.1-0.1c0.1-0.1,1.6-2.4,3.4-2.8v-7.1c-0.9-0.4-3.4-2-2.6-7.3l0.1-0.2c0.1-0.2,3.7-5.4,13.4-5.4h0.6l-0.1,0.4
		c1.6,1,19.4,6.8,215.6,8.3c0.9,0,85.5,2.6,125.9,4.3l3.9,0.2c42.6,1.8,172.3,7.4,286-1c1.5,0,144.7-3.5,195.3-8.7l0.2,0
		c26.4-2.7,81.2-8.3,136.6-16.8c68.6-10.6,114.2-22.2,135.6-34.3c0,0,0,0,0,0c0,0,0.9-0.7,0.7-1.4c-0.3-0.9-2.6-2.9-17.8-2.9h-3
		l2.9-0.9c1.2-0.4,29.9-8.6,39.5,4.5l0.1,0.2c0,0,1,3.4,8,7.1c0.8,0.3,15,5.8,15,19.5v85.7l-0.2,0.1c-0.4,0.3-44.5,29.7-91.7,39.1
		c-6.2,1.2-13.1,2.7-20.4,4.3C1000.8,479.1,924.5,495.3,811.2,495.3z M48.1,485.8c6.4,0.1,634.3,8.7,763.1,8.7
		c113.2,0,189.5-16.2,239.9-27c7.3-1.6,14.2-3,20.4-4.3c45.5-9.1,88-36.7,91.2-38.9v-85.3c0-13.4-14.3-18.6-14.5-18.7l-0.1,0
		c-6.9-3.7-8.2-7-8.4-7.6c-7.4-10-27.4-6.7-35.3-4.9c9.5,0.2,14.5,1.4,15.2,3.5c0.4,1.3-0.9,2.4-1,2.4
		c-21.5,12.2-67.2,23.8-135.9,34.4c-55.4,8.6-110.3,14.2-136.6,16.8l-0.2,0c-50.6,5.2-193.9,8.6-195.3,8.7
		c-113.7,8.4-243.4,2.9-286.1,1l-3.9-0.2c-40.3-1.7-125-4.3-125.9-4.3c-195.8-1.6-214.7-7.3-216.4-8.7c-8.4,0.1-11.9,4.3-12.4,4.9
		c-0.7,5.5,2.2,6.3,2.3,6.4l0.3,0.1l0,0.3v8.2H8.2c-1.2,0-2.5,1.6-3,2.3v8.9L1,393.7c0.7,1.7,4.3,8.6,6.6,13.1
		c3.8-0.4,7.1,1.4,9.9,5.3c9.5,13.5,9.6,50.7,8.5,52.6l-0.1,0.2l-0.3,0c-0.7,0-5.8,0.6-8.2,0.8c0.8,10.7,3.7,15.1,4.2,15.8
		C35.1,487.4,48,485.8,48.1,485.8z"/>
	<path class="st0" d="M519.1,402.3c-46,0-94.3-1.5-95-1.5c-50.6-6-188.7-10.4-190.1-10.4c-142.5,1-225.1-2-226.6-8.3
		c-0.1-0.5,0.2-0.9,0.5-1.1v-8.1l0.5,0c45.8,4.4,187.3,6.9,223.9,6.9c39.5,0,208.4,8.6,210.1,8.7c57.5,4.3,220.5-6.8,222.2-6.9
		c13.7,0,218-10.7,220.1-10.9c92.7-9.9,157.1-25.4,194.8-36.6c40.8-12.2,60-22.2,60.2-22.3l0.3-0.2l6.7,6.9l-0.4,0.3
		c-28.7,20.4-202,60.1-255.1,63.6c-23.2,1.5-78,4.6-136,7.9c-73.2,4.1-148.8,8.4-174.8,10.3C564.8,401.9,542.2,402.3,519.1,402.3z
		 M233.9,389.4c1.4,0,139.5,4.4,190.2,10.4c1.1,0,109.8,3.4,156.2,0c26-1.9,101.6-6.2,174.8-10.3c58-3.3,112.8-6.4,136-7.9
		c52.7-3.5,224.4-42.7,254.2-63.2l-5.6-5.8c-2.5,1.3-21.8,10.8-60,22.2c-37.7,11.3-102.2,26.8-195.1,36.7
		c-2.1,0.1-206.3,10.9-220.1,10.9c-1.6,0.1-164.7,11.2-222.2,6.9c-1.7-0.1-170.6-8.7-210-8.7c-36.5,0-177.2-2.5-223.5-6.9v7.6
		l-0.2,0.1c-0.1,0-0.3,0.2-0.2,0.2C8.6,383.4,21.2,390.9,233.9,389.4z"/>
	<path class="st1" d="M563.3,91.7"/>
	<g>
		<path d="M1119.8,311.9c-0.9-4.3-15.5-4.1-17.1-4.1c-18-1.8-172-37-173.4-37.3c-3.7-0.9-61-26.2-68.4-31.2
			c-7.2-4.8-13.7-6.7-14.8-7c-3.4-4-13.5-5.1-15.5-5.2c-0.2-1.2-1.2-5.3-3.6-9.6c-3.6-6.7-8.8-10.6-15-11.3
			c-6.1-0.7-10.5,0.1-13.1,2.4c-1.3,1.1-1.8,2.3-2,3.2c-1.5-1.6-3.5-2.8-5.5-3.7c-1.9-1-4.3-1.9-7.2-2.5c0,0-0.1,0-0.2,0
			c-0.3-0.7-2.2-2.7-12.7-9.6c-14.1-9.4-19.9-4.9-21.2-3.7c-4.3-2.5-15.6-7.8-17-8.5l-0.8-1.6c-3.2-9-11.7-15.1-24.5-17.5
			c-8.6-1.6-16.4-1.1-18.1-1c-3-7.8-7.7-13.2-13.7-15.9c-8.2-3.7-16.6-1.3-18.5-0.7c-3.4-7.2-8.8-9.9-9.5-10.2
			c-10.8-9.9-20.4-13.6-26.6-15c-5.7-1.3-9.5-0.9-10.6-0.7c-2.1-6.1-13.4-14.3-13.9-14.6c-16.8-16.8-29.1-14.7-31.4-14.1
			c-8.4-13.7-30.3-13.9-32.9-13.8c-26-47.2-117.2-77.8-118.2-78.1l-0.3-0.1l-0.2,0.2C395.8,21.6,386.1,80,385.4,84
			c-8.7,4.5-22.8,21.8-23.4,22.6c-24.6,26.8-45.9,40.5-59.4,47.2c-14.6,7.3-23.6,8.2-23.7,8.2c-58.2,11.1-102.7,1-103.1,0.9
			c-46.4-18-60.7-20-60.8-20C85.4,138,72.1,117,71.2,115.5c-0.1-3-5-4.5-9.6-4.5c-2.3,0-4.3,0.4-5.8,1.1c-1.8,0.8-2.8,2.1-2.8,3.6
			c0,5.7-4.3,6.9-4.5,7l-0.1,0.1c-23.6,16.8-24,62.9-24.1,65.8C-1.2,227.8,19.8,360,20,361.3l0,0.3l0.3,0.1
			c37.8,7.7,140.4,8.1,141.5,8.1c31.4-0.6,173.3,2.4,270.4,7.6c21,1.1,44.5,1.6,68.2,1.6c85.2,0,174.9-5.6,176-5.7
			c192.9-3.3,282.9-21.3,283.8-21.5c134.6-17.7,159.2-39.1,159.4-39.3l0.2-0.2L1119.8,311.9z M783.8,206.4c1.2,0.3,4.2,1,7.2,2.4
			c3.2,1.6,5,3.3,5.7,4c0,0.1,0.1,0.1,0.1,0.2c-0.1,2.7-2.3,5.3-3.1,6.2l-9.9-7.4V206.4z M733.5,184.9l16.6,8.3l4.6,11.6l-21.2-13.9
			V184.9z M699.7,165.3l8.5,18.7c-2.1,1.2-4.1,0.7-4.5,0.6c-15.6-12.5-13.3-17.8-12.9-18.4C696.8,163.3,699.3,165,699.7,165.3z
			 M565.1,93.2l0.2,0.3l0.3-0.1c0,0,3.3-1,8.6,0.1c5,1.1,12.9,4.3,22.2,13.7c0.1,0.1,12,8.7,13.7,14.5l0.1,0.4l0.4-0.1
			c0,0,4.1-0.8,10.7,0.6c6.1,1.4,15.6,5.1,26.3,14.9l0.1,0.1c0.1,0,6,2.6,9.3,10.2l0.2,0.4l0.4-0.1c0.1,0,9.3-3.5,18.2,0.5
			c5.9,2.7,10.4,7.9,13.4,15.7l0.1,0.3l0.3,0c0.1,0,1.2-0.1,3.2-0.2c-0.8,0.3-1.6,0.6-2.5,1.1l-0.1,0.1c-0.1,0.1-0.7,0.9-0.6,2.8
			c0.3,3,2.9,8.4,13.6,17l0.1,0.1c0.1,0,0.8,0.2,1.8,0.2c1,0,2.4-0.2,3.8-1.2l0.3-0.2l-8.8-19.4l-0.1-0.1c0,0-0.1-0.1-0.1-0.1
			c10.8,0.8,26.6,4.4,31.5,18l0.8,1.6v7.1l23.9,15.6l-5.6-14c1-1,6.5-5.3,20.1,3.7c8.5,5.7,11.2,7.9,12,8.7v6.8l10.9,8.2l0.3-0.3
			c0.1-0.1,2.9-3,3.5-6.2l0.1,0.1v-1.2c0,0,0-1.9,1.8-3.5c1.6-1.5,5.1-3,12.4-2.1c6,0.7,10.8,4.3,14.3,10.8c2.4,4.5,3.4,8.8,3.5,9.5
			c-0.6,1.7-8.5,22.6-19.7,26.4c-3.3,1.1-6.7,0.6-10-1.5c-16.8-10.9-8.9-25.7-8.5-26.3l0.3-0.5l-11.1-3.7l-0.2,0.1
			c-0.2,0.2-25,16.2-36.8,6.1c-3.1-2.6-4.5-5.5-4.3-8.5c0.5-6.5,8.5-11.6,8.6-11.7l0.7-0.4l-16.6-7.4l-0.2,0.2
			c-0.3,0.2-27.7,20.6-41.2,12.1c-3-1.9-4.7-4.3-5-7.3c-0.7-8,9.3-17.1,9.4-17.2l0.1-0.1v-0.2c0-0.9-0.4-1.5-1-2
			c-4.7-3.1-25.6,5.6-26.5,5.9c-12.9,4.9-19.6,3.7-23,1.8c-3.5-1.9-4.2-5-4.2-5c-5-15.9,13.7-22.6,14.5-22.9l0.8-0.3l-7.6-5.7
			c-9.5-6.9-25.2,5.8-26.5,6.9c-25.3,7.3-32.8-3.4-33.2-4.1c-2.4-9.1,6.7-15,6.8-15.1l0.1-0.1c6.8-9.3,23.9-12.8,24-12.8l0.6-0.1
			l-0.3-0.5c-0.9-1.8-8.4-3.4-9.9-3.7l-0.3-0.1l-3.4,4.3l-11.2-4.3l-0.2,0.1c-17.9,13-41.4,16.9-43.9,17.2
			c-5.8-5.9-6.7-17.7-6.7-17.7c0.8-8.4,14.4-17.8,14.6-17.9l0.1-0.1l0-0.1c0.9-2.8-6.5-6.7-8-7.5c-7.9-4.4-21.2,8.6-22.2,9.6
			c-19.8,11.1-28.7,8.2-29.8,7.8c-9-16.5,0.4-25.8,8-33.4l0.7-0.7c7.6-7.6,24.7-7.7,24.9-7.7h0.7l0,0c1.8,0,6.8,0.1,12.4,1.4
			C552.1,82.4,560.7,85.8,565.1,93.2z M960.1,350.8c-0.9,0.2-90.8,18.2-283.7,21.5c-1.5,0.1-147.7,9.3-244.2,4.2
			c-88.5-4.7-214.1-7.6-259.6-7.6c-4.5,0-8.1,0-10.9,0.1c-1,0-103-0.3-141-8c-1.1-7.1-20.5-134,4.3-172.1l0.1-0.1l0-0.1
			c0-0.5-0.2-48.1,23.6-65.1c0.7-0.2,5-1.9,5-7.8c0-1.2,0.8-2.1,2.3-2.8c1.4-0.6,3.3-1,5.5-1c4.3,0,8.7,1.4,8.7,3.8v0.1l0.1,0.1
			c0.1,0.2,13.5,22.8,44.6,28c0.1,0,14.4,2,60.7,20c0.4,0.1,45,10.3,103.4-0.9c0.1,0,9.1-1,23.9-8.3c13.6-6.7,35-20.4,59.7-47.4
			c0.1-0.2,14.8-18.2,23.3-22.5l0.2-0.1l0-0.2c0.1-0.6,9.7-61.3,28.4-82.9c5.5,1.9,91.8,31.8,117.2,77.2c-3.4,0.1-17.7,0.9-24.8,7.9
			l-0.7,0.7c-7.8,7.8-17.5,17.4-8,34.5l0.1,0.1l0.1,0.1c0.4,0.2,9.1,4.3,30.8-7.8l0.1-0.1c0.1-0.1,13.7-13.6,21.2-9.5
			c3.4,1.7,7.9,4.7,7.6,6.3c-1.5,1.1-14,10-14.8,18.5c0,0.5,1,12.4,7.1,18.5l0.2,0.2l0.2,0c0.3,0,25.3-3.6,44.3-17.3l11.4,4.4
			l3.5-4.4c2.9,0.6,7.1,1.7,8.5,2.7c-3.5,0.8-17.5,4.5-23.8,13c-0.9,0.6-9.6,6.8-7.1,16.1l0,0.1c0.3,0.5,7.4,12.4,34.4,4.5l0.2-0.1
			c0.2-0.1,16.3-13.6,25.5-6.9l6.3,4.7c-3.6,1.5-19,8.8-14.3,23.6c0,0.1,0.7,3.4,4.6,5.6c5.2,2.8,13.1,2.3,23.8-1.8
			c5.9-2.5,22.1-8.4,25.7-6c0.4,0.3,0.6,0.6,0.6,1.1c-1.3,1.2-10.2,9.8-9.5,17.8c0.3,3.2,2.1,5.9,5.4,7.9c13.5,8.4,39.2-10,41.9-12
			l14.7,6.5c-2,1.4-7.9,6.1-8.3,11.9c-0.2,3.3,1.3,6.4,4.6,9.2c11.9,10.2,35.2-4.3,37.7-5.9l9.7,3.2c-1.3,2.7-6.8,16.7,9.1,27
			c3.5,2.3,7.1,2.8,10.7,1.6c11.4-3.8,19.1-23.8,20.2-26.7c1.9,0.2,12,1.3,15,5l0.1,0.1l0.1,0c0.1,0,7,1.8,14.6,6.9
			c7.5,5,65,30.4,68.7,31.3c1.3,0.3,155.5,35.6,173.5,37.3c4.2-0.1,15.1,0.3,16.2,3.1C1116.3,313.9,1088,334,960.1,350.8z"/>
		<path class="st0" d="M500.4,379.3c-25.8,0-48.7-0.5-68.2-1.6c-97.3-5.2-239.1-8.2-270.4-7.6c-1,0-103.7-0.3-141.6-8.1l-0.6-0.1
			l-0.1-0.6C19.3,360-1.6,228,23.9,188.2c0-3.3,0.7-49.2,24.2-66l0.2-0.1c0.2-0.1,4.2-1.2,4.2-6.6c0-1.7,1.1-3.1,3-4
			c1.6-0.7,3.7-1.1,6-1.1c4.8,0,9.8,1.7,10,4.8c1.1,1.8,14.5,22.3,43.6,27.2c0.1,0,14.3,1.9,60.9,20c1.8,0.4,45.6,10,102.8-0.9
			c0.4,0,9.3-1.1,23.6-8.2c13.5-6.7,34.7-20.3,59.3-47.1c0.6-0.7,14.4-17.8,23.3-22.6c0.8-4.7,10.5-62.6,28.8-83.3l0.4-0.4l0.5,0.2
			c0.9,0.3,92.1,30.9,118.3,78.1c0,0,0.1,0,0.1,0c3.8,0,24.5,0.6,32.8,13.8c3-0.7,15.2-2,31.5,14.3c0.1,0,11.4,8.1,13.9,14.4
			c1.6-0.2,5.2-0.4,10.5,0.8c6.2,1.4,15.9,5.2,26.8,15.1c0.9,0.4,6.2,3.1,9.5,10.1c2.3-0.7,10.5-2.7,18.4,0.8
			c6.1,2.7,10.8,8.1,13.8,15.8c2.1-0.1,9.8-0.5,17.9,1c13,2.5,21.5,8.6,24.9,17.8l0.7,1.4c2.3,1.1,12.3,5.8,16.6,8.2
			c1.9-1.7,8-5.2,21.5,3.8c9.9,6.6,12.2,8.7,12.7,9.6c2.6,0.6,5.1,1.4,7.3,2.5c2,1,3.7,2.1,5.1,3.3c0.3-0.8,0.9-1.8,1.9-2.7
			c2.7-2.4,7.2-3.2,13.4-2.5c6.3,0.7,11.6,4.7,15.3,11.5c2.2,4,3.2,7.9,3.5,9.4c2.6,0.2,12,1.4,15.4,5.3c1.5,0.4,7.8,2.4,14.7,7
			c7.5,5,64.6,30.2,68.3,31.1c1.3,0.3,155.4,35.6,173.3,37.3c2.7-0.1,16.6-0.2,17.5,4.4l0.1,0.5l-0.4,0.3
			c-0.2,0.2-25,21.7-159.6,39.4c-0.9,0.2-90.6,18.2-283.9,21.5C675.6,373.6,585.8,379.3,500.4,379.3
			C500.4,379.3,500.4,379.3,500.4,379.3z M172.7,368.3c47.3,0,172,3,259.6,7.6c95.5,5.1,238.1-3.8,244.1-4.2
			c192.6-3.3,282.7-21.3,283.6-21.5l0,0c123.9-16.3,154.1-35.5,158.2-38.6c-1.5-2-9.9-2.7-15.6-2.6c-18-1.8-172.3-37-173.6-37.4
			c-3.7-0.9-61.3-26.4-68.8-31.4c-7.6-5.1-14.4-6.8-14.5-6.8l-0.3-0.1l-0.2-0.2c-2.8-3.4-11.8-4.6-14.4-4.8
			c-1.7,4.5-9.2,22.9-20.4,26.6c-3.7,1.3-7.5,0.7-11.1-1.7c-15.4-10-11-23.5-9.4-27.1l-9.1-3c-3.4,2.1-26.2,15.9-38,5.8
			c-3.4-2.9-5-6.1-4.7-9.6c0.4-5.5,5.5-10,7.9-11.8l-13.8-6.1c-3.7,2.7-28.8,20.3-42.2,11.9c-3.4-2.1-5.3-4.9-5.6-8.3
			c-0.7-7.8,7.4-16,9.5-18c-0.1-0.2-0.2-0.4-0.4-0.6c-3-2-17.1,2.6-25.2,6.1c-10.8,4.1-18.9,4.7-24.2,1.8c-4-2.2-4.8-5.7-4.8-5.9
			c-4.5-14.3,9.5-21.9,13.9-23.8l-5.7-4.3c-8.8-6.4-24.8,6.8-25,6.9l-0.3,0.2c-27.2,7.9-34.6-4.2-34.8-4.7l-0.1-0.2
			c-2.6-9.4,5.9-15.7,7.2-16.5c5.8-7.8,17.9-11.5,22.9-12.8c-1.7-0.8-4.7-1.6-7.2-2.1l-3.5,4.4l-11.4-4.4
			c-19,13.6-44,17.2-44.3,17.2l-0.4,0.1l-0.3-0.3c-6.2-6.2-7.2-18.3-7.2-18.8c0.8-8.5,12.7-17.3,14.8-18.8c-0.2-1.2-3.5-3.7-7.4-5.7
			c-7.2-4-20.6,9.3-20.7,9.4l-0.1,0.1c-21.9,12.3-30.9,8-31.2,7.9l-0.2-0.1l-0.1-0.2c-9.6-17.4,0.2-27.2,8.1-35l0.7-0.7
			c6.7-6.7,19.5-7.8,24.3-8C505.6,33.9,421.3,4.2,414.8,2c-18.5,21.7-28,81.8-28.1,82.5l-0.1,0.4l-0.4,0.2
			c-8.4,4.2-23,22.2-23.2,22.3c-24.8,27-46.2,40.8-59.9,47.5c-14.8,7.3-24,8.3-24.1,8.3c-58.3,11.2-103.1,1-103.6,0.8
			c-46.2-18-60.5-19.9-60.7-19.9C83.6,139,70.1,116.2,70,116l-0.1-0.2v-0.2c0-2.1-4.3-3.4-8.3-3.4c-2.1,0-4,0.3-5.3,0.9
			c-1.3,0.6-2,1.4-2,2.4c0,6-4.5,7.9-5.2,8.2c-23.5,17-23.4,64.3-23.4,64.7l0,0.3l-0.1,0.2C1,226.6,19.8,351.8,21.2,360.5
			c38.1,7.6,139.6,7.9,140.6,7.9C164.5,368.4,168.2,368.3,172.7,368.3z M180.3,369.2c45.6,0.3,145.4,2.6,226.3,6.3
			C326.4,371.9,227.1,369.5,180.3,369.2z M959.4,351.3c-9.4,1.8-100,18.2-283,21.3c-0.2,0-0.6,0-1.1,0.1c0.7,0,1.1-0.1,1.1-0.1
			C860,369.6,950.2,353.1,959.4,351.3z M20.4,361.2c37.8,7.7,140.3,8.1,141.3,8.1c0.6,0,1.1,0,1.8,0c-0.6,0-1.2,0-1.8,0
			c-1,0-103.1-0.3-141.1-8L20.4,361.2z M23.8,190c-22.9,39-5.5,157.7-3.6,170.2C18.4,348.4,0.9,229,23.8,190z M960.2,351.2
			L960.2,351.2c0.2,0,0.5-0.1,0.7-0.1C960.7,351.1,960.4,351.2,960.2,351.2z M961.1,351.1c-0.1,0-0.1,0-0.2,0
			C961,351.1,961,351.1,961.1,351.1z M961.3,351c0,0-0.1,0-0.1,0C961.2,351.1,961.2,351.1,961.3,351z M961.4,351
			C961.4,351,961.4,351,961.4,351C961.4,351,961.4,351,961.4,351z M1103.9,308.3c1.5,0,4.1,0,6.7,0.3c-2.8-0.3-5.8-0.4-7.9-0.3
			c-1-0.1-2.5-0.3-4.3-0.6c1.8,0.3,3.3,0.5,4.3,0.6C1102.8,308.3,1103.2,308.3,1103.9,308.3z M924.1,269c2.7,1.1,4.6,1.9,5.2,2
			c0.2,0.1,4.5,1,11.7,2.7c-7.1-1.6-11.5-2.6-11.7-2.7C928.7,270.8,926.8,270.1,924.1,269z M924.1,269L924.1,269
			C924.1,269,924.1,269,924.1,269z M800.9,253.3c2.8,1.6,5.7,2,8.5,1.2C806.5,255.3,803.7,254.9,800.9,253.3z M780.7,221.4l11.8,3.9
			l-0.5,0.9c-0.3,0.6-8.1,15.1,8.4,25.8c3.2,2,6.4,2.5,9.6,1.5c10.8-3.7,18.7-24.1,19.4-26c-0.2-1-1.2-5.1-3.5-9.3
			c-3.5-6.3-8.2-9.9-14-10.6c-7.2-0.8-10.5,0.6-12.1,2c-1.7,1.5-1.7,3.2-1.7,3.2v2.4l-0.3-0.4c-0.9,3-3.3,5.4-3.4,5.5l-0.5,0.5
			l-11.4-8.5v-6.8c-0.9-0.8-3.5-3-11.8-8.5c-12.5-8.4-18-5.2-19.3-4l6,15l-25.3-16.5v-7.2l-0.8-1.6c-4.6-12.8-18.9-16.7-30.4-17.7
			l8.8,19.3l-0.6,0.4c-1.2,0.8-2.6,1.2-4.1,1.2c-1.1,0-1.8-0.2-1.9-0.3l-0.2-0.1c-10.9-8.7-13.5-14.2-13.9-17.3
			c-0.2-2,0.5-2.9,0.7-3.1l0.3-0.2c0.1-0.1,0.2-0.1,0.3-0.1c-0.4,0-0.7,0.1-0.7,0.1l-0.7,0.1l-0.2-0.6c-2.9-7.7-7.3-12.9-13.1-15.5
			c-8.8-3.9-17.8-0.6-17.8-0.5l-0.8,0.3l-0.3-0.8c-3.3-7.4-9-9.9-9.1-10l-0.2-0.1c-10.7-9.8-20.1-13.4-26.1-14.8
			c-6.4-1.4-10.4-0.7-10.5-0.6l-0.8,0.2l-0.2-0.8c-1.6-5.7-13.4-14.2-13.6-14.3c-9.3-9.3-17.1-12.5-22.1-13.6
			c-5.2-1.1-8.3-0.2-8.4-0.1l-0.7,0.2l-0.4-0.6c-4.3-7.4-12.8-10.6-19.2-12.1c-5.1-1.2-9.7-1.4-11.8-1.4l-1.2,0
			c-0.2,0-17.1,0.1-24.6,7.6l-0.7,0.7c-7.4,7.4-16.7,16.6-8,32.7c1.5,0.5,10.3,2.8,29.2-7.8c1.7-1.6,14.6-14.1,22.7-9.6
			c2.2,1.1,9.2,4.9,8.2,8l-0.1,0.3l-0.2,0.2c-0.1,0.1-13.5,9.4-14.4,17.6v0c0.1,1.2,1.2,11.7,6.4,17.3c3.5-0.6,26.1-4.5,43.4-17.1
			l0.4-0.3l11.1,4.3l3.4-4.3l0.5,0.1c2.7,0.5,9.2,2,10.2,3.9l0.5,1l-1.1,0.2c-0.2,0-17.1,3.5-23.8,12.7l-0.2,0.2
			c-0.2,0.1-8.9,5.9-6.7,14.6c0.6,0.9,8.1,11,32.6,3.9c2.1-1.7,17.4-13.8,27-6.9l8.3,6.2l-1.5,0.5c-0.8,0.3-19.1,6.9-14.2,22.4
			c0.1,0.3,0.8,3,4,4.8c3.3,1.8,9.9,3,22.7-1.9c2.2-0.9,22-9.1,26.8-5.9c0.8,0.5,1.2,1.4,1.2,2.4v0.4l-0.3,0.3
			c-0.1,0.1-9.9,9.1-9.2,16.9c0.2,2.8,1.9,5.1,4.8,6.9c13.2,8.2,40.4-11.9,40.7-12.1l0.4-0.3l17.6,7.8l-1.4,0.9
			c-0.1,0.1-7.9,5.1-8.4,11.3c-0.2,2.8,1.2,5.6,4.1,8.1c11.5,9.9,36-6,36.3-6.1L780.7,221.4z M812,253.5
			C812,253.5,812,253.5,812,253.5C812,253.5,812,253.5,812,253.5z M826.3,217c0.1,0.2,0.3,0.5,0.4,0.7c2.4,4.5,3.4,8.8,3.6,9.7
			l0,0.1l0,0.1c-0.8,2.2-7.9,20.6-18.2,25.8c10.3-5.2,17.3-23.5,18.1-25.6l0.1-0.3l-0.1-0.3c-0.2-1.1-1.2-5.2-3.5-9.4
			C826.5,217.5,826.4,217.3,826.3,217z M860.6,239.7c0.3,0.2,0.7,0.4,1.2,0.7C861.4,240.2,861,239.9,860.6,239.7z M860.6,239.7
			C860.6,239.7,860.6,239.7,860.6,239.7C860.6,239.7,860.6,239.7,860.6,239.7z M860.6,239.7C860.6,239.7,860.6,239.7,860.6,239.7
			C860.6,239.7,860.6,239.7,860.6,239.7z M860.5,239.6C860.5,239.6,860.5,239.6,860.5,239.6C860.5,239.6,860.5,239.6,860.5,239.6z
			 M860.5,239.6C860.5,239.6,860.5,239.6,860.5,239.6C860.5,239.6,860.5,239.6,860.5,239.6z M860.4,239.6
			C860.4,239.6,860.4,239.6,860.4,239.6C860.4,239.6,860.4,239.6,860.4,239.6z M860.4,239.5C860.4,239.5,860.4,239.5,860.4,239.5
			C860.4,239.5,860.4,239.5,860.4,239.5z M860.3,239.5C860.4,239.5,860.4,239.5,860.3,239.5C860.4,239.5,860.4,239.5,860.3,239.5z
			 M860.3,239.5C860.3,239.5,860.3,239.5,860.3,239.5C860.3,239.5,860.3,239.5,860.3,239.5z M856.3,237.1c1.3,0.7,2.6,1.5,4,2.4
			C858.9,238.6,857.6,237.8,856.3,237.1z M856.3,237.1C856.3,237.1,856.3,237.1,856.3,237.1C856.3,237.1,856.3,237.1,856.3,237.1z
			 M856.3,237.1C856.3,237.1,856.3,237.1,856.3,237.1C856.3,237.1,856.3,237.1,856.3,237.1z M845.9,232.8L845.9,232.8
			C845.9,232.8,845.9,232.8,845.9,232.8L845.9,232.8l-0.1-0.1C845.8,232.7,845.9,232.7,845.9,232.8L845.9,232.8z M845.8,232.7
			C845.8,232.7,845.8,232.7,845.8,232.7C845.8,232.7,845.8,232.7,845.8,232.7z M845.8,232.6C845.8,232.6,845.8,232.6,845.8,232.6
			C845.8,232.6,845.8,232.6,845.8,232.6z M830.4,227.6l0.2,0c2,0.2,11.9,1.3,15.2,5c-3.3-3.8-13.2-4.9-15.2-5L830.4,227.6z
			 M742.3,227.3c0.4,0.4,0.8,0.7,1.2,1.1c11.6,9.9,34.6-4.3,37.2-6l0.2-0.1l7.8,2.6l-7.8-2.6c-0.2,0.1-14.7,9.5-26.9,9.5
			c-3.9,0-7.5-0.9-10.4-3.4C743,228.1,742.7,227.7,742.3,227.3z M791.2,225.8l-0.1,0.2C791.2,225.9,791.2,225.9,791.2,225.8
			L791.2,225.8z M796.1,216.6c-0.7,1.3-1.6,2.3-2.1,2.8l-0.1,0.1C794.4,219.2,795.3,218,796.1,216.6z M739.4,203.8l8.4,3.7l-0.6,0.4
			c-1.8,1.2-7.5,5.7-8.1,11.2c0.7-6.5,8.7-11.6,8.8-11.6L739.4,203.8z M784.3,211.5l9.4,7.1c0.8-1,2.5-3.2,2.7-5.4l0,0
			c-0.5-0.5-2.3-2.3-5.5-3.9c-2.6-1.2-5.2-2-6.6-2.3V211.5z M691,213.1c13.4,7.5,38.1-10.2,41-12.3l0.2-0.2h0
			c-0.3,0.2-19.2,14.2-33.5,14.2C695.9,214.9,693.3,214.4,691,213.1z M797.3,212.9l0,0.1c0,0.2,0,0.3,0,0.5l0-0.3V212.9z
			 M783.4,205.9l0.5,0.1c1.2,0.3,4.2,1,7.3,2.5c3.3,1.6,5.1,3.4,5.8,4.1l0.3,0.3v0c0,0,0-2.1,2-3.8c1.7-1.5,5.3-3.1,12.8-2.3
			c0.2,0,0.5,0.1,0.7,0.1c-0.2,0-0.5-0.1-0.7-0.1c-6-0.7-10.3,0.1-12.8,2.3c-1.2,1-1.7,2.2-1.9,3l-0.2,0.8l-0.5-0.6
			c-1.3-1.4-3.1-2.6-5.3-3.7c-2.2-1.1-4.6-1.9-7.1-2.5l-0.3-0.1l-0.1-0.2c0-0.1-0.2-0.3-0.3-0.5v6.7l0.3,0.2l-0.3-0.2V205.9z
			 M694.9,187.6l-0.1,0.1c-1,1-10.1,9.6-9.4,17.4c0.2,1.9,0.9,3.7,2.3,5.2c-1.3-1.5-2.1-3.2-2.3-5.2
			C684.6,197,694.7,187.8,694.9,187.6L694.9,187.6C694.9,187.6,694.9,187.6,694.9,187.6z M733.7,191.5l21.9,14.3l0,0L733.7,191.5z
			 M784.3,205.5L784.3,205.5L784.3,205.5L784.3,205.5z M733.9,190.6l19.9,13l-4.1-10.2l-15.8-7.9V190.6z M771.4,196.4
			c5.4,3.6,8.4,5.8,10.2,7.2C779.5,202,776.1,199.6,771.4,196.4z M771.3,196.4C771.4,196.4,771.4,196.4,771.3,196.4
			C771.4,196.4,771.4,196.4,771.3,196.4z M771.3,196.3C771.3,196.4,771.3,196.4,771.3,196.3C771.3,196.4,771.3,196.4,771.3,196.3z
			 M771.2,196.3C771.3,196.3,771.3,196.3,771.2,196.3C771.3,196.3,771.3,196.3,771.2,196.3z M756.5,190.6c3.2,0,8,1.2,14.5,5.5
			c-13.8-9.1-19.4-4.6-20.4-3.6l-0.2,0.2l-0.3-0.2c-4.2-2.4-14.8-7.5-16.9-8.4l-0.1-0.1l-0.8-1.7c-0.1-0.2-0.1-0.3-0.2-0.5
			c0.1,0.2,0.1,0.3,0.2,0.5l0.8,1.7v6.9v-6.9l17.4,8.7l0,0l0.2-0.2C751.1,192.1,752.9,190.6,756.5,190.6z M640.2,188.5
			c0.1,0.4,0.8,3.3,4.4,5.3c4.9,2.7,12.6,2.2,22.8-1.6c-12.6,4.7-19.3,3.5-22.8,1.6C641.1,191.9,640.3,188.9,640.2,188.5z
			 M688.1,185.7c-6.1,0.9-14.9,4.1-20.1,6.3C668.8,191.6,680.4,186.9,688.1,185.7z M23.8,190C23.8,190,23.8,190,23.8,190
			C23.8,190,23.8,190,23.8,190z M24.7,188.5L24.7,188.5C24.7,188.5,24.7,188.5,24.7,188.5L24.7,188.5
			C24.7,188.5,24.7,188.5,24.7,188.5z M694.3,186.2C694.3,186.2,694.3,186.2,694.3,186.2C694.3,186.2,694.3,186.2,694.3,186.2z
			 M694.3,186.2C694.3,186.2,694.3,186.2,694.3,186.2C694.3,186.2,694.3,186.2,694.3,186.2z M694.2,186.2
			C694.2,186.2,694.3,186.2,694.2,186.2C694.3,186.2,694.2,186.2,694.2,186.2z M694.2,186.2C694.2,186.2,694.2,186.2,694.2,186.2
			C694.2,186.2,694.2,186.2,694.2,186.2z M694.1,186.1c0,0,0.1,0.1,0.1,0.1C694.2,186.1,694.1,186.1,694.1,186.1z M694.1,186.1
			C694.1,186.1,694.1,186.1,694.1,186.1C694.1,186.1,694.1,186.1,694.1,186.1z M694.1,186C694.1,186,694.1,186.1,694.1,186
			C694.1,186.1,694.1,186,694.1,186z M694.1,186C694.1,186,694.1,186,694.1,186C694.1,186,694.1,186,694.1,186z M694.1,186
			L694.1,186z M703.6,185.1c0,0,0.6,0.2,1.6,0.2c1.2,0,2.3-0.3,3.3-0.9l-0.1,0C706.2,185.7,704,185.2,703.6,185.1L703.6,185.1
			L703.6,185.1C703.6,185.1,703.6,185.1,703.6,185.1z M690.5,166c-0.1,0.2-0.5,1-0.4,2.4c0.3,2.9,2.9,8.2,13.5,16.7l0,0l-0.1-0.1
			C687.8,172.5,689.9,167,690.5,166L690.5,166z M703.9,184.2c0.5,0.1,2,0.4,3.7-0.4l-8.3-18.2c-0.5-0.3-2.9-1.6-8.2,1
			C690.8,167.4,689.4,172.6,703.9,184.2z M700.1,165.1l6.4,14L700.1,165.1z M588.1,162.5L588.1,162.5c0.3,0.5,7.3,12,33.8,4.3h0l0,0
			C596,174.3,588.4,163,588.1,162.5L588.1,162.5z M698.9,164.1l1.4,0.1c6.1,0.4,13,1.7,18.9,4.6c-3.2-1.6-7-2.8-11.2-3.6
			c-4.7-0.9-9.1-1.1-12.5-1.2l-2.5,0.9c0,0-0.1,0-0.1,0c4.5-1.6,6.6-0.3,7.1,0.1L698.9,164.1z M622.6,166.2
			c-0.3,0.3-0.6,0.4-0.6,0.5l0,0l0,0C622.1,166.7,622.3,166.5,622.6,166.2z M690.6,165.9L690.6,165.9L690.6,165.9
			c0.2-0.1,0.3-0.1,0.4-0.2C690.8,165.8,690.7,165.8,690.6,165.9z M654,164.4l0.9,0.7l-0.3,0.1c0.2-0.1,0.3-0.1,0.3-0.1h0L654,164.4
			z M700,165L700,165L700,165C700,165,700,165,700,165z M688.8,162c0.3,0.7,0.6,1.4,0.9,2.1l0,0c0,0,1.2-0.1,3.2-0.2l1,0
			c-1.9,0-3.3,0.1-3.9,0.2l-0.3,0l-0.1-0.3C689.3,163.3,689,162.6,688.8,162z M154.4,155.3c6.2,2.2,13.3,4.9,21.4,8c0,0,0,0,0,0
			C167.8,160.2,160.7,157.6,154.4,155.3z M594.8,147c-1.5,1.1-9,6.9-6.7,15.5l0-0.1C585.8,153.8,593.3,148,594.8,147z M301.8,154.7
			c-11.1,5.4-18.8,7.1-21.6,7.5C283,161.8,290.7,160.1,301.8,154.7z M688.8,162C688.8,162,688.8,162,688.8,162
			C688.8,162,688.8,162,688.8,162z M301.8,154.7C301.8,154.7,301.8,154.7,301.8,154.7C301.8,154.7,301.8,154.7,301.8,154.7z
			 M648,137.3c0,0,6.1,2.7,9.5,10.4v0l0,0c0.1,0,3.4-1.3,8-1.4c-3.8,0.1-6.8,1-7.7,1.3l-0.4,0.1l-0.2-0.4
			C654.1,140.2,648.6,137.6,648,137.3L648,137.3C648,137.3,648,137.3,648,137.3L648,137.3L648,137.3z M543.8,129.6
			c0.1,0.9,1,11.5,6.3,17.5C545.1,141.4,544,131.6,543.8,129.6L543.8,129.6z M595,146.8L595,146.8C595,146.8,595,146.8,595,146.8
			L595,146.8z M596.4,145.2c-0.5,0.5-0.9,1-1.3,1.6l0,0.1l0.1-0.1C595.5,146.2,595.9,145.7,596.4,145.2z M70.7,115.6
			c0.3,0.5,13.6,22.7,44.3,27.8c0,0,0,0,0.1,0c0,0,0,0,0,0C84.9,138.3,71.4,116.6,70.7,115.6L70.7,115.6z M619.3,133.8l-0.7,0.2
			c-2.3,0.5-12.1,3-19.1,8.4C607.4,136.3,619.2,133.8,619.3,133.8L619.3,133.8C619.3,133.8,619.3,133.8,619.3,133.8z M48.6,123
			L48.6,123c-5.4,3.9-9.6,9.3-12.8,15.4C39,132.3,43.2,126.9,48.6,123L48.6,123z M613.9,121.4c1.9,0,4.4,0.2,7.6,0.9
			c6.1,1.4,15.7,5.1,26.5,15l0,0c-10.7-9.8-20.3-13.5-26.4-14.9c-5.6-1.3-9.5-0.9-10.5-0.7l-0.4,0.1l-0.1-0.3
			c-1.9-5.4-11.4-12.7-13.4-14.1c2,1.5,11.9,9.1,13.5,14.5l0,0C610.7,121.6,611.9,121.4,613.9,121.4z M597.5,131.3l8.8,3.4l1.3-1.6
			l-1.3,1.6L597.5,131.3z M609.9,130.4L609.9,130.4c1.8,0.4,4.5,1,6.5,1.8C614.7,131.5,612.3,130.8,609.9,130.4z M558.6,111.2
			l-0.1,0.1c-1.1,0.8-9.4,6.7-13,13.4C549.3,117.7,558.5,111.3,558.6,111.2L558.6,111.2C558.6,111.2,558.6,111.2,558.6,111.2z
			 M48.6,123C48.6,123,48.6,123,48.6,123L48.6,123L48.6,123z M498.7,121.7c0.9,0.4,9.6,3.8,30.3-7.8l0,0c0.1-0.1,13.9-13.8,21.7-9.5
			c0.1,0,5.6,2.8,7.4,5.3c-1.2-1.7-4.2-3.7-7.4-5.3c-7.7-4.3-21.1,8.9-21.7,9.5l-0.1,0.1C508.9,125.1,499.8,122.1,498.7,121.7
			L498.7,121.7z M498.7,121.7l-0.1-0.1c-7-12.9-3-21.5,2.7-28.2C495.6,100.1,491.5,108.7,498.7,121.7L498.7,121.7z M53.4,115.8
			C53.4,115.8,53.4,115.8,53.4,115.8C53.4,115.8,53.4,115.8,53.4,115.8z M53.4,115.7C53.4,115.7,53.4,115.7,53.4,115.7
			C53.4,115.7,53.4,115.7,53.4,115.7z M53.4,115.7C53.4,115.7,53.4,115.7,53.4,115.7C53.4,115.7,53.4,115.7,53.4,115.7z M53.4,115.7
			C53.4,115.7,53.4,115.7,53.4,115.7C53.4,115.7,53.4,115.7,53.4,115.7z M53.4,115.6C53.4,115.6,53.4,115.6,53.4,115.6
			C53.4,115.6,53.4,115.6,53.4,115.6z M53.4,115.6C53.4,115.6,53.4,115.6,53.4,115.6C53.4,115.6,53.4,115.6,53.4,115.6z M70.7,115.6
			L70.7,115.6C70.7,115.6,70.7,115.6,70.7,115.6l0-0.1c0,0,0,0,0-0.1C70.7,115.5,70.7,115.5,70.7,115.6L70.7,115.6z M53.4,115.6
			C53.4,115.6,53.4,115.6,53.4,115.6C53.4,115.6,53.4,115.6,53.4,115.6z M61.3,111.3c-1.1,0-2.1,0.1-3,0.3
			C59.3,111.5,60.3,111.4,61.3,111.3z M61.4,111.3C61.4,111.3,61.4,111.3,61.4,111.3C61.4,111.3,61.4,111.3,61.4,111.3z M61.6,111.3
			C61.5,111.3,61.5,111.3,61.6,111.3C61.5,111.3,61.5,111.3,61.6,111.3z M569.3,92.6c1.4,0,3.1,0.1,5,0.6c5,1.1,13,4.4,22.4,13.8
			c0,0,0,0,0,0c-16.7-16.7-28.7-14.6-31-14l-0.3,0.1l-0.1-0.2c0,0.1,0.1,0.1,0.1,0.2l0,0C565.6,93,567,92.6,569.3,92.6z M385.9,83.7
			c0,0.2-0.1,0.3-0.1,0.4l0,0.2l-0.2,0.1c-7.8,4.1-20.3,18.9-22.8,21.9c2.5-3,15.2-18.1,23-22v0C385.8,84.3,385.9,84.1,385.9,83.7z
			 M501.3,93.3C501.3,93.3,501.3,93.3,501.3,93.3C501.3,93.3,501.3,93.3,501.3,93.3z M501.3,93.2C501.3,93.2,501.3,93.3,501.3,93.2
			C501.3,93.3,501.3,93.2,501.3,93.2z M501.4,93.2C501.4,93.2,501.4,93.2,501.4,93.2C501.4,93.2,501.4,93.2,501.4,93.2z M501.4,93.2
			C501.4,93.2,501.4,93.2,501.4,93.2C501.4,93.2,501.4,93.2,501.4,93.2z M564.5,91.5L564.5,91.5z M564.5,91.4
			C564.5,91.4,564.5,91.4,564.5,91.4C564.5,91.4,564.5,91.4,564.5,91.4z M562.1,88.7c0.9,0.8,1.6,1.8,2.4,2.7
			C563.8,90.4,563,89.5,562.1,88.7z M507.8,86.6C507.7,86.6,507.7,86.6,507.8,86.6C507.7,86.6,507.7,86.6,507.8,86.6z M532.5,79.1
			l-0.7,0c-2.8,0.1-16.9,0.8-24.1,7.4C515.6,79.3,532.1,79.1,532.5,79.1l0.6,0c-0.1,0-0.2,0-0.3,0L532.5,79.1L532.5,79.1z
			 M414.6,1.1l0.1,0c3.5,1.2,80,27.5,111.3,68.1C494.8,28.6,418.5,2.4,414.6,1.1z M414.4,1.1c-0.2,0.2-0.3,0.4-0.5,0.6
			C414,1.6,414.1,1.4,414.4,1.1L414.4,1.1z"/>
	</g>
	<path class="st0" d="M215.6,370.2c-6.3-43-57.8-89.7-99.9-121.2c-45.6-34.2-90.4-58.5-90.8-58.8l0.4-0.8
		c0.4,0.2,45.2,24.6,90.9,58.8c26.8,20.1,48.8,39.7,65.1,58.1c20.5,23.1,32.3,44.5,35.1,63.7L215.6,370.2z"/>
	<path class="st0" d="M179.8,305.9l-40.4-38.4l1-0.1c42.4-2.6,105.7-9.9,167-30.1c36.7-12,55.4-23.1,55.6-23.2
		c57.5-35.8,97.1-27.1,118.3-22.3c0.9,0.2,1.8,0.4,2.6,0.6c11.8,2.6,80.6,26,136,44.8c38.4,13.1,71.6,24.3,74,24.7
		c0.9,0.1,2.1,0.4,3.5,0.6c7.8,1.5,22.3,4.4,36.2-1.5c0.1,0,8.6-3.5,12-8.5l0.2-0.3l0.3,0.1c0.3,0.1,33,13,37.3,14.8l0.5,0.2
		l-0.3,0.4c-0.1,0.2-10.7,16.7-25.4,22.7c-0.3,0.1-31.2,16.4-88.8,0c-1.4-0.3-138.7-32.4-195.3-53.8c-0.3-0.1-23.7-10.2-53.5,0
		c-14,4.8-29.6,13.8-44.7,22.6c-17.8,10.3-36.2,21-52.6,25.2c-1.7,0.4-3.3,0.9-5,1.3c-28.6,7.4-58.1,15.1-138.4,20.2L179.8,305.9z
		 M141.5,268.3l38.7,36.7c80.1-5.1,109.6-12.8,138.1-20.2c1.7-0.4,3.3-0.9,5-1.3c16.3-4.2,34.6-14.8,52.4-25.1
		c15.1-8.8,30.8-17.8,44.8-22.6c30.2-10.4,53.9-0.1,54.1,0c56.6,21.4,193.8,53.5,195.2,53.8c30,8.5,52.4,8.1,65.9,6.2
		c14.6-2,22.3-6.1,22.4-6.1c13.2-5.4,23-19.3,24.7-22c-5.5-2.2-33.2-13.1-36.5-14.4c-3.6,5.1-11.8,8.4-12.2,8.6
		c-14.1,5.9-28.8,3.1-36.7,1.5c-1.4-0.3-2.6-0.5-3.5-0.6c-2.5-0.4-34.2-11.1-74.2-24.7c-55.3-18.8-124.2-42.2-135.9-44.7
		c-0.8-0.2-1.7-0.4-2.6-0.6c-21.1-4.7-60.5-13.4-117.7,22.2c-0.2,0.1-19,11.2-55.7,23.3C274,249.3,217.8,263.5,141.5,268.3z"/>
	<path class="st0" d="M193.6,300.1l-0.1-0.9h0.1c1.6,0,3.3,0,5.1,0l0,0.9C197,300.1,195.2,300.1,193.6,300.1z M191,300.1
		c-1.9,0-3.7-0.1-5.2-0.1l0-0.9c1.5,0,3.3,0.1,5.2,0.1L191,300.1z M201.4,300l0-0.9c1.7,0,3.4-0.1,5.2-0.2l0,0.9
		C204.8,299.9,203,300,201.4,300z M183.1,299.9c-3.4-0.1-5.2-0.3-5.2-0.3l0.1-0.9c0,0,1.8,0.2,5.2,0.3L183.1,299.9z M209.2,299.7
		l0-0.9c1.7-0.1,3.4-0.2,5.2-0.3l0.1,0.9C212.6,299.6,210.9,299.7,209.2,299.7z M217,299.3l-0.1-0.9c1.7-0.1,3.4-0.3,5.2-0.4
		l0.1,0.9C220.4,299,218.7,299.1,217,299.3z M224.8,298.6l-0.1-0.9c1.7-0.2,3.4-0.3,5.2-0.5l0.1,0.9
		C228.2,298.3,226.5,298.5,224.8,298.6z M232.6,297.8l-0.1-0.9c1.7-0.2,3.4-0.4,5.2-0.6l0.1,0.9C236,297.4,234.3,297.6,232.6,297.8z
		 M240.4,296.9l-0.1-0.9c1.7-0.2,3.4-0.5,5.2-0.7l0.1,0.9C243.8,296.4,242.1,296.6,240.4,296.9z M248.1,295.7l-0.1-0.9
		c1.7-0.3,3.4-0.5,5.1-0.8l0.1,0.9C251.5,295.2,249.8,295.5,248.1,295.7z M255.8,294.5l-0.1-0.9c1.7-0.3,3.4-0.6,5.1-0.9l0.2,0.9
		C259.2,293.9,257.5,294.2,255.8,294.5z M263.5,293l-0.2-0.9c1.7-0.3,3.4-0.7,5.1-1l0.2,0.8C266.9,292.4,265.2,292.7,263.5,293z
		 M718.8,292.6c-0.3,0-0.7,0-1,0l0-0.9c0.4,0,0.8,0,1.2,0c1.4,0,2.7,0,4-0.1l0,0.9C721.7,292.6,720.3,292.6,718.8,292.6z
		 M715.2,292.5c-1.7-0.1-3.5-0.1-5.2-0.3l0.1-0.9c1.8,0.1,3.5,0.2,5.2,0.3L715.2,292.5z M725.6,292.4l-0.1-0.9
		c1.7-0.1,3.5-0.3,5.2-0.4l0.1,0.9C729.2,292.1,727.4,292.3,725.6,292.4z M707.4,292c-1.7-0.2-3.5-0.3-5.2-0.6l0.1-0.9
		c1.7,0.2,3.5,0.4,5.2,0.6L707.4,292z M733.4,291.6l-0.1-0.9c1.7-0.2,3.4-0.5,5.1-0.9l0.2,0.9C736.9,291.1,735.2,291.4,733.4,291.6z
		 M271.2,291.5l-0.2-0.8c1.7-0.4,3.4-0.7,5.1-1.1l0.2,0.8C274.6,290.7,272.9,291.1,271.2,291.5z M699.6,291.1
		c-1.7-0.2-3.4-0.5-5.2-0.8l0.1-0.9c1.7,0.3,3.5,0.6,5.1,0.8L699.6,291.1z M741.2,290.2l-0.2-0.8c1.7-0.4,3.4-0.8,5-1.3l0.2,0.8
		C744.6,289.4,742.9,289.8,741.2,290.2z M691.9,289.8c-1.7-0.3-3.4-0.7-5.1-1l0.2-0.8c1.7,0.4,3.4,0.7,5.1,1L691.9,289.8z
		 M278.8,289.7l-0.2-0.8c1.7-0.4,3.4-0.8,5.1-1.2l0.2,0.8C282.2,288.9,280.5,289.3,278.8,289.7z M684.2,288.2
		c-1.9-0.4-3.6-0.9-5.1-1.2l0.2-0.8c1.4,0.4,3.1,0.8,5.1,1.2L684.2,288.2z M748.7,288.1l-0.3-0.8c1.6-0.6,3.3-1.2,4.8-1.8l0.3,0.8
		C752,286.9,750.4,287.5,748.7,288.1z M286.4,287.9l-0.2-0.8c1.7-0.4,3.3-0.9,5-1.3l0.2,0.8C289.8,287,288.1,287.4,286.4,287.9z
		 M676.6,286.4c-0.3-0.1-0.7-0.2-0.9-0.2l-4.1-1l0.2-0.8l4.1,1c0.3,0.1,0.6,0.1,0.9,0.2L676.6,286.4z M294,285.8l-0.2-0.8
		c1.7-0.5,3.3-0.9,5-1.4l0.2,0.8C297.3,284.9,295.6,285.4,294,285.8z M756,285.2l-0.4-0.8c1.6-0.7,3.1-1.5,4.6-2.4l0.4,0.8
		C759.2,283.6,757.6,284.4,756,285.2z M669,284.6c-1.5-0.4-3.2-0.7-5.1-1.2l0.2-0.8c1.9,0.4,3.6,0.8,5.1,1.2L669,284.6z
		 M301.5,283.7l-0.2-0.8c1.6-0.5,3.3-1,5-1.5l0.3,0.8C304.8,282.7,303.1,283.2,301.5,283.7z M661.4,282.8c-1.6-0.4-3.3-0.8-5.1-1.2
		l0.2-0.8c1.8,0.4,3.5,0.8,5.1,1.2L661.4,282.8z M762.9,281.4l-0.5-0.7c1.5-0.9,2.9-1.9,4.3-2.9l0.5,0.7
		C765.8,279.5,764.4,280.5,762.9,281.4z M308.9,281.4l-0.3-0.8c1.6-0.5,3.3-1.1,4.9-1.6l0.3,0.8
		C312.2,280.3,310.6,280.8,308.9,281.4z M653.7,281c-1.6-0.4-3.3-0.8-5.1-1.2l0.2-0.8c1.8,0.4,3.4,0.8,5.1,1.2L653.7,281z
		 M646.2,279.1c-1.6-0.4-3.3-0.8-5.1-1.3l0.2-0.8c1.7,0.4,3.4,0.9,5.1,1.3L646.2,279.1z M316.4,278.9l-0.3-0.8
		c1.6-0.6,3.3-1.1,4.9-1.7l0.3,0.8C319.6,277.8,318,278.3,316.4,278.9z M638.6,277.2c-1.6-0.4-3.3-0.8-5.1-1.3l0.2-0.8
		c1.7,0.4,3.4,0.9,5.1,1.3L638.6,277.2z M769.3,276.9l-0.5-0.7c1.3-1.1,2.6-2.2,3.9-3.4l0.6,0.6C772,274.6,770.7,275.8,769.3,276.9z
		 M323.7,276.3l-0.3-0.8c1.6-0.6,3.2-1.2,4.9-1.8l0.3,0.8C327,275.1,325.4,275.7,323.7,276.3z M631,275.3c-1.7-0.4-3.3-0.9-5-1.3
		l0.2-0.8c1.7,0.4,3.4,0.9,5,1.3L631,275.3z M331.1,273.5l-0.3-0.8c1.6-0.6,3.2-1.3,4.8-1.9l0.3,0.8
		C334.3,272.3,332.7,272.9,331.1,273.5z M623.4,273.3c-1.7-0.4-3.3-0.9-5-1.3l0.2-0.8c1.7,0.5,3.4,0.9,5,1.3L623.4,273.3z
		 M775.1,271.6l-0.6-0.6c1.2-1.2,2.3-2.5,3.4-3.9l0.7,0.6C777.5,269,776.3,270.3,775.1,271.6z M615.9,271.3c-1.7-0.4-3.3-0.9-5-1.4
		l0.2-0.8c1.7,0.5,3.4,0.9,5,1.4L615.9,271.3z M338.3,270.6l-0.3-0.8c1.6-0.7,3.2-1.3,4.8-2l0.3,0.8
		C341.5,269.3,339.9,270,338.3,270.6z M608.3,269.3c-1.7-0.5-3.3-0.9-5-1.4l0.2-0.8c1.7,0.5,3.4,0.9,5,1.4L608.3,269.3z
		 M345.5,267.6l-0.3-0.8c1.6-0.7,3.2-1.4,4.8-2.1l0.4,0.8C348.7,266.2,347.1,266.9,345.5,267.6z M600.8,267.2
		c-1.7-0.5-3.3-0.9-5-1.4l0.2-0.8c1.7,0.5,3.4,0.9,5,1.4L600.8,267.2z M593.2,265.1c-1.7-0.5-3.3-0.9-5-1.4l0.2-0.8
		c1.7,0.5,3.4,1,5,1.4L593.2,265.1z M352.7,264.4l-0.4-0.8c1.6-0.7,3.1-1.5,4.7-2.2l0.4,0.8C355.8,262.9,354.2,263.7,352.7,264.4z
		 M585.7,263c-1.7-0.5-3.3-1-5-1.4l0.2-0.8c1.7,0.5,3.3,1,5,1.4L585.7,263z M359.7,261l-0.4-0.8c1.6-0.8,3.1-1.5,4.7-2.3l0.4,0.8
		C362.9,259.5,361.3,260.3,359.7,261z M578.2,260.8c-1.7-0.5-3.3-1-5-1.5l0.2-0.8c1.7,0.5,3.3,1,5,1.5L578.2,260.8z M570.7,258.6
		c-1.7-0.5-3.3-1-5-1.5l0.3-0.8c1.7,0.5,3.3,1,5,1.5L570.7,258.6z M366.7,257.6l-0.4-0.8c1.5-0.8,3.1-1.6,4.6-2.4l0.4,0.8
		C369.8,256,368.3,256.8,366.7,257.6z M563.2,256.3c-1.7-0.5-3.3-1-5-1.5l0.3-0.8c1.7,0.5,3.3,1,5,1.5L563.2,256.3z M555.8,254
		c-1.7-0.5-3.3-1-5-1.6l0.3-0.8c1.7,0.5,3.3,1,5,1.6L555.8,254z M373.7,253.9l-0.4-0.8c1.5-0.8,3-1.6,4.6-2.5l0.4,0.8
		C376.7,252.3,375.2,253.1,373.7,253.9z M548.3,251.7c-1.7-0.5-3.3-1.1-5-1.6l0.3-0.8c1.7,0.5,3.3,1.1,5,1.6L548.3,251.7z
		 M380.5,250.2l-0.4-0.8c1.5-0.8,3-1.7,4.5-2.6l0.4,0.8C383.5,248.5,382,249.3,380.5,250.2z M540.9,249.3c-1.6-0.5-3.3-1.1-5-1.6
		l0.3-0.8c1.7,0.5,3.3,1.1,5,1.6L540.9,249.3z M533.4,246.8c-1.7-0.5-3.3-1.1-5-1.7l0.3-0.8c1.7,0.6,3.3,1.1,5,1.7L533.4,246.8z
		 M387.3,246.3l-0.4-0.7c1.5-0.9,3-1.8,4.5-2.7l0.5,0.7C390.3,244.5,388.8,245.4,387.3,246.3z M526,244.3c-1.6-0.6-3.3-1.1-4.9-1.7
		l0.3-0.8c1.6,0.6,3.3,1.1,4.9,1.7L526,244.3z M394,242.2l-0.5-0.7c1.5-0.9,2.9-1.8,4.4-2.8l0.5,0.7
		C397,240.4,395.5,241.3,394,242.2z M518.6,241.8c-1.6-0.6-3.3-1.1-4.9-1.7l0.3-0.8c1.6,0.6,3.3,1.2,4.9,1.7L518.6,241.8z
		 M511.2,239.2l-2.3-0.8c-0.9-0.3-1.8-0.6-2.6-0.9l0.3-0.8c0.9,0.3,1.8,0.6,2.6,0.9l2.3,0.8L511.2,239.2z M400.6,238l-0.5-0.7
		c0.9-0.6,2.4-1.5,4.6-2.6l0.4,0.8C403,236.5,401.5,237.4,400.6,238z M503.8,236.6c-1.7-0.6-3.3-1.1-4.9-1.6l0.3-0.8
		c1.6,0.5,3.3,1,5,1.6L503.8,236.6z M407.4,234.4l-0.4-0.8c1.5-0.7,3.2-1.4,4.8-2l0.3,0.8C410.5,233,408.9,233.7,407.4,234.4z
		 M496.4,234.3c-1.7-0.5-3.3-1-5-1.4l0.2-0.8c1.7,0.5,3.3,0.9,5,1.4L496.4,234.3z M488.9,232.2c-1.7-0.4-3.4-0.9-5-1.2l0.2-0.8
		c1.7,0.4,3.4,0.8,5.1,1.2L488.9,232.2z M414.6,231.5l-0.3-0.8c1.6-0.5,3.3-1,5-1.5l0.2,0.8C417.9,230.5,416.3,231,414.6,231.5z
		 M481.3,230.4c-1.7-0.4-3.4-0.7-5.1-1l0.2-0.9c1.7,0.3,3.4,0.7,5.1,1L481.3,230.4z M422.1,229.4l-0.2-0.8c1.7-0.4,3.4-0.8,5.1-1.1
		l0.2,0.9C425.5,228.7,423.8,229,422.1,229.4z M473.7,228.9c-1.7-0.3-3.4-0.6-5.1-0.8l0.1-0.9c1.7,0.2,3.4,0.5,5.2,0.8L473.7,228.9z
		 M429.8,227.9l-0.1-0.9c1.7-0.3,3.4-0.5,5.2-0.7l0.1,0.9C433.2,227.4,431.4,227.7,429.8,227.9z M466,227.7
		c-1.7-0.2-3.5-0.4-5.2-0.6l0.1-0.9c1.7,0.2,3.5,0.3,5.2,0.6L466,227.7z M437.5,227l-0.1-0.9c1.7-0.1,3.5-0.3,5.2-0.3l0,0.9
		C440.9,226.7,439.2,226.9,437.5,227z M458.2,226.9c-1.7-0.1-3.5-0.2-5.2-0.3l0-0.9c1.7,0.1,3.5,0.2,5.2,0.3L458.2,226.9z
		 M445.3,226.6l0-0.9c1.7,0,3.4,0,5.2,0l0,0.9C448.7,226.6,446.9,226.6,445.3,226.6z"/>
	<path class="st0" d="M167.1,272.9l-0.9,0l0-0.9l0.9,0c1.4,0,2.8,0,4.3,0l0,0.9C169.9,272.9,168.5,272.9,167.1,272.9z M163.6,272.9
		c-1.9,0-3.7-0.1-5.2-0.1l0-0.9c1.5,0.1,3.3,0.1,5.2,0.1L163.6,272.9z M174,272.8l0-0.9c1.7,0,3.4-0.1,5.2-0.2l0,0.9
		C177.4,272.7,175.7,272.8,174,272.8z M155.8,272.6c-3.4-0.2-5.2-0.4-5.2-0.4l0.1-0.9c0,0,1.8,0.2,5.2,0.4L155.8,272.6z
		 M181.9,272.5l0-0.9c1.7-0.1,3.4-0.2,5.2-0.3l0.1,0.9C185.3,272.4,183.5,272.4,181.9,272.5z M189.7,272.1l-0.1-0.9
		c1.7-0.1,3.4-0.2,5.2-0.4l0.1,0.9C193.1,271.8,191.3,272,189.7,272.1z M197.5,271.5l-0.1-0.9c1.7-0.1,3.4-0.3,5.2-0.5l0.1,0.9
		C200.9,271.2,199.2,271.3,197.5,271.5z M205.2,270.7l-0.1-0.9c1.7-0.2,3.4-0.4,5.2-0.6l0.1,0.9
		C208.7,270.3,206.9,270.5,205.2,270.7z M213,269.8l-0.1-0.9c1.7-0.2,3.4-0.4,5.2-0.7l0.1,0.9C216.4,269.4,214.7,269.6,213,269.8z
		 M716.9,269.7c-1.7,0-3.5-0.1-5.2-0.2l0.1-0.9c1.7,0.1,3.5,0.2,5.2,0.2L716.9,269.7z M719.5,269.7l0-0.9c1.7-0.1,3.5-0.2,5.1-0.4
		l0.1,0.9C723,269.4,721.3,269.6,719.5,269.7z M709.1,269.2c-1.7-0.2-3.4-0.5-5.2-0.8l0.2-0.9c1.8,0.3,3.5,0.6,5.1,0.8L709.1,269.2z
		 M727.3,268.8l-0.2-0.9c1.7-0.3,3.4-0.7,5-1.1l0.2,0.8C730.8,268.1,729.1,268.5,727.3,268.8z M220.8,268.7l-0.1-0.9
		c1.7-0.2,3.4-0.5,5.1-0.8l0.1,0.9C224.2,268.2,222.5,268.5,220.8,268.7z M701.3,268c-1.6-0.3-3.2-0.7-5.1-1.2l0.2-0.8
		c1.9,0.5,3.5,0.8,5.1,1.2L701.3,268z M228.5,267.6l-0.1-0.9c1.7-0.3,3.4-0.6,5.1-0.9l0.1,0.9C231.9,267,230.2,267.3,228.5,267.6z
		 M735,266.9l-0.3-0.8c1.6-0.5,3.3-1.1,4.9-1.8l0.3,0.8C738.3,265.8,736.6,266.4,735,266.9z M236.2,266.3l-0.2-0.9
		c1.7-0.3,3.4-0.6,5.1-0.9l0.2,0.9C239.6,265.6,237.9,266,236.2,266.3z M693.7,266.1l-0.9-0.2c-0.8-0.2-1.6-0.4-2.4-0.6
		c-0.5-0.1-1.1-0.3-1.8-0.5l0.2-0.8c0.7,0.2,1.3,0.3,1.7,0.5c0.8,0.2,1.5,0.4,2.4,0.6l0.9,0.2L693.7,266.1z M243.9,264.8l-0.2-0.9
		c1.7-0.3,3.4-0.7,5.1-1l0.2,0.8C247.3,264.1,245.6,264.5,243.9,264.8z M686.1,264.1c-1.4-0.4-3.1-0.9-5-1.4l0.2-0.8
		c1.9,0.6,3.6,1,5,1.4L686.1,264.1z M742.3,264.1l-0.4-0.8c1.5-0.7,3.1-1.5,4.6-2.4l0.4,0.8C745.4,262.6,743.8,263.4,742.3,264.1z
		 M251.6,263.3l-0.2-0.8c1.7-0.4,3.4-0.7,5.1-1.1l0.2,0.8C254.9,262.5,253.2,262.9,251.6,263.3z M678.6,261.9c-1.6-0.5-3.2-1-5-1.5
		l0.2-0.8c1.8,0.5,3.5,1,5,1.5L678.6,261.9z M259.2,261.6l-0.2-0.8c1.7-0.4,3.4-0.8,5.1-1.2l0.2,0.8
		C262.6,260.8,260.9,261.2,259.2,261.6z M749.2,260.4l-0.5-0.7c1.4-0.9,2.9-1.8,4.3-2.8l0.5,0.7
		C752.1,258.5,750.7,259.5,749.2,260.4z M266.8,259.8l-0.2-0.8c1.7-0.4,3.4-0.8,5-1.3l0.2,0.8C270.2,259,268.5,259.4,266.8,259.8z
		 M671.1,259.7l-5-1.5l0.2-0.8l5,1.5L671.1,259.7z M274.4,257.9l-0.2-0.8c1.7-0.4,3.3-0.9,5-1.3l0.2,0.8
		C277.7,257,276.1,257.4,274.4,257.9z M663.6,257.5l-5-1.5l0.2-0.8l5,1.5L663.6,257.5z M281.9,255.9l-0.2-0.8c1.7-0.5,3.3-0.9,5-1.4
		l0.2,0.8C285.3,254.9,283.6,255.4,281.9,255.9z M656.1,255.2l-5-1.5l0.3-0.8l5,1.5L656.1,255.2z M289.5,253.7l-0.2-0.8
		c1.7-0.5,3.3-1,5-1.5l0.3,0.8C292.8,252.7,291.1,253.2,289.5,253.7z M648.6,253l-5-1.5l0.3-0.8l5,1.5L648.6,253z M297,251.5
		l-0.3-0.8c1.6-0.5,3.3-1,5-1.5l0.3,0.8C300.3,250.5,298.6,251,297,251.5z M641.1,250.7l-5-1.5l0.3-0.8l5,1.5L641.1,250.7z
		 M304.4,249.1l-0.3-0.8c1.6-0.5,3.3-1.1,4.9-1.6l0.3,0.8C307.7,248.1,306.1,248.6,304.4,249.1z M633.6,248.4l-5-1.5l0.3-0.8l5,1.5
		L633.6,248.4z M311.8,246.7l-0.3-0.8c1.6-0.6,3.3-1.1,4.9-1.7l0.3,0.8C315.1,245.6,313.5,246.1,311.8,246.7z M626.1,246.2l-5-1.5
		l0.3-0.8l5,1.5L626.1,246.2z M319.2,244.1l-0.3-0.8c1.6-0.6,3.3-1.2,4.9-1.8l0.3,0.8C322.5,243,320.8,243.6,319.2,244.1z
		 M618.6,243.9l-5-1.5l0.3-0.8l5,1.5L618.6,243.9z M611.1,241.6l-5-1.5l0.3-0.8l5,1.5L611.1,241.6z M326.6,241.5l-0.3-0.8
		c1.6-0.6,3.2-1.2,4.9-1.8l0.3,0.8C329.8,240.3,328.2,240.9,326.6,241.5z M603.6,239.3l-5-1.5l0.3-0.8l5,1.5L603.6,239.3z
		 M333.9,238.7l-0.3-0.8c1.6-0.6,3.2-1.2,4.9-1.9l0.3,0.8C337.1,237.5,335.5,238.1,333.9,238.7z M596.1,237.1l-5-1.5l0.3-0.8l5,1.5
		L596.1,237.1z M341.2,235.9l-0.3-0.8c1.6-0.6,3.2-1.3,4.8-2l0.3,0.8C344.4,234.6,342.8,235.2,341.2,235.9z M588.7,234.8l-5-1.5
		l0.3-0.8l5,1.5L588.7,234.8z M348.4,232.8l-0.5-0.7c0.7-0.5,2.2-1.5,4.4-2.9l0.5,0.7C350.6,231.3,349.1,232.3,348.4,232.8z
		 M581.2,232.5l-5-1.5l0.3-0.8l5,1.5L581.2,232.5z M573.7,230.2l-5-1.5l0.3-0.8l5,1.5L573.7,230.2z M355,228.5l-0.5-0.7
		c1.3-0.8,2.8-1.8,4.4-2.8l0.5,0.7C357.8,226.7,356.3,227.6,355,228.5z M566.2,228l-5-1.5l0.2-0.8l5,1.5L566.2,228z M558.7,225.7
		c-1.8-0.5-3.5-1-5-1.5l0.2-0.8c1.5,0.4,3.2,0.9,5,1.5L558.7,225.7z M361.6,224.4l-0.4-0.7c1.4-0.9,2.9-1.7,4.5-2.7l0.4,0.7
		C364.5,222.6,363,223.5,361.6,224.4z M551.1,223.5c-2.3-0.7-4-1.1-5-1.4l0.2-0.8c1.1,0.3,2.8,0.8,5,1.4L551.1,223.5z M543.6,221.3
		c-1.2-0.4-2.7-0.9-4.9-1.8l0.3-0.8c2.2,0.8,3.7,1.4,4.9,1.8L543.6,221.3z M368.4,220.4l-0.4-0.8c1.5-0.8,3-1.7,4.6-2.6l0.4,0.8
		C371.3,218.7,369.8,219.6,368.4,220.4z M536.2,218.7l-4.9-1.9l0.3-0.8l4.9,1.9L536.2,218.7z M375.2,216.6l-0.4-0.8
		c1.5-0.8,3-1.6,4.6-2.5l0.4,0.8C378.2,215,376.7,215.8,375.2,216.6z M528.9,215.9c-1.5-0.6-3.2-1.2-4.9-1.8l0.3-0.8
		c1.7,0.6,3.3,1.3,4.9,1.8L528.9,215.9z M521.6,213.1c-1.6-0.6-3.2-1.2-4.9-1.8l0.3-0.8c1.7,0.6,3.3,1.2,4.9,1.8L521.6,213.1z
		 M382.1,212.9l-0.4-0.8c1.5-0.8,3.1-1.6,4.7-2.3l0.4,0.8C385.2,211.4,383.6,212.2,382.1,212.9z M514.2,210.4
		c-1.6-0.6-3.2-1.2-4.9-1.7l0.3-0.8c1.7,0.6,3.3,1.2,4.9,1.7L514.2,210.4z M389.1,209.5l-0.4-0.8c1.6-0.7,3.1-1.5,4.7-2.2l0.4,0.8
		C392.2,208,390.6,208.7,389.1,209.5z M506.9,207.9c-1.6-0.6-3.3-1.1-4.9-1.7l0.3-0.8c1.7,0.6,3.3,1.1,4.9,1.7L506.9,207.9z
		 M396.2,206.2l-0.4-0.8c1.6-0.7,3.2-1.4,4.8-2.1l0.3,0.8C399.4,204.8,397.8,205.5,396.2,206.2z M499.4,205.4c-1.6-0.5-3.3-1-5-1.6
		l0.3-0.8c1.7,0.5,3.3,1,5,1.6L499.4,205.4z M403.4,203.2l-0.3-0.8c1.6-0.7,3.3-1.3,4.9-1.9l0.3,0.8
		C406.6,201.9,405,202.5,403.4,203.2z M492,203.1c-1.7-0.5-3.3-1-5-1.5l0.2-0.8c1.7,0.5,3.4,1,5,1.5L492,203.1z M484.5,200.9
		c-1.7-0.5-3.4-0.9-5-1.3l0.2-0.8c1.7,0.4,3.4,0.9,5.1,1.3L484.5,200.9z M410.7,200.4l-0.3-0.8c1.7-0.6,3.3-1.2,5-1.7l0.3,0.8
		C414,199.3,412.3,199.8,410.7,200.4z M476.9,198.9c-1.7-0.4-3.4-0.8-5.1-1.2l0.2-0.8c1.7,0.4,3.4,0.8,5.1,1.2L476.9,198.9z
		 M418.1,198l-0.2-0.8c1.7-0.5,3.4-1,5-1.4l0.2,0.8C421.5,197,419.8,197.5,418.1,198z M469.3,197.2c-1.7-0.4-3.4-0.7-5.1-1l0.2-0.9
		c1.7,0.3,3.4,0.6,5.1,1L469.3,197.2z M425.6,196l-0.2-0.8c1.6-0.4,3.1-0.7,4.6-1l0.5-0.1l0.2,0.9l-0.5,0.1
		C428.7,195.3,427.2,195.6,425.6,196z M461.6,195.8c-1.8-0.3-3.5-0.5-5.1-0.8l0.1-0.9c1.7,0.2,3.4,0.5,5.2,0.8L461.6,195.8z
		 M453.9,194.7c-1.8-0.2-3.5-0.4-5.2-0.5l0.1-0.9c1.7,0.1,3.4,0.3,5.2,0.5L453.9,194.7z M433.2,194.5l-0.1-0.9
		c1.7-0.2,3.4-0.4,5.2-0.4l0,0.9C436.6,194.2,434.9,194.3,433.2,194.5z M446.2,194.1c-1.8-0.1-3.5-0.1-5.2-0.1l0-0.9
		c1.7,0,3.4,0,5.2,0.1L446.2,194.1z"/>
	<path class="st0" d="M196.9,369.2l-0.5-0.9l0.8-0.4l0.5,0.9L196.9,369.2z M195.2,365.9c-0.8-1.5-1.6-3-2.5-4.6l0.8-0.4
		c0.9,1.5,1.7,3.1,2.5,4.6L195.2,365.9z M191.5,359.1c-0.9-1.5-1.8-3-2.7-4.5l0.7-0.5c0.9,1.5,1.8,3,2.7,4.5L191.5,359.1z
		 M187.4,352.5c-0.9-1.4-1.9-2.9-2.9-4.3l0.7-0.5c1,1.4,1.9,2.9,2.9,4.4L187.4,352.5z M183.1,346c-1-1.4-2-2.8-3-4.2l0.7-0.5
		c1,1.4,2.1,2.9,3,4.3L183.1,346z M178.5,339.6c-1-1.4-2.1-2.8-3.2-4.1l0.7-0.5c1.1,1.4,2.1,2.8,3.2,4.2L178.5,339.6z M173.8,333.5
		c-1.1-1.4-2.2-2.7-3.3-4l0.7-0.6c1.1,1.3,2.2,2.7,3.3,4.1L173.8,333.5z M168.8,327.4c-1.1-1.3-2.2-2.6-3.4-3.9l0.7-0.6
		c1.1,1.3,2.3,2.6,3.4,4L168.8,327.4z M163.7,321.5c-1.2-1.3-2.3-2.6-3.5-3.9l0.6-0.6c1.2,1.3,2.3,2.6,3.5,3.9L163.7,321.5z
		 M158.4,315.8c-1.2-1.3-2.4-2.5-3.6-3.8l0.6-0.6c1.2,1.3,2.4,2.5,3.6,3.8L158.4,315.8z M153.1,310.1c-1.2-1.2-2.4-2.5-3.7-3.7
		l0.6-0.6c1.2,1.2,2.5,2.5,3.7,3.7L153.1,310.1z M147.5,304.6c-1.2-1.2-2.5-2.4-3.8-3.6l0.6-0.6c1.3,1.2,2.5,2.4,3.8,3.6
		L147.5,304.6z M141.9,299.2c-1.3-1.2-2.5-2.4-3.8-3.5l0.6-0.6c1.3,1.2,2.6,2.4,3.8,3.6L141.9,299.2z M136.1,293.9
		c-1.3-1.2-2.6-2.3-3.9-3.5l0.6-0.6c1.3,1.2,2.6,2.3,3.9,3.5L136.1,293.9z M130.3,288.7c-1.3-1.1-2.6-2.3-3.9-3.4l0.6-0.7
		c1.3,1.1,2.6,2.3,3.9,3.4L130.3,288.7z M124.4,283.6c-1.3-1.1-2.7-2.2-4-3.3l0.6-0.7c1.3,1.1,2.7,2.2,4,3.4L124.4,283.6z
		 M118.4,278.6c-1.3-1.1-2.7-2.2-4-3.3l0.5-0.7c1.3,1.1,2.7,2.2,4,3.3L118.4,278.6z M112.3,273.7c-1.4-1.1-2.7-2.2-4.1-3.2l0.5-0.7
		c1.4,1.1,2.7,2.1,4.1,3.2L112.3,273.7z M106.2,268.8c-1.4-1.1-2.8-2.1-4.1-3.2l0.5-0.7c1.4,1,2.8,2.1,4.1,3.2L106.2,268.8z
		 M100,264.1c-1.4-1.1-2.8-2.1-4.2-3.1l0.5-0.7c1.4,1,2.8,2.1,4.2,3.1L100,264.1z M93.7,259.4c-1.4-1-2.8-2.1-4.2-3.1l0.5-0.7
		c1.4,1,2.8,2,4.2,3.1L93.7,259.4z M87.4,254.9c-1.4-1-2.8-2-4.2-3l0.5-0.7c1.4,1,2.8,2,4.3,3L87.4,254.9z M81,250.3
		c-1.4-1-2.9-2-4.3-3l0.5-0.7c1.4,1,2.8,2,4.3,3L81,250.3z M74.6,245.9c-1.5-1-2.9-2-4.3-2.9l0.5-0.7c1.4,1,2.9,1.9,4.3,2.9
		L74.6,245.9z M68.1,241.6c-1.5-1-2.9-1.9-4.4-2.9l0.5-0.7c1.4,0.9,2.9,1.9,4.4,2.9L68.1,241.6z M61.6,237.3c-1.5-1-2.9-1.9-4.4-2.8
		l0.5-0.7c1.4,0.9,2.9,1.9,4.4,2.8L61.6,237.3z M55,233.1c-1.5-1-3-1.9-4.4-2.8l0.5-0.7c1.4,0.9,2.9,1.8,4.4,2.8L55,233.1z
		 M48.3,228.9c-1.5-0.9-3-1.8-4.4-2.7l0.5-0.7c1.4,0.9,2.9,1.8,4.5,2.7L48.3,228.9z M41.7,224.8c-1.6-0.9-3-1.8-4.5-2.7l0.4-0.7
		c1.4,0.8,2.9,1.7,4.5,2.7L41.7,224.8z M34.9,220.8c-1.6-0.9-3.1-1.8-4.5-2.6l0.4-0.8c1.4,0.8,2.9,1.7,4.5,2.6L34.9,220.8z
		 M28.2,216.9c-1.7-1-3.2-1.8-4.6-2.6l0.4-0.8c1.3,0.7,2.9,1.6,4.6,2.6L28.2,216.9z M21.3,213.1c-3-1.6-4.6-2.5-4.6-2.5l0.4-0.8
		c0,0,1.6,0.9,4.6,2.5L21.3,213.1z"/>
	<path class="st0" d="M209.8,369.6c-0.2-0.8-0.4-1.6-0.6-2.4l0.8-0.2c0.2,0.8,0.4,1.6,0.6,2.4L209.8,369.6z M208.5,364.7
		c-0.5-1.6-1.1-3.2-1.7-4.9l0.8-0.3c0.6,1.7,1.2,3.3,1.7,4.9L208.5,364.7z M205.8,357.5c-0.7-1.5-1.4-3.1-2.2-4.7l0.8-0.4
		c0.8,1.6,1.5,3.2,2.2,4.7L205.8,357.5z M202.5,350.5c-0.8-1.5-1.6-3-2.5-4.5l0.7-0.4c0.9,1.5,1.8,3.1,2.5,4.6L202.5,350.5z
		 M198.6,343.7c-0.9-1.4-1.8-2.9-2.8-4.4l0.7-0.5c1,1.5,1.9,3,2.8,4.4L198.6,343.7z M194.4,337.2c-1-1.4-2-2.8-3-4.2l0.7-0.5
		c1.1,1.4,2.1,2.8,3,4.2L194.4,337.2z M189.8,330.9c-1-1.3-2.1-2.7-3.2-4.1l0.7-0.5c1.1,1.4,2.2,2.8,3.2,4.1L189.8,330.9z
		 M184.9,324.8c-1.1-1.3-2.2-2.7-3.4-4l0.7-0.6c1.1,1.3,2.3,2.7,3.4,4L184.9,324.8z M179.8,318.9c-1.1-1.3-2.3-2.6-3.5-3.9l0.6-0.6
		c1.2,1.3,2.4,2.6,3.5,3.9L179.8,318.9z M174.6,313.1c-1.2-1.3-2.4-2.5-3.6-3.8l0.6-0.6c1.2,1.3,2.4,2.5,3.6,3.8L174.6,313.1z
		 M169.2,307.5c-1.2-1.2-2.4-2.5-3.7-3.7l0.6-0.6c1.2,1.2,2.5,2.5,3.7,3.7L169.2,307.5z M163.6,302c-1.2-1.2-2.5-2.4-3.8-3.6
		l0.6-0.6c1.3,1.2,2.5,2.4,3.8,3.6L163.6,302z M158,296.6c-1.3-1.2-2.5-2.4-3.8-3.5l0.6-0.6c1.3,1.2,2.6,2.4,3.8,3.5L158,296.6z
		 M152.2,291.3c-1.3-1.2-2.6-2.3-3.9-3.5l0.6-0.7c1.3,1.2,2.6,2.3,3.9,3.5L152.2,291.3z M146.4,286.1c-1.3-1.1-2.6-2.3-4-3.4
		l0.6-0.7c1.3,1.1,2.6,2.3,4,3.4L146.4,286.1z M140.4,281.1c-1.3-1.1-2.7-2.2-4-3.3l0.6-0.7c1.3,1.1,2.7,2.2,4,3.3L140.4,281.1z
		 M134.4,276.1c-1.3-1.1-2.7-2.2-4.1-3.3l0.5-0.7c1.4,1.1,2.7,2.2,4.1,3.3L134.4,276.1z M128.3,271.1c-1.4-1.1-2.7-2.2-4.1-3.2
		l0.5-0.7c1.4,1.1,2.7,2.2,4.1,3.2L128.3,271.1z M122.2,266.3c-1.4-1.1-2.7-2.1-4.1-3.2l0.5-0.7c1.4,1.1,2.7,2.1,4.1,3.2
		L122.2,266.3z M116,261.6c-1.4-1.1-2.8-2.1-4.2-3.1l0.5-0.7c1.4,1,2.8,2.1,4.2,3.1L116,261.6z M109.8,256.9c-1.4-1-2.8-2.1-4.2-3.1
		l0.5-0.7c1.4,1,2.8,2.1,4.2,3.1L109.8,256.9z M103.5,252.2c-1.4-1-2.8-2-4.2-3.1l0.5-0.7c1.4,1,2.8,2,4.2,3.1L103.5,252.2z
		 M97.1,247.7c-1.4-1-2.8-2-4.2-3l0.5-0.7c1.4,1,2.8,2,4.3,3L97.1,247.7z M90.7,243.1c-1.4-1-2.9-2-4.3-3l0.5-0.7c1.4,1,2.8,2,4.3,3
		L90.7,243.1z M84.3,238.7c-1.4-1-2.9-2-4.3-2.9l0.5-0.7c1.4,1,2.9,1.9,4.3,2.9L84.3,238.7z M77.9,234.3c-1.5-1-2.9-2-4.3-2.9
		l0.5-0.7c1.4,1,2.9,1.9,4.3,2.9L77.9,234.3z M71.4,229.9c-1.5-1-2.9-1.9-4.4-2.9l0.5-0.7c1.4,0.9,2.9,1.9,4.4,2.9L71.4,229.9z
		 M64.8,225.6c-1.5-1-2.9-1.9-4.4-2.8l0.5-0.7c1.4,0.9,2.9,1.9,4.4,2.8L64.8,225.6z M58.3,221.4c-1.5-1-3-1.9-4.4-2.8l0.5-0.7
		c1.4,0.9,2.9,1.8,4.4,2.8L58.3,221.4z M51.7,217.2c-1.5-1-3-1.9-4.4-2.8l0.5-0.7c1.4,0.9,2.9,1.8,4.4,2.8L51.7,217.2z M45,213
		c-1.5-1-3-1.9-4.4-2.7l0.5-0.7c1.4,0.9,2.9,1.8,4.4,2.7L45,213z M38.4,208.9c-1.6-1-3.1-1.9-4.5-2.7l0.4-0.7
		c1.4,0.8,2.9,1.7,4.5,2.7L38.4,208.9z M31.7,204.9c-1.7-1-3.2-1.9-4.5-2.7l0.4-0.7c1.3,0.8,2.8,1.7,4.5,2.7L31.7,204.9z
		 M24.9,200.9c-2.9-1.7-4.6-2.6-4.6-2.6l0.4-0.8c0,0,1.6,0.9,4.6,2.6L24.9,200.9z"/>
	<path class="st0" d="M429.4,189l-0.7-0.5c1-1.3,2.1-2.7,3.3-4.1l0.7,0.6C431.5,186.3,430.4,187.7,429.4,189z M434.3,183l-0.7-0.6
		c1.1-1.3,2.3-2.6,3.5-3.9l0.6,0.6C436.6,180.4,435.4,181.7,434.3,183z M439.6,177.2l-0.6-0.6c1.2-1.3,2.4-2.5,3.6-3.8l0.6,0.6
		C441.9,174.7,440.7,175.9,439.6,177.2z M445,171.6l-0.6-0.6c1.2-1.2,2.5-2.5,3.7-3.7l0.6,0.6C447.5,169.1,446.2,170.3,445,171.6z
		 M450.6,166.1l-0.6-0.6c1.3-1.2,2.6-2.4,3.8-3.6l0.6,0.6C453.1,163.7,451.8,164.9,450.6,166.1z M456.3,160.8l-0.6-0.6
		c1.3-1.2,2.6-2.4,3.9-3.5l0.6,0.6C458.9,158.4,457.6,159.6,456.3,160.8z M462.1,155.6l-0.6-0.7c1.4-1.3,2.8-2.4,4-3.4l0.6,0.7
		C464.8,153.2,463.5,154.3,462.1,155.6z M468,150.5l-0.6-0.7c2.5-2.1,4-3.3,4-3.3l0.5,0.7C472,147.2,470.5,148.4,468,150.5z"/>
	<path class="st0" d="M450.3,377.5l-0.6-0.7c0,0,1.4-1.2,4.1-3.3l0.5,0.7C451.7,376.3,450.3,377.5,450.3,377.5z M456.4,372.6
		l-0.5-0.7c1.3-1,2.7-2.1,4.2-3.1l0.5,0.7C459.1,370.5,457.7,371.6,456.4,372.6z M462.6,367.9l-0.5-0.7c1.3-1,2.8-2,4.3-3l0.5,0.7
		C465.4,366,464,367,462.6,367.9z M469,363.5l-0.5-0.7c1.4-0.9,2.8-1.9,4.4-2.9l0.5,0.7C471.9,361.6,470.4,362.6,469,363.5z
		 M475.6,359.2l-0.5-0.7c1.4-0.9,2.9-1.8,4.4-2.8l0.5,0.7C478.5,357.4,477,358.3,475.6,359.2z M482.2,355.1l-0.4-0.7
		c1.5-0.9,2.9-1.8,4.5-2.7l0.4,0.8C485.2,353.3,483.7,354.2,482.2,355.1z M489,351.1l-0.4-0.8c1.5-0.8,3-1.7,4.6-2.5l0.4,0.8
		C491.9,349.5,490.4,350.3,489,351.1z M495.8,347.4l-0.4-0.8c1.5-0.8,3-1.6,4.6-2.4l0.4,0.8C498.8,345.7,497.3,346.6,495.8,347.4z
		 M502.7,343.7l-0.4-0.8c1.5-0.8,3.1-1.6,4.7-2.3l0.4,0.8C505.8,342.2,504.2,343,502.7,343.7z M509.7,340.3l-0.4-0.8
		c1.5-0.7,3.1-1.5,4.7-2.2l0.4,0.8C512.8,338.8,511.2,339.5,509.7,340.3z M516.8,337l-0.4-0.8c1.6-0.7,3.2-1.4,4.8-2.1l0.3,0.8
		C519.9,335.6,518.3,336.3,516.8,337z M523.9,333.9l-0.3-0.8c1.6-0.7,3.2-1.3,4.8-2l0.3,0.8C527.1,332.6,525.5,333.2,523.9,333.9z
		 M531.2,330.9l-0.3-0.8c1.6-0.6,3.2-1.3,4.9-1.9l0.3,0.8C534.4,329.7,532.8,330.3,531.2,330.9z M538.5,328.2l-0.3-0.8
		c1.6-0.6,3.3-1.2,4.9-1.7l0.3,0.8C541.7,327,540.1,327.6,538.5,328.2z M545.8,325.6l-0.3-0.8c1.6-0.6,3.3-1.1,5-1.6l0.3,0.8
		C549.1,324.5,547.4,325,545.8,325.6z M727.2,323.9c-1.7-0.5-3.3-1.1-5-1.6l0.3-0.8c1.7,0.5,3.3,1,5,1.6L727.2,323.9z M730,323.9
		l-0.3-0.8c1-0.4,2.7-1,4.9-1.9l0.3,0.8C732.6,322.8,731,323.5,730,323.9z M553.2,323.2l-0.3-0.8c1.6-0.5,3.3-1,5-1.5l0.2,0.8
		C556.5,322.2,554.9,322.7,553.2,323.2z M719.8,321.6c-1.7-0.5-3.3-1-5-1.4l0.2-0.8c1.7,0.5,3.3,0.9,5,1.4L719.8,321.6z
		 M737.3,321.1l-0.3-0.8c1.5-0.5,3.1-1.1,4.9-1.8l0.3,0.8C740.4,320,738.8,320.6,737.3,321.1z M560.7,321l-0.2-0.8
		c1.7-0.5,3.3-0.9,5-1.4l0.2,0.8C564,320,562.4,320.5,560.7,321z M712.2,319.5c-1.7-0.4-3.4-0.9-5-1.3l0.2-0.8
		c1.7,0.4,3.4,0.8,5.1,1.3L712.2,319.5z M568.3,318.9l-0.2-0.8c1.7-0.4,3.4-0.8,5.1-1.2l0.2,0.8
		C571.6,318.1,569.9,318.5,568.3,318.9z M744.6,318.5l-0.3-0.8c1.6-0.5,3.2-1.1,5-1.7l0.3,0.8C747.9,317.4,746.2,318,744.6,318.5z
		 M704.7,317.6c-1.7-0.4-3.4-0.8-5.1-1.2l0.2-0.8c1.7,0.4,3.4,0.8,5.1,1.2L704.7,317.6z M575.8,317.1l-0.2-0.8
		c1.7-0.4,3.4-0.8,5.1-1.1l0.2,0.8C579.2,316.4,577.5,316.7,575.8,317.1z M752.1,316.1l-0.3-0.8c1.6-0.5,3.3-1,5-1.6l0.3,0.8
		C755.3,315,753.7,315.5,752.1,316.1z M697.1,315.9c-1.7-0.4-3.4-0.7-5.1-1l0.2-0.9c1.7,0.3,3.4,0.7,5.1,1L697.1,315.9z
		 M583.5,315.5l-0.2-0.9c1.7-0.3,3.4-0.7,5.1-1l0.2,0.9C586.9,314.8,585.2,315.1,583.5,315.5z M689.4,314.4
		c-1.7-0.3-3.4-0.6-5.1-0.9l0.1-0.9c1.7,0.3,3.4,0.6,5.1,0.9L689.4,314.4z M591.1,314.1l-0.1-0.9c1.7-0.3,3.4-0.6,5.1-0.8l0.1,0.9
		C594.5,313.5,592.8,313.8,591.1,314.1z M759.5,313.8l-0.2-0.8c1.6-0.5,3.3-1,5-1.5l0.2,0.8C762.8,312.8,761.2,313.3,759.5,313.8z
		 M681.7,313.1c-1.7-0.3-3.4-0.5-5.1-0.7l0.1-0.9c1.7,0.2,3.4,0.5,5.2,0.7L681.7,313.1z M598.8,312.8l-0.1-0.9
		c1.7-0.2,3.4-0.5,5.2-0.7l0.1,0.9C602.3,312.3,600.5,312.6,598.8,312.8z M674,312c-1.7-0.2-3.5-0.4-5.2-0.6l0.1-0.9
		c1.7,0.2,3.4,0.4,5.2,0.6L674,312z M606.6,311.8l-0.1-0.9c1.7-0.2,3.4-0.4,5.2-0.6l0.1,0.9C610,311.4,608.3,311.6,606.6,311.8z
		 M767,311.6l-0.2-0.8c1.7-0.5,3.3-0.9,5-1.3l0.2,0.8C770.4,310.7,768.7,311.1,767,311.6z M666.2,311.2c-1.7-0.2-3.5-0.3-5.2-0.5
		l0.1-0.9c1.7,0.1,3.5,0.3,5.2,0.5L666.2,311.2z M614.3,311l-0.1-0.9c1.7-0.2,3.5-0.3,5.2-0.4l0.1,0.9
		C617.8,310.7,616,310.9,614.3,311z M658.5,310.5c-1.7-0.1-3.5-0.2-5.2-0.3l0-0.9c1.7,0.1,3.5,0.2,5.2,0.3L658.5,310.5z
		 M622.1,310.4l-0.1-0.9c1.7-0.1,3.5-0.2,5.2-0.3l0,0.9C625.6,310.2,623.8,310.3,622.1,310.4z M650.7,310.1
		c-1.7-0.1-3.5-0.1-5.2-0.2l0-0.9c1.7,0,3.5,0.1,5.2,0.2L650.7,310.1z M629.9,310l0-0.9c1.7-0.1,3.5-0.1,5.2-0.1l0,0.9
		C633.4,309.9,631.6,310,629.9,310z M642.9,309.9c-1.7,0-3.5,0-5.2,0l0-0.9c1.7,0,3.5,0,5.2,0L642.9,309.9z M774.6,309.6l-0.2-0.8
		c1.7-0.4,3.4-0.8,5.1-1.2l0.2,0.8C778,308.8,776.3,309.2,774.6,309.6z M782.2,307.8L782,307c1.7-0.4,3.4-0.7,5.1-1.1l0.2,0.8
		C785.6,307.1,783.9,307.4,782.2,307.8z M789.8,306.2l-0.2-0.9c1.7-0.3,3.4-0.7,5.1-1l0.2,0.9C793.2,305.5,791.5,305.9,789.8,306.2z
		 M797.5,304.8l-0.1-0.9c1.7-0.3,3.5-0.6,5.2-0.8l0.1,0.9C801,304.2,799.2,304.5,797.5,304.8z M805.2,303.6l-0.1-0.9
		c1.8-0.2,3.5-0.4,5.2-0.6l0.1,0.9C808.7,303.2,807,303.4,805.2,303.6z M813,302.8l-0.1-0.9c1.8-0.2,3.5-0.3,5.2-0.4l0.1,0.9
		C816.5,302.5,814.7,302.6,813,302.8z M837.2,302.6l-0.8-0.1l0.1-0.9l0.9,0.1L837.2,302.6z M833.7,302.4c-1.7-0.1-3.4-0.2-5.2-0.2
		l0-0.9c1.8,0,3.5,0.1,5.2,0.2L833.7,302.4z M820.8,302.3l0-0.9c1.8-0.1,3.5-0.1,5.2-0.1l0,0.9C824.3,302.2,822.5,302.2,820.8,302.3
		z"/>
	<path class="st0" d="M464.8,377.9l-0.5-0.7c0,0,1.5-1.2,4.3-3.1l0.5,0.7C466.3,376.8,464.8,377.9,464.8,377.9z M471.2,373.4
		l-0.5-0.7c1.4-0.9,2.9-1.9,4.4-2.8l0.5,0.7C474.1,371.6,472.6,372.5,471.2,373.4z M477.8,369.2l-0.5-0.7c1.4-0.9,2.9-1.8,4.5-2.7
		l0.4,0.7C480.7,367.5,479.2,368.4,477.8,369.2z M484.5,365.2l-0.4-0.8c1.4-0.8,3-1.7,4.5-2.6l0.4,0.8
		C487.5,363.5,485.9,364.4,484.5,365.2z M491.3,361.4l-0.4-0.8c1.5-0.8,3-1.6,4.6-2.4l0.4,0.8C494.3,359.8,492.8,360.6,491.3,361.4z
		 M498.2,357.8l-0.4-0.8c1.5-0.8,3.1-1.5,4.7-2.3l0.4,0.8C501.3,356.2,499.7,357,498.2,357.8z M505.2,354.3l-0.4-0.8
		c1.5-0.7,3.1-1.5,4.7-2.2l0.4,0.8C508.3,352.9,506.8,353.6,505.2,354.3z M512.3,351.1l-0.4-0.8c1.6-0.7,3.2-1.4,4.8-2.1l0.3,0.8
		C515.5,349.7,513.9,350.4,512.3,351.1z M519.5,347.9l-0.3-0.8c1.6-0.7,3.2-1.3,4.8-2l0.3,0.8C522.7,346.6,521,347.3,519.5,347.9z
		 M526.7,345l-0.3-0.8c1.6-0.6,3.2-1.2,4.9-1.9l0.3,0.8C529.9,343.8,528.3,344.4,526.7,345z M534,342.3l-0.3-0.8
		c1.6-0.6,3.3-1.2,4.9-1.7l0.3,0.8C537.3,341.1,535.6,341.7,534,342.3z M541.4,339.7l-0.3-0.8c1.6-0.6,3.3-1.1,5-1.6l0.3,0.8
		C544.6,338.6,543,339.1,541.4,339.7z M548.8,337.3l-0.3-0.8c1.6-0.5,3.3-1,5-1.5l0.2,0.8C552.1,336.3,550.4,336.8,548.8,337.3z
		 M728.7,335.7l-0.2,0c-1-0.3-1.9-0.6-2.9-0.8l0.2-0.8c0.9,0.3,1.8,0.5,2.7,0.8c0.3-0.1,0.9-0.4,1.9-0.8l0.3,0.8
		c-1.3,0.6-2,0.9-2,0.9L728.7,335.7z M556.3,335l-0.2-0.8c1.7-0.5,3.3-0.9,5-1.4l0.2,0.8C559.6,334.1,557.9,334.6,556.3,335z
		 M723.2,334.1c-1.7-0.5-3.4-0.9-5-1.3l0.2-0.8c1.7,0.4,3.4,0.9,5,1.3L723.2,334.1z M733.3,333.7l-0.3-0.8c1.3-0.6,3-1.2,4.8-2
		l0.3,0.8C736.3,332.4,734.7,333.1,733.3,333.7z M563.8,333l-0.2-0.8c1.7-0.4,3.4-0.9,5.1-1.3l0.2,0.8
		C567.1,332.1,565.5,332.6,563.8,333z M715.6,332.1c-1.7-0.4-3.4-0.8-5.1-1.2l0.2-0.8c1.7,0.4,3.4,0.8,5.1,1.2L715.6,332.1z
		 M571.4,331.1l-0.2-0.8c1.7-0.4,3.4-0.8,5.1-1.1l0.2,0.8C574.7,330.4,573.1,330.8,571.4,331.1z M740.6,330.7l-0.3-0.8
		c1.5-0.6,3.1-1.2,4.9-1.9l0.3,0.8C743.7,329.5,742.1,330.1,740.6,330.7z M708,330.3c-1.7-0.4-3.4-0.7-5.1-1.1l0.2-0.9
		c1.7,0.3,3.4,0.7,5.1,1.1L708,330.3z M579,329.5l-0.2-0.8c1.7-0.3,3.4-0.7,5.1-1l0.2,0.9C582.4,328.8,580.7,329.1,579,329.5z
		 M700.4,328.8c-1.7-0.3-3.4-0.7-5.1-1l0.2-0.9c1.7,0.3,3.4,0.6,5.1,1L700.4,328.8z M586.7,328l-0.2-0.9c1.7-0.3,3.4-0.6,5.1-0.9
		l0.1,0.9C590.1,327.4,588.4,327.7,586.7,328z M747.9,327.9l-0.3-0.8c1.6-0.6,3.2-1.2,4.9-1.8l0.3,0.8
		C751.1,326.8,749.4,327.4,747.9,327.9z M692.7,327.4c-1.7-0.3-3.4-0.6-5.1-0.8l0.1-0.9c1.7,0.3,3.4,0.5,5.1,0.8L692.7,327.4z
		 M594.4,326.7l-0.1-0.9c1.7-0.3,3.4-0.5,5.2-0.8l0.1,0.9C597.8,326.2,596.1,326.4,594.4,326.7z M685,326.2
		c-1.7-0.2-3.4-0.5-5.2-0.7l0.1-0.9c1.7,0.2,3.4,0.5,5.2,0.7L685,326.2z M602.1,325.6l-0.1-0.9c1.7-0.2,3.4-0.4,5.2-0.6l0.1,0.9
		C605.5,325.2,603.8,325.4,602.1,325.6z M755.2,325.3l-0.3-0.8c1.6-0.6,3.3-1.1,4.9-1.7l0.3,0.8
		C758.5,324.2,756.8,324.7,755.2,325.3z M677.3,325.1c-1.7-0.2-3.5-0.4-5.2-0.6l0.1-0.9c1.7,0.2,3.4,0.4,5.2,0.6L677.3,325.1z
		 M609.8,324.7l-0.1-0.9c1.7-0.2,3.5-0.3,5.2-0.5l0.1,0.9C613.3,324.3,611.5,324.5,609.8,324.7z M669.5,324.3
		c-1.7-0.2-3.5-0.3-5.2-0.4l0.1-0.9c1.7,0.1,3.5,0.3,5.2,0.4L669.5,324.3z M617.6,324l-0.1-0.9c1.7-0.1,3.5-0.3,5.2-0.4l0.1,0.9
		C621,323.7,619.3,323.8,617.6,324z M661.8,323.7c-1.7-0.1-3.5-0.2-5.2-0.3l0-0.9c1.7,0.1,3.5,0.2,5.2,0.3L661.8,323.7z
		 M625.4,323.5l0-0.9c1.7-0.1,3.5-0.2,5.2-0.2l0,0.9C628.8,323.3,627.1,323.4,625.4,323.5z M654,323.3c-1.7-0.1-3.5-0.1-5.2-0.2
		l0-0.9c1.7,0,3.5,0.1,5.2,0.2L654,323.3z M633.2,323.1l0-0.9c1.7,0,3.5-0.1,5.2-0.1l0,0.9C636.6,323.1,634.9,323.1,633.2,323.1z
		 M646.2,323.1c-1.6,0-3.1,0-4.6,0H641v-0.9h0.6c1.5,0,3.1,0,4.7,0L646.2,323.1z M762.6,322.8l-0.3-0.8c1.6-0.5,3.3-1.1,5-1.6
		l0.3,0.8C765.9,321.8,764.2,322.3,762.6,322.8z M770.1,320.5l-0.2-0.8c1.6-0.5,3.3-1,5-1.4l0.2,0.8
		C773.4,319.5,771.7,320,770.1,320.5z M777.6,318.4l-0.2-0.8c1.7-0.5,3.4-0.9,5.1-1.3l0.2,0.8C780.9,317.5,779.3,317.9,777.6,318.4z
		 M785.2,316.4l-0.2-0.8c1.7-0.4,3.4-0.8,5.1-1.2l0.2,0.8C788.5,315.6,786.8,316,785.2,316.4z M792.8,314.7l-0.2-0.8
		c1.7-0.4,3.4-0.7,5.1-1l0.2,0.9C796.2,314,794.5,314.4,792.8,314.7z M800.4,313.3l-0.1-0.9c1.8-0.3,3.5-0.6,5.2-0.8l0.1,0.9
		C803.9,312.7,802.2,313,800.4,313.3z M808.2,312.2l-0.1-0.9c1.8-0.2,3.5-0.4,5.2-0.5l0.1,0.9C811.6,311.8,809.9,312,808.2,312.2z
		 M836.6,312.1c-1.6-0.3-3.4-0.5-5.1-0.6l0.1-0.9c1.8,0.2,3.5,0.4,5.2,0.6L836.6,312.1z M815.9,311.4l-0.1-0.9
		c1.8-0.1,3.5-0.2,5.2-0.2l0,0.9C819.4,311.2,817.7,311.3,815.9,311.4z M828.9,311.3c-1.7-0.1-3.4-0.1-5.2-0.1v-0.9
		c1.8,0,3.5,0,5.2,0.1L828.9,311.3z"/>
	<path class="st0" d="M845.5,364.7l0-4.5l0.9,0l0,4.5L845.5,364.7z M845.4,357.6l0-5.2l0.9,0l0,5.2L845.4,357.6z M845.4,349.8l0-5.2
		l0.9,0l0,5.2L845.4,349.8z M845.3,342l0-5.2l0.9,0l0,5.2L845.3,342z M845.3,334.2l0-5.2l0.9,0l0,5.2L845.3,334.2z M845.2,326.4
		l0-5.2l0.9,0l0,5.2L845.2,326.4z M845.2,318.6l0-5.2l0.9,0l0,5.2L845.2,318.6z M845.1,310.8l0-5.2l0.9,0l0,5.2L845.1,310.8z
		 M845.1,302.9l0-5.2l0.9,0l0,5.2L845.1,302.9z M845,295.1l0-1.2c0.2-1.4,0.3-2.7,0.4-4.1l0.9,0.1c-0.1,1.3-0.3,2.7-0.4,4l0,1.1
		L845,295.1z M846.5,287.4l-0.9,0c0-1,0.1-2.1,0.1-3.1c0-0.7,0-1.4,0-2l0.9,0c0,0.7,0,1.4,0,2.1
		C846.6,285.2,846.5,286.3,846.5,287.4z M845.5,279.6c-0.1-1.7-0.3-3.5-0.6-5.1l0.9-0.1c0.3,1.7,0.5,3.5,0.6,5.2L845.5,279.6z
		 M844.5,271.9c-0.3-1.7-0.8-3.4-1.2-5l0.8-0.2c0.5,1.6,0.9,3.4,1.3,5.1L844.5,271.9z M842.5,264.4c-0.6-1.7-1.3-3.3-2-4.8l0.8-0.4
		c0.7,1.5,1.4,3.2,2,4.9L842.5,264.4z M839.3,257.4c-1.1-2-2-3.1-2-3.1l-0.1-0.2c-0.1-0.5-0.3-1-0.4-1.5l0.8-0.2
		c0.1,0.4,0.2,0.9,0.4,1.3c0.2,0.3,1,1.3,2,3.1L839.3,257.4z M836.3,250.1c-0.2-1.3-0.3-2.5-0.3-3.7c0-0.6,0-1.1,0.1-1.6l0.9,0.1
		c0,0.5-0.1,1-0.1,1.6c0,1.1,0.1,2.3,0.3,3.5L836.3,250.1z M837.3,242.4l-0.8-0.2c0.5-1.8,1.2-3.4,2.3-4.8l0.7,0.5
		C838.5,239.2,837.8,240.7,837.3,242.4z M841.2,236.1l-0.6-0.7c2.3-2,4.6-2.6,4.7-2.6l0.2,0.8C845.5,233.6,843.4,234.2,841.2,236.1z
		"/>
	<path class="st0" d="M859.5,361.6l-0.9,0l0.1-5.2l0.9,0L859.5,361.6z M859.7,353.8l-0.9,0l0.1-5.2l0.9,0L859.7,353.8z M859.9,346
		l-0.9,0l0.1-5.2l0.9,0L859.9,346z M860.1,338.2l-0.9,0l0.1-5.2l0.9,0L860.1,338.2z M860.3,330.4l-0.9,0l0.1-5.2l0.9,0L860.3,330.4z
		 M860.5,322.6l-0.9,0l0.1-5.2l0.9,0L860.5,322.6z M860.7,314.7l-0.9,0l0.1-5.2l0.9,0L860.7,314.7z M860.9,306.9l-0.9,0l0.1-5.2
		l0.9,0L860.9,306.9z M861.1,299.1l-0.9,0c0-0.6,0-1.1,0-1.7c0-1.2,0-2.3-0.1-3.5l0.9,0c0,1.2,0.1,2.4,0.1,3.5
		C861.2,298,861.2,298.6,861.1,299.1z M860.1,291.3c-0.1-1.7-0.3-3.5-0.4-5.2l0.9-0.1c0.2,1.7,0.3,3.5,0.4,5.2L860.1,291.3z
		 M859.3,283.6c-0.2-1.7-0.5-3.4-0.8-5.1l0.9-0.2c0.3,1.7,0.6,3.4,0.8,5.2L859.3,283.6z M858,275.9c-0.4-1.7-0.8-3.4-1.2-5l0.8-0.2
		c0.5,1.6,0.9,3.4,1.3,5.1L858,275.9z M856,268.4c-0.8-2.6-1.5-4.3-1.7-4.9l0.8-0.3c0.3,0.6,0.9,2.3,1.8,4.9L856,268.4z M853,261.3
		c-0.9-1.7-1.7-3.3-2.3-4.7l0.8-0.3c0.6,1.5,1.3,3,2.2,4.6L853,261.3z M849.9,254.1c-0.4-1.6-0.7-3.1-0.7-4.4c0-0.3,0-0.6,0-0.9
		l0.9,0.1c0,0.3,0,0.5,0,0.8c0,1.3,0.2,2.7,0.6,4.2L849.9,254.1z M850.6,246.4l-0.8-0.3c0.6-1.7,1.7-3.1,3.3-4.3l0.5,0.7
		C852.2,243.6,851.2,244.9,850.6,246.4z M855.8,241.3l-0.3-0.8c2.6-1.1,5.1-1.3,5.2-1.3l0,0.9C860.6,240.1,858.2,240.3,855.8,241.3z
		"/>
	<path class="st0" d="M837.6,284.7l-0.6-0.4c0,0-1.4-0.8-3.8-2.2l0.4-0.8c1.5,0.8,2.6,1.5,3.2,1.8c0,0,0-0.1,0-0.1l0.9,0
		c0,0.6,0,0.9,0,0.9L837.6,284.7z M830.9,280.9c-1.3-0.7-2.9-1.6-4.6-2.5l0.4-0.8c1.7,0.9,3.2,1.8,4.6,2.5L830.9,280.9z
		 M836.8,280.5c0-1.7-0.1-3.4-0.3-5.2l0.9-0.1c0.2,1.8,0.3,3.5,0.3,5.2L836.8,280.5z M824,277.2c-1.4-0.8-3-1.6-4.6-2.4l0.4-0.8
		c1.6,0.9,3.2,1.7,4.6,2.4L824,277.2z M817.1,273.6c-1.5-0.8-3-1.6-4.6-2.4l0.4-0.8c1.6,0.8,3.2,1.6,4.7,2.4L817.1,273.6z
		 M836.3,272.8c-0.2-1.7-0.5-3.4-0.9-5.1l0.8-0.2c0.4,1.7,0.7,3.4,0.9,5.2L836.3,272.8z M810.1,270c-1.5-0.8-3.1-1.5-4.7-2.3
		l0.4-0.8c1.6,0.8,3.2,1.5,4.7,2.3L810.1,270z M803.1,266.6c-1.5-0.7-3.1-1.5-4.7-2.2l0.4-0.8c1.6,0.7,3.2,1.5,4.7,2.2L803.1,266.6z
		 M834.8,265.2c-0.4-1.7-1-3.4-1.5-4.9l0.8-0.3c0.6,1.6,1.1,3.3,1.6,5L834.8,265.2z M796,263.3c-1.6-0.7-3.1-1.4-4.7-2.1l0.4-0.8
		c1.6,0.7,3.2,1.4,4.8,2.2L796,263.3z M788.9,260.1c-1.6-0.7-3.2-1.4-4.8-2.1l0.3-0.8c1.6,0.7,3.2,1.4,4.8,2.1L788.9,260.1z
		 M832.4,257.8c-0.7-1.6-1.5-3.2-2.3-4.6l0.8-0.4c0.8,1.5,1.6,3.1,2.3,4.7L832.4,257.8z M781.7,257c-1.6-0.7-3.2-1.3-4.8-2l0.3-0.8
		c1.6,0.7,3.2,1.3,4.8,2L781.7,257z M774.5,254.1c-1.6-0.6-3.2-1.3-4.9-1.9l0.3-0.8c1.6,0.6,3.3,1.2,4.9,1.9L774.5,254.1z
		 M767.2,251.3c-1.6-0.6-3.3-1.2-4.9-1.8l0.3-0.8c1.6,0.6,3.3,1.2,4.9,1.8L767.2,251.3z M828.7,251c-1-1.5-2-2.8-3.1-4.1l0.7-0.6
		c1.1,1.3,2.2,2.7,3.2,4.2L828.7,251z M759.8,248.7c-1.6-0.6-3.3-1.1-4.9-1.6l0.3-0.8c1.7,0.5,3.3,1.1,5,1.6L759.8,248.7z
		 M752.4,246.3c-1.7-0.5-3.4-1-5-1.5l0.2-0.8c1.6,0.5,3.3,0.9,5,1.5L752.4,246.3z M744.9,244.2c-1.7-0.5-3.4-0.9-5-1.3l0.2-0.8
		c1.7,0.4,3.4,0.8,5.1,1.3L744.9,244.2z M737.3,242.3c-1.7-0.4-3.4-0.7-5.1-1l0.2-0.9c1.7,0.3,3.4,0.7,5.1,1.1L737.3,242.3z
		 M729.6,240.8c-1.5-0.3-3-0.5-4.5-0.7l-0.7-0.1l0.1-0.9l0.7,0.1c1.5,0.2,3,0.4,4.5,0.7L729.6,240.8z M721.9,239.7
		c-1.7-0.3-3.4-0.6-5.2-0.9l0.2-0.9c1.7,0.3,3.5,0.6,5.1,0.9L721.9,239.7z M714.2,238.2c-1.6-0.3-3.4-0.7-5.1-1.2l0.2-0.8
		c1.7,0.4,3.4,0.8,5.1,1.1L714.2,238.2z M706.6,236.5c-1.6-0.4-3.3-0.9-5-1.3l0.2-0.8c1.7,0.5,3.4,0.9,5,1.3L706.6,236.5z
		 M699,234.4c-1.7-0.5-3.3-1-5-1.5l0.3-0.8c1.7,0.5,3.3,1,5,1.5L699,234.4z M691.5,232.1c-1.7-0.5-3.3-1.1-5-1.6l0.3-0.8
		c1.7,0.6,3.3,1.1,5,1.6L691.5,232.1z M684.1,229.7c-1.6-0.6-3.3-1.1-4.9-1.7l0.3-0.8c1.6,0.6,3.3,1.2,4.9,1.7L684.1,229.7z
		 M676.7,227.1c-1.6-0.6-3.3-1.2-4.9-1.8l0.3-0.8c1.6,0.6,3.3,1.2,4.9,1.8L676.7,227.1z M669.3,224.3c-1.6-0.6-3.3-1.3-4.9-1.9
		l0.3-0.8c1.6,0.6,3.2,1.3,4.9,1.9L669.3,224.3z M662.1,221.5c-1.6-0.7-3.2-1.3-4.8-2l0.3-0.8c1.6,0.7,3.2,1.3,4.8,2L662.1,221.5z
		 M654.8,218.5c-1.6-0.7-3.2-1.4-4.8-2l0.3-0.8c1.6,0.7,3.2,1.4,4.8,2L654.8,218.5z M647.6,215.5c-1.6-0.7-3.2-1.4-4.8-2.1l0.4-0.8
		c1.6,0.7,3.2,1.4,4.8,2.1L647.6,215.5z M640.4,212.3c-1.6-0.7-3.2-1.4-4.8-2.1l0.4-0.8c1.5,0.7,3.1,1.4,4.8,2.1L640.4,212.3z
		 M633.3,209.1c-1.6-0.7-3.2-1.5-4.7-2.2l0.4-0.8c1.5,0.7,3.1,1.4,4.7,2.2L633.3,209.1z M626.2,205.8c-1.6-0.8-3.2-1.5-4.7-2.2
		l0.4-0.8c1.5,0.7,3.1,1.5,4.7,2.2L626.2,205.8z M619.2,202.4c-1.7-0.8-3.3-1.6-4.7-2.3l0.4-0.8c1.4,0.7,3,1.5,4.7,2.3L619.2,202.4z
		 M612.1,198.9c-1.9-0.9-3.4-1.7-4.7-2.4l0.4-0.8c1.2,0.6,2.8,1.4,4.7,2.4L612.1,198.9z M605.1,195.4l-0.7-0.4l0,0
		c-1.3-0.3-2.7-0.6-4.3-1l0.2-0.8c1.5,0.4,2.8,0.7,4.1,1l0.1,0l1,0.5L605.1,195.4z M597.7,193.3c-1.6-0.5-3.2-1-5-1.6l0.3-0.8
		c1.7,0.6,3.4,1.1,5,1.6L597.7,193.3z M590.2,190.8c-1.6-0.6-3.2-1.2-4.9-1.8l0.3-0.8c1.7,0.7,3.3,1.3,4.9,1.8L590.2,190.8z
		 M582.9,188.1c-1.6-0.6-3.2-1.3-4.8-2l0.3-0.8c1.6,0.7,3.3,1.3,4.8,2L582.9,188.1z M575.6,185.1c-1.6-0.7-3.2-1.4-4.8-2.1l0.3-0.8
		c1.6,0.7,3.2,1.4,4.8,2.1L575.6,185.1z M568.4,182c-1.6-0.7-3.2-1.4-4.8-2.1l0.4-0.8c1.6,0.7,3.2,1.4,4.8,2.1L568.4,182z
		 M561.3,178.8c-1.6-0.7-3.2-1.5-4.7-2.2l0.4-0.8c1.6,0.7,3.2,1.5,4.7,2.2L561.3,178.8z M554.2,175.4c-1.6-0.7-3.1-1.5-4.7-2.3
		l0.4-0.8c1.6,0.8,3.1,1.5,4.7,2.3L554.2,175.4z M547.2,172c-1.6-0.8-3.1-1.5-4.7-2.3l0.4-0.8c1.6,0.8,3.1,1.5,4.7,2.3L547.2,172z
		 M540.1,168.6c-1.6-0.8-3.1-1.6-4.7-2.3l0.4-0.8c1.5,0.8,3.1,1.6,4.7,2.3L540.1,168.6z M533.1,165.1c-1.6-0.8-3.1-1.6-4.7-2.4
		l0.4-0.8c1.5,0.8,3.1,1.6,4.6,2.4L533.1,165.1z M526.2,161.5c-1.6-0.8-3.1-1.6-4.6-2.4l0.4-0.8c1.5,0.8,3.1,1.6,4.6,2.4
		L526.2,161.5z M519.2,157.9c-1.6-0.8-3.1-1.6-4.6-2.4l0.4-0.8c1.5,0.8,3,1.6,4.6,2.4L519.2,157.9z M512.3,154.3
		c-1.6-0.8-3.1-1.7-4.6-2.5l0.4-0.8c1.5,0.8,3,1.6,4.6,2.5L512.3,154.3z M505.4,150.6c-1.6-0.9-3.2-1.7-4.6-2.5l0.4-0.8
		c1.4,0.8,3,1.6,4.6,2.5L505.4,150.6z M498.5,146.9c-1.7-0.9-3.3-1.8-4.6-2.5l0.4-0.8c1.3,0.7,2.9,1.6,4.6,2.5L498.5,146.9z
		 M491.6,143.1c-2.2-1.2-3.4-1.9-3.5-2l0.4-0.8c0.6,0.3,0.9,0.5,1.1,0.6l0,0c0.6,0.3,1.4,0.8,2.5,1.4L491.6,143.1z M487,140.9
		c-1.2-0.5-2.8-1.2-4.8-2l0.3-0.8c2,0.8,3.6,1.5,4.8,2L487,140.9z M479.8,137.9l-4.8-2l0.3-0.8l4.8,2L479.8,137.9z M472.6,134.8
		c-1.5-0.6-3.1-1.3-4.8-2l0.3-0.8c1.7,0.7,3.3,1.4,4.8,2L472.6,134.8z M465.3,131.8c-1.6-0.7-3.2-1.3-4.8-2l0.3-0.8
		c1.6,0.7,3.3,1.4,4.8,2L465.3,131.8z M458.1,128.7c-1.6-0.7-3.2-1.3-4.8-2l0.3-0.8c1.6,0.7,3.2,1.3,4.8,2L458.1,128.7z
		 M450.9,125.8c-1.6-0.7-3.2-1.3-4.8-2l0.3-0.8c1.6,0.7,3.2,1.3,4.8,2L450.9,125.8z M443.6,122.8c-1.6-0.6-3.2-1.3-4.8-1.9l0.3-0.8
		c1.6,0.6,3.2,1.3,4.8,1.9L443.6,122.8z M436.4,119.9c-1.6-0.6-3.2-1.3-4.9-1.9l0.3-0.8c1.6,0.6,3.2,1.3,4.9,1.9L436.4,119.9z
		 M429.1,117.1c-1.6-0.6-3.3-1.2-4.9-1.9l0.3-0.8c1.6,0.6,3.2,1.2,4.9,1.9L429.1,117.1z M421.8,114.3c-1.7-0.6-3.3-1.2-4.9-1.8
		l0.3-0.8c1.6,0.6,3.2,1.2,4.9,1.8L421.8,114.3z M414.4,111.6c-1.7-0.6-3.3-1.2-4.9-1.7l0.3-0.8c1.6,0.5,3.2,1.1,4.9,1.7
		L414.4,111.6z M407,109.1c-1.8-0.6-3.4-1.1-5-1.6l0.2-0.8c1.5,0.5,3.2,1,5,1.6L407,109.1z M399.5,106.8c-1.9-0.5-3.6-0.9-5-1.3
		l0.2-0.8c1.5,0.3,3.2,0.7,5.1,1.3L399.5,106.8z M392,105.1c-2.6-0.5-3.1-2.1-3.2-3.3c0-0.3,0-0.5,0.1-0.8l0.9,0.1
		c0,0.2-0.1,0.5-0.1,0.7c0,1.4,0.8,2.1,2.5,2.5L392,105.1z M390.5,98.7l-0.8-0.4c0.6-1.3,1.6-2.8,2.8-4.5l0.7,0.5
		C392,96,391.1,97.5,390.5,98.7z M394.9,92.4l-0.7-0.6c1-1.2,2.2-2.6,3.5-3.9l0.6,0.6C397,89.8,395.9,91.2,394.9,92.4z M506.3,87.3
		l-2.8-1.5l0.4-0.8l2.8,1.5L506.3,87.3z M400.1,86.6l-0.6-0.6c1.2-1.2,2.4-2.4,3.7-3.7l0.6,0.6C402.5,84.2,401.2,85.4,400.1,86.6z
		 M501.2,84.6l-4.6-2.5l0.4-0.8l4.6,2.5L501.2,84.6z M405.7,81.1l-0.6-0.6c1.3-1.2,2.6-2.4,3.9-3.5l0.6,0.6
		C408.2,78.7,406.9,79.9,405.7,81.1z M494.4,80.9l-4.6-2.5l0.4-0.8l4.6,2.5L494.4,80.9z M487.5,77.2l-4.6-2.5l0.4-0.8l4.6,2.5
		L487.5,77.2z M411.4,75.6l-0.7-0.5c0.5-0.8,1.5-2.4,2.9-4.4l0.7,0.5C412.9,73.3,411.8,74.8,411.4,75.6z M480.6,73.5L476,71l0.4-0.8
		l4.6,2.5L480.6,73.5z M473.7,69.8l-4.6-2.5l0.4-0.8l4.6,2.5L473.7,69.8z M415.8,69.2l-0.7-0.5c1.1-1.4,2.3-2.7,3.4-4l0.6,0.6
		C418.1,66.5,416.9,67.9,415.8,69.2z M466.8,66.1l-4.6-2.5l0.4-0.8l4.6,2.5L466.8,66.1z M421,63.4l-0.6-0.6c1.3-1.3,2.6-2.5,3.9-3.5
		l0.5,0.7C423.6,61,422.3,62.2,421,63.4z M460,62.4l-4.6-2.5l0.4-0.8l4.6,2.5L460,62.4z M453.1,58.7l-3.2-1.7
		c-0.5-0.3-0.9-0.5-1.3-0.8l0.4-0.8c0.5,0.2,0.9,0.5,1.4,0.8l3.2,1.7L453.1,58.7z M426.9,58.5l-0.5-0.7c1.5-1,3.1-1.9,4.6-2.6
		l0.4,0.8C429.9,56.6,428.4,57.5,426.9,58.5z M446.2,55.1c-1.6-0.6-3.3-1-4.9-1.1l0.1-0.9c1.7,0.1,3.5,0.5,5.2,1.2L446.2,55.1z
		 M433.8,55l-0.3-0.8c1.7-0.6,3.5-0.9,5.2-1.1l0.1,0.9C437.1,54.1,435.4,54.4,433.8,55z"/>
	<path class="st0" d="M397.1,71.9l-0.8-0.3c0,0,0.6-1.9,1.7-5l0.8,0.3C397.7,70,397.1,71.9,397.1,71.9z M399.7,64.5l-0.8-0.3
		c0.5-1.5,1.1-3.1,1.8-4.9l0.8,0.3C400.8,61.3,400.2,63,399.7,64.5z M402.3,57.1l-0.8-0.3c0.6-1.6,1.2-3.2,1.8-4.9l0.8,0.3
		C403.5,53.9,402.9,55.5,402.3,57.1z M405,49.7l-0.8-0.3c0.6-1.6,1.2-3.2,1.8-4.9l0.8,0.3C406.2,46.5,405.6,48.1,405,49.7z
		 M407.8,42.4l-0.8-0.3c0.6-1.6,1.3-3.2,1.9-4.9l0.8,0.3C409,39.2,408.4,40.8,407.8,42.4z M410.6,35.1l-0.8-0.3
		c0.7-1.6,1.3-3.3,2-4.8l0.8,0.3C411.9,31.9,411.3,33.5,410.6,35.1z M413.6,27.9l-0.8-0.3c0.7-1.6,1.4-3.3,2.1-4.8l0.8,0.4
		C415,24.6,414.3,26.2,413.6,27.9z M416.7,20.7l-0.8-0.4c0.8-1.7,1.5-3.3,2.2-4.7l0.8,0.4C418.2,17.4,417.5,19,416.7,20.7z
		 M420.1,13.7l-0.8-0.4c0.9-1.8,1.8-3.3,2.6-4.6l0.7,0.5C421.9,10.4,421,11.9,420.1,13.7z M424.2,7.1l-0.7-0.6
		c0.6-0.7,1.1-1.2,1.6-1.5l0.5,0.7C425.1,6.1,424.7,6.5,424.2,7.1z"/>
	<path class="st0" d="M712.6,494.4l-0.8-0.3c0.1-0.2,8.5-25.2,29.2-51.1c19.1-23.9,52.8-53.5,105.1-58.7l0.1,0.9
		c-52,5.2-85.5,34.6-104.5,58.4C721.1,469.4,712.7,494.2,712.6,494.4z"/>
	<rect x="11.7" y="406.8" transform="matrix(0.9868 -0.162 0.162 0.9868 -70.5274 7.733)" class="st0" width="0.9" height="58.9"/>
</g>
</svg>
