<?xml version="1.0" encoding="utf-8"?>
<!-- Generator: Adobe Illustrator 24.0.3, SVG Export Plug-In . SVG Version: 6.00 Build 0)  -->
<svg version="1.1" id="Layer_1" xmlns="http://www.w3.org/2000/svg" xmlns:xlink="http://www.w3.org/1999/xlink" x="0px" y="0px"
	 viewBox="0 0 742.7 408.6" style="enable-background:new 0 0 742.7 408.6;" xml:space="preserve">
<style type="text/css">
	.st0{fill:none;stroke:#FFFFFF;stroke-miterlimit:10;}
	.st1{fill:none;stroke:#FFFFFF;stroke-miterlimit:10;stroke-dasharray:9.9071,4.9536;}
	.st2{fill:none;stroke:#FFFFFF;stroke-miterlimit:10;stroke-dasharray:10,5;}
	.st3{fill:none;stroke:#FFFFFF;stroke-miterlimit:10;stroke-dasharray:2,3;}
	.st4{fill:none;stroke:#FFFFFF;stroke-miterlimit:10;stroke-dasharray:4,3;}
	.st5{fill:#FFFFFF;}
	.st6{stroke:#FFFFFF;stroke-miterlimit:10;}
</style>
<path class="st0" d="M174.6,343.3c-14.5,0-30.2-0.3-44.9-1.3c-3.8-0.1-74.5-1.7-113.9-14.4c-7.3-2.4-8.5-3.5-8.5-5.5h5.2
	c0-1-0.6-1.6-0.8-1.8c0.6,0.4,3.4,1.5,5.8,2.3c38.9,12.4,111.7,14.1,112.5,14.1h0.1c43.6,2.9,96.7,0,97.2,0h0.1h141
	c105.9,0,189-4.3,193.2-4.5c153.7-27.4,164.9-53.3,165-53.6l5,1.4c-0.4,1.3-3.3,8.4-25.1,18.7c-29.2,13.8-77.7,26.8-144.2,38.6h-0.3
	c-0.8,0.1-85.3,4.5-193.6,4.5H227.4C225.8,342.2,202.7,343.3,174.6,343.3z"/>
<g>
	<g>
		<path class="st0" d="M24.5,77.3c0,0,1.3,0.2,3.7,0.5"/>
		<path class="st1" d="M31.8,78.3c24.7,3.3,106.4,13.1,176,8.4"/>
		<path class="st0" d="M209.7,86.6c1.3-0.1,2.5-0.1,3.7-0.3"/>
	</g>
</g>
<path class="st2" d="M24.1,119.7c0,0,54,15.7,211.5,11.2"/>
<path class="st2" d="M268.2,177.1c0,0-150.7,2.2-237-14.2"/>
<path class="st3" d="M109.6,326.7c0,0-62.1-141.1-63.3-161.2"/>
<path class="st4" d="M225.8,326.7c0,0,48.7-110.2,72-125.2"/>
<path class="st4" d="M560.5,321.1c0,0-2.8-74.3-53.1-87.1s-98.2-28.5-111-34.5S307.9,156,275.7,87.8c0,0-20.2-50.2-69-50.2
	c0,0-27-6-3.7,29.2c0,0,62.2,145.5,158.2,165.7c0,0,68.5,9.7,28.3,94.1"/>
<g>
	<path class="st5" d="M295.5,96.3v0.7l0,0c7.4,0,15.3,1.2,23.4,3.4c0.4,0.2,4.9,2.3,5.5,6.1l0.1,0.8l0.8-0.2c0,0,2.4-0.7,5.1-0.7
		c3.9,0,6.1,1.3,6.7,3.8v0.1l0.1,0.1c0.5,0.7,1.9,3.1,1.4,4.5c-0.1,0.4-0.4,0.7-0.7,0.9c-1-0.7-4-2.2-10.5-2.8h-0.1h-0.1
		c-3.5,0.1-34.5,0.8-38.5,3.1c-0.7,0.3-11.2,4.5-17.1,4.5c-0.4,0-0.8,0-1.2-0.1c-6.1-0.7-12.7-2.2-12.8-10.2
		c1.7-1.7,14.2-13.6,37.9-13.6L295.5,96.3 M295.5,96.3c-25.9,0-38.6,14-38.6,14c0,9,7.5,10.5,13.5,11.2c0.4,0.1,0.8,0.1,1.3,0.1
		c6.4,0,17.5-4.6,17.5-4.6c3.7-2.2,38.2-3,38.2-3c8.2,0.7,10.5,3,10.5,3c3.7-1.5,0-6.7,0-6.7c-0.8-3.6-4.3-4.4-7.5-4.4
		c-2.8,0-5.2,0.7-5.2,0.7c-0.7-4.5-6-6.7-6-6.7C310.3,97.3,302.5,96.3,295.5,96.3L295.5,96.3z"/>
</g>
<path class="st0" d="M302.3,117.5l3-3l20.2-0.7c0,0-3.7,9.7-6,10.5l-8.2,3L302.3,117.5z"/>
<path class="st0" d="M286.6,143.7c0,0,5.2-9.7,21-15c15.7-5.2,38.2-14.2,38.2-14.2s12.7,6,14.2,18l-7.5-0.7l-32.2,15
	c0,0-18,7.5-21.7,8.2c0,0-7.5,0.7-8.2,0C289.6,154.2,282.1,149,286.6,143.7z"/>
<polygon class="st0" points="345.8,155 356,132 352.6,131.7 329.6,142.4 328.6,145.2 339.8,156.5 "/>
<path class="st0" d="M316.6,177.5c0,0,20.2-24,51.7-32.2c0,0,17.2-3,20.2,18c0,0-1.5-3-6-2.2c0,0-32.2,12-49.5,24.7
	C333.1,185.7,318.8,188,316.6,177.5z"/>
<polygon class="st0" points="363.1,175.2 364.8,168.3 382.6,161 382.6,177.5 372.8,182 "/>
<path class="st0" d="M352.6,204.5c0,0,6.7-24,42.7-30c0,0,23.2-6.7,22.5,11.2c0,0-17.2-2.5-29.2,10c0,0-20.2,15.5-22.5,15.5
	C366.1,211.2,359.3,213.5,352.6,204.5z"/>
<path class="st0" d="M414.4,198.8l-2.1-13.3c0,0-12.4,0.4-19,6.1l15.8,8.7C409.2,200.3,412.9,198.1,414.4,198.8z"/>
<path class="st0" d="M426.4,195.8c0,0-18,0-27,17.2c0,0-1.1,4.9-0.4,11.6c0,0,4.5-1.5,6.7,3c0,0,19.9-11.5,21.9-16.3
	c0,0,1.3-4,8.1-1l13.5,4.5c0,0,3-3-4.5-5.2l12.7,1.5c0,0,6,0,6.7-1.5c0,0-12-12-27-13.5c0,0-7.3-4.6-8.2-8.7c0,0-1-2.7-11-3
	S426.4,195.8,426.4,195.8z"/>
<path class="st0" d="M438.8,229.2l1.5,12c0,0,4.5-0.7,8.2,2.2c0,0,19.1-12.1,21.1-19.6c0,0,3.6-5.2,14.8,0.1l3.7,1.5v-11.2
	c0,0-14.2-3.7-12.7-6c1.5-2.2-2.1-3.9-2.1-3.9s-6.1-6.6-16.6-5.8c0,0,3,6.7,7.5,11.2C464.3,209.7,451.6,209,438.8,229.2z"/>
<path class="st4" d="M543.8,262.8l-30.4,3.5c0,0-2.2,8.2,0,10.5c0,0,20.2-1.5,24,0c3.7,1.5,12.7,18,12,46.5"/>
<path class="st4" d="M549.4,270.1c0,0,99.3,2.6,91-12.4"/>
<path class="st4" d="M666.1,259.7c0,0,14.7,20.5-109.9,27.2"/>
<path class="st0" d="M68,212.3c0,0,80.2,6.7,149.2-8.2c0,0,35.6-6.4,56.6,14.6c0,0,54.7,44.2,70.5,52.5c0,0,18.7,16.5,48.7,12.7
	l-6.7,35.2c0,0-34.5,9.7-106.5-51.7c0,0-29.2-28.5-50.2-28.5c0,0-44.2,8.2-69.7,8.2c0,0-53.2,3.7-78.7,1.5L68,212.3z"/>
<path class="st2" d="M390.1,288.5c0,0-30,6.7-84.7-39s-60-40.5-77.2-39.7c-17.2,0.7-47.2,7.5-81,8.2c-33.7,0.7-77.2-0.1-77.2-0.1"/>
<path class="st2" d="M79.5,244.4c0,0,60.7,5.8,146.2-8.5c0,0,27.7-10.5,78,45.7c0,0,35.2,32.2,80.2,34.5"/>
<path class="st6" d="M742.2,304.6c0-15-10.5-23.2-10.5-23.2c-5.7-8.8-8.8-10.6-10.5-10.6c-0.2,0-0.3,0-0.4,0.1l0.2-0.3
	c-17.1-10.9-77.2-13-80.3-13.1l-75.7-18c-4.2-1.4-8.9-1.5-9.7-1.5c-6.9-4.8-13.1-4.6-14.2-4.5c-13-12.2-29.5-17.5-30.7-17.9
	c-10-7.3-15.3-8-18-7.2c-1.6,0.4-2.4,1.4-2.6,1.9c-5.2-0.8-13.8-5.1-13.8-5.2c-6.6-4.4-11.8-6.7-15.4-7c-2.2-0.1-3.2,0.5-3.6,0.9
	c-2.2-0.7-19.4-6.7-21.5-7.4c-2.1-0.7-3.5-2.8-3.5-2.8l-0.1-0.1c-5.8-5.2-11.8-4.3-13.4-3.9c-0.4-1.9-2.1-9.7-7-11.2
	c-4.8-1.3-13.6,0.3-15.5,0.7c-1.4-7.9-5.6-10.5-6.7-11v-3.5v-0.1c-2.2-9.1-12.5-14.2-13-14.5c-3.9-1.3-6.7,0.1-7.6,0.6
	c-1.4-1.7-5.8-9.2-7.9-13.1c-2.7-12.7-12.1-17.2-14.1-18.1c4.3-11.1-0.9-18.7-0.9-18.7c-5.8-8.7-20.2-5.8-22-5.5
	c-3.4-2.2-4.2-10-4.2-10.1c0-8.4-9.5-14.3-9.9-14.5c-5-4.3-4.3-15.3-4.3-15.4v-0.1v-0.1c-2.2-7.4-19.3-48.4-19.5-48.7l-0.3-0.2h-0.2
	c-23.1-3.6-45,21.2-46.7,23.2c-15.5,0.7-31.2,3.7-31.4,3.7c-22.2,5.9-69.1,5.2-69.6,5.2l-86.7-5.2c-1.1-4.5-10.4-3.8-10.8-3.7
	c-13.9,0-17.6,9.1-17.6,13.9v30v0.1c1.5,3.7,2.2,9.6,2.2,9.6c0,1.2-1.6,7.3-2.2,9.6c-3.7,9-0.1,21.4,0,22l0.1,0.1
	c1.4,2.2,2.2,10.3,2.2,10.3c0.7,4.3-0.7,8-0.7,8v0.1l0.7,25l0.1,0.1c0.1,0.1,4.7,4,4,9.8c-0.7,5.8-5.2,12.5-5.2,12.6l-0.1,0.1
	l-9.7,130.6H14h0.4l9.7-130.4c0.5-0.8,4.6-7.1,5.2-12.8c0.7-5.6-3.3-9.6-4.1-10.3l-0.7-24.5c0.2-0.6,1.4-4.1,0.7-8.3
	c0-0.4-0.7-8.2-2.2-10.6c-0.2-0.9-3.5-13,0-21.5c0.1-0.4,2.2-8.3,2.2-9.9c0-0.2-0.7-6-2.2-9.7V38c0-0.1,0.2-13.1,16.9-13.1
	c0.1,0,9.4-0.7,10.1,3.4l0.1,0.3l87.3,5.2c0.4,0,47.5,0.7,69.8-5.2c0.1,0,15.9-3,31.4-3.7h0.1l0.1-0.1c0.1-0.1,5.4-6.4,13.5-12.4
	l-0.3,0.3c0.3,0.3,29.5,30.1,32.5,43.6c-0.9-0.2-2.5-0.4-3.6,0.2c-0.5,0.4-0.8,1-0.8,1.8v0.1l0.1,0.1c0.4,0.5,8.3,13.6,12.8,16.6
	l0.2,0.1l0.2-0.2c3.3-2.8,12.4-10,15.4-8.9c0.7,0.4,9.5,6.2,9.5,13.9c0,0.4,0.8,8.5,4.6,10.8l0.1,0.1h0.1c0.1,0,15.6-3.6,21.4,5.1
	c0.1,0.1,5.1,7.5,0.7,18.4l-0.1,0.4l0.4,0.1c0.1,0,11.1,3.8,14,17.7l0.1,0.1c0.3,0.5,6.8,12.1,8.3,13.6l0.2,0.2l0.2-0.2
	c0,0,2.9-2.1,7.1-0.7c0.1,0.1,10.3,5.2,12.5,13.9v4l0.2,0.1c0.1,0,5.1,2.3,6.5,10.9l0.1,0.4l0.4-0.1c0.1,0,10.5-2.2,15.6-0.7
	c4.9,1.4,6.4,10.9,6.4,10.9l0.1,0.4l0.4-0.1c0.1,0,6.6-2.1,13.1,3.7c0.2,0.3,1.7,2.4,3.9,3.1c2.2,0.7,21.5,7.4,21.7,7.5l0.3,0.1
	l0.1-0.2c0-0.1,3.1-4,18.3,6.1c0.4,0.2,9.1,4.5,14.4,5.2l0.3,0.1l0.1-0.3c0-0.1,0.5-1.3,2.3-1.7c2.5-0.7,7.6,0,17.3,7.1l0.1,0.1
	c0.1,0.1,17.3,5.4,30.6,17.9l0.2,0.1h0.1c0.1,0,6.7-0.7,14,4.4l0.1,0.1h0.2c0.1,0,5.2,0,9.7,1.5l75.7,18h0.1
	c0.6,0,62.5,2.2,79.8,12.8c-0.4,0.3-0.7,0.7-0.7,0.7c-2.2,13.5-47.2,23.2-47.2,23.2c-45,18.7-123,27.7-123,27.7L443,327.1
	l-217.5-0.7c-11.5,1-28.2,1.3-45.3,1.3c-34.2,0-70.2-1.3-70.2-1.3c-98.2-9-96-20.2-96-20.2s-3.7,1.5-4.5,4.5c-0.7,3,0,18,0,18
	c-4.5,0-5.2,0.7-5.2,0.7v4.5c-4.5,0-3.7,2.2-3.7,2.2c0,12,9,32.2,9,32.2c4.5,0,4.5,2.2,4.5,2.2c-0.7,7.5,2.2,18,2.2,18l3.7-0.7
	l1.5,4.5c6.4,6.4,18.7,7.5,18.7,7.5c19.5,5.2,65.2,5.2,65.2,5.2l327.7,3c78,0,138.7-8.2,205.5-21s97.5-36,97.5-36l-0.7-27
	C735.4,324.1,742.2,319.6,742.2,304.6z M293.2,74.2c-4.2-3.1-11.6-14.9-12.4-16.1c0-0.4,0.1-0.8,0.5-1c0.9-0.7,2.8-0.2,3.5,0
	l0.6,0.2l-0.1-0.6c-2.2-13.3-31.3-43-32.8-44.5c8.5-6.3,20.2-12.3,32.2-10.5c1.3,3.1,17.2,41.2,19.3,48.4c-0.1,1-0.4,10.3,3.8,15.2
	C303.7,65.4,295,72.7,293.2,74.2z M735,323.4l-0.4,0.2v0.4l0.7,26.6c-1.6,1.1-9.3,6.4-23.3,13c-14.5,6.7-39.1,16.1-73.6,22.7
	c-65.9,12.6-126.1,21-205.3,21l-327.7-3c-0.4,0-45.9-0.1-65-5.2h-0.1h-0.1c-0.1,0-12-1.1-18.1-7.1l-1.4-4.3l-0.2-0.6l-0.7,0.1
	l-3.1,0.6c-0.6-2.4-2.7-10.9-2-17l0,0l0,0c0-0.1-0.1-2.8-4.7-3c-1.3-3-8.8-20.8-8.8-31.5v-0.1l-0.1-0.1c0,0-0.1-0.3,0.1-0.5
	c0.1-0.2,0.8-0.7,2.9-0.7h0.7v-0.7v-4c0.5-0.1,1.7-0.4,4.5-0.4h0.8l-0.1-0.7c-0.2-4.1-0.6-15.4,0-17.8c0.4-1.8,2.2-3.1,3.3-3.6
	c0.1,0.1,0.1,0.3,0.3,0.5c2.5,3.4,17,12.2,96.1,19.4l0,0l0,0c0.4,0,36.4,1.3,70.3,1.3c19.9,0,35.1-0.4,45.3-1.3l217.5,0.7l106.5-4.5
	l0,0l0,0c0.7-0.1,78.5-9.2,123.1-27.7c2.6-0.6,45.2-10,47.8-23.7c0.1-0.1,0.3-0.4,0.8-0.4c1,0,3.8,1,9.8,10.3l0.1,0.1l0.1,0.1
	c0.1,0.1,10.2,8.2,10.2,22.6C741.4,318.9,735,323.4,735,323.4z"/>
</svg>
