<?xml version="1.0" encoding="utf-8"?>
<!-- Generator: Adobe Illustrator 23.0.2, SVG Export Plug-In . SVG Version: 6.00 Build 0)  -->
<svg version="1.1" height="418px" id="Layer_1" xmlns="http://www.w3.org/2000/svg" xmlns:xlink="http://www.w3.org/1999/xlink" x="0px" y="0px"
	 viewBox="0 0 1114.5 418" style="enable-background:new 0 0 1114.5 418;" xml:space="preserve">
<style type="text/css">
	.st0{fill:none;stroke:#FFFFFF;stroke-miterlimit:10;}
	.st1{fill:none;stroke:#FFFFFF;stroke-width:0.75;stroke-miterlimit:10;}
	
		.st2{fill:none;stroke:#FFFFFF;stroke-width:0.75;stroke-miterlimit:10;stroke-dasharray:3.9169,0,3.9169,3.9071,1.958447e-02,3.8973;}
	.st3{fill:none;stroke:#FFFFFF;stroke-width:0.75;stroke-miterlimit:10;stroke-dasharray:3.9169,0,3.9169,0,3.9169,3.9071;}
	.st4{fill:none;stroke:#FFFFFF;stroke-miterlimit:10;stroke-dasharray:3,4,3,4,3,4;}
</style>
<g>
	<path class="st0" d="M480.7,0.4c0,0,227.1,131.2,328.1,160.8s265.4,57.2,277.6,68.4c0,0,7.1-3.1,13.3,10.2c0,0,0,7.1,0,13.3
		c0,0,14.3,4.1,14.3,24.5c0,0-2,9.2-2,14.3l1,53.1c0,0-74.5,34.7-214.3,51c0,0-181.7,21.4-270.5,21.4l-214.3-5.1
		c0,0-203.1,3.1-234.7,0s-115.3-5.1-155.1-19.4l-3.1-2l-3.1-26.5c0,0,0-1-5.1-1c0,0-11.2-28.6-12.2-48c0,0,0-1,4.1-1v-10.2
		c0,0,4.1-4.1,10.2-4.1h2l1-18.4c0,0-8.2-6.1,0-10.2H24l-3.1-82.7c0,0,8.2-48,8.2-55.1c0-7.1,4.1-5.1,4.1-5.1s-2-44.9,15.3-49h6.1
		c0,0-2-3.1,6.1-2S75,89.7,75,89.7s11.2,3.1,34.7,12.2s106.1,34.7,194.9,34.7s147-20.4,147-20.4L472,82.6"/>
	<path class="st0" d="M1099.2,241.3c0,0-33.7,20.4-92.9,27.6s-180.7,23.5-277.6,23.5l-170.4,2l-230.7,1l-205.1-2
		c0,0-90.4-2.6-104.1-10.2l-0.6,9.9c0,0,44.5,11.5,118,11.5s169.4,7.1,254.1,0c0,0,169.4,1,190.9,1c21.4,0,170.4-1,222.5-6.1
		s204.1-10.2,296-45.9L1099.2,241.3L1099.2,241.3z"/>
	<path class="st0" d="M216.9,283.7c0,0-70.4-90.8-83.7-95.9c0,0-69.9-58.7-99.5-58.7"/>
	<g>
		<g>
			<path class="st1" d="M28.6,137.7c0,0,0.7,0.1,2,0.4"/>
			<path class="st2" d="M30.5,138.1c2.7,0.6,8.2,2,15.9,4.9"/>
			<path class="st3" d="M49.2,144c31.1,12.1,93.1,46,155.3,136.4"/>
			<path class="st1" d="M205.5,282c0.4,0.5,0.7,1.1,1.1,1.7"/>
		</g>
	</g>
	<path class="st0" d="M1086.5,229.6c0,0,5.1,54.1-514.4,54.1l-264.9,2.6c0,0-227.6-2-283.7-14.3"/>
	<g>
		<path class="st0" d="M481.1,1.4l17.6,10c-1.1,2.8-5.4,14.6-7.7,28.3c-3.5,20.8-0.6,36.5,8.3,45.4c0.4,0.5,3.7,4.7,11.1,10.7
			c7.1,5.7,19.4,14.2,38,22.2c34,14.6,69,32.2,71,52.5c2.1,20.8-1.6,32.4-29.2,46.2c-8.2,4.1-20.6,8.9-34.8,14.4
			C519.6,245,475,262.2,454.5,284h-32.6c3.8-3.8,16.4-15.8,35.9-29.5c21.8-15.3,57.1-36,101.3-47.6l0,0l0,0
			c0.1,0,11.2-3.9,21.7-10.1c14.3-8.5,20.9-17,19.6-25.4c-2.5-15.8-54.1-36.5-78.8-46.4c-6.3-2.5-10.9-4.4-12.4-5.2
			c-6.9-3.9-33.4-23.2-36.4-37.3l0,0l0,0c-0.1-0.4-10.9-36.7,0-59.2l0,0l0,0L481.1,1.4 M480.7,0.4l-8.6,22.5
			c-11.2,23-0.1,59.7-0.1,59.7c3.1,14.3,29.6,33.7,36.7,37.8c7.1,4.1,87.8,31.6,90.8,51s-40.8,34.7-40.8,34.7
			C473.1,228.5,420,284.7,420,284.7h34.7c28.6-30.6,107.2-53.1,135.7-67.4C619,203,622,190.8,620,170.4s-35.7-37.8-71.4-53.1
			s-48.8-32.7-48.8-32.7c-21.3-21.3-0.2-73.5-0.2-73.5L480.7,0.4L480.7,0.4z"/>
	</g>
	<path class="st4" d="M442.4,281.6c0,0,58.2-43.9,97-55.1c0,0,53.1-5.1,73.5-45.9c0,0,7.7-25-90.8-70.4c0,0-67.9-23-35.2-98.5"/>
	<path class="st0" d="M54.6,79.5c0,0,51,76.5,228.6,76.5c0,0,85.7,3.1,162.3-21.4l153.1,44.3c0,0,25.4-15.5-98-64.1
		c0,0-26.5-22-28.5-32.2"/>
	<path class="st0" d="M679.4,417.4l-0.9-0.5c0.1-0.2,10.8-20.9,29.7-43c17.5-20.4,45.8-46.2,81.5-53.2
		c1.8-0.2,173.4-18.8,309.2-67.3l0.3,1c-135.9,48.5-307.7,67.1-309.4,67.3c-35.3,7-63.5,32.6-80.8,52.9
		C690.1,396.6,679.5,417.2,679.4,417.4z"/>
</g>
</svg>
