<?xml version="1.0" encoding="utf-8"?>
<!-- Generator: Adobe Illustrator 23.0.3, SVG Export Plug-In . SVG Version: 6.00 Build 0)  -->
<svg version="1.1" id="Layer_1" xmlns="http://www.w3.org/2000/svg" xmlns:xlink="http://www.w3.org/1999/xlink" x="0px" y="0px"
	 width="638.8px" height="232px" viewBox="0 0 638.8 232" style="enable-background:new 0 0 638.8 232;" xml:space="preserve">
<style type="text/css">
	.st0{fill:none;stroke:#FFFFFF;stroke-miterlimit:10;}
</style>
<g>
	<g>
		<path class="st0" d="M637.5,136c0,0,15,63-79,88S377,203.5,377,203.5s-77-41-166-29s-203,33-210-61s67-87,116-91s115-2,115-2
			s130-20,176-20C408,0.5,619,8.5,637.5,136z"/>
		<g>
			<polygon class="st0" points="397.1,115.5 406.1,115 413,124.7 407.9,134 399,134.5 392.1,124.7 			"/>
			<polygon class="st0" points="395.5,134.7 386.4,135.2 390.5,127.7 			"/>
			<polygon class="st0" points="519.2,151.4 526.5,151 526.4,149 517.8,149.5 510.7,139.5 515.7,130.2 526.3,129.7 533.4,139.8 
				523.7,157.7 			"/>
			<polygon class="st0" points="393.6,115.7 390.1,122 386,116.1 			"/>
			<polygon class="st0" points="432.8,134.7 428.9,142 424.1,135.2 			"/>
			<polygon class="st0" points="465.7,152.6 458.8,142.8 464,133 474.8,132.4 481.5,141.9 476.1,152 			"/>
			<polygon class="st0" points="483.4,144.7 488.1,151.3 479.6,151.8 			"/>
			<polygon class="st0" points="457.2,145.8 462.2,152.8 453.2,153.3 			"/>
			<polygon class="st0" points="323.2,107.1 333.6,88.2 346.1,105.5 335.6,124.8 			"/>
			<polygon class="st0" points="493,153 500.2,152.5 497,158.6 			"/>
			<polygon class="st0" points="349.7,105.2 360.5,85.3 373.3,103.5 362.7,123.2 			"/>
			<polygon class="st0" points="434.5,70.5 442.4,70.1 438.9,76.6 			"/>
			<polygon class="st0" points="394.6,70.6 398.5,63.4 403.3,70.1 			"/>
			<polygon class="st0" points="375.1,71.6 367.7,71.9 371.1,65.8 			"/>
			<polygon class="st0" points="457.1,69.3 463.3,78.1 457.5,89 448,89.6 440.8,79.4 445.9,69.9 			"/>
			<polygon class="st0" points="358.5,82.6 347.7,102.6 335.2,85.3 346.2,65.2 			"/>
			<polygon class="st0" points="417.5,71.4 413.3,79 408.2,71.9 			"/>
			<polygon class="st0" points="376.5,73.5 383.9,83.9 378.6,93.9 370.5,94.3 362.1,82.4 366.6,74 			"/>
			<polygon class="st0" points="390,72.8 385.5,81 380.1,73.3 			"/>
			<polygon class="st0" points="404.7,72 411.8,82 406.3,92.2 394,92.9 387.5,83.7 393.5,72.6 			"/>
			<polygon class="st0" points="418.5,91.4 409.8,91.9 413.7,84.7 			"/>
			<polygon class="st0" points="418.5,114.3 414.5,121.8 409.6,114.8 			"/>
			<polygon class="st0" points="548.7,156.5 536.9,139.6 547.2,120.6 558.9,137.4 			"/>
			<polygon class="st0" points="419.8,93.3 425.5,101.3 419.7,112.3 408.2,112.9 402.7,105.1 408.7,94 			"/>
			<polygon class="st0" points="405.1,94.2 400.7,102.4 395.4,94.8 			"/>
			<polygon class="st0" points="441.9,124.3 447.3,131.9 437.5,132.4 			"/>
			<polygon class="st0" points="465.1,131 468.8,124 473.4,130.5 			"/>
			<polygon class="st0" points="463.8,111.8 472.1,111.4 468.4,118.3 			"/>
			<polygon class="st0" points="487,131.8 483.1,139 478.3,132.2 			"/>
			<polygon class="st0" points="504.6,130.8 512.1,130.4 508.8,136.7 			"/>
			<polygon class="st0" points="381,114.4 370.6,114.9 375.3,106.2 			"/>
			<polygon class="st0" points="480.1,96.4 475.4,89.9 483.9,89.4 			"/>
			<polygon class="st0" points="503.3,107.7 506.6,101.5 510.6,107.3 			"/>
			<polygon class="st0" points="545.3,117.8 535,136.9 522,118.4 532.4,99.2 			"/>
			<polygon class="st0" points="390.5,93.1 382.1,93.6 385.9,86.6 			"/>
			<polygon class="st0" points="434.8,90.4 439.2,82.3 444.5,89.8 			"/>
			<polygon class="st0" points="427.1,98.4 423.4,93.1 430.2,92.7 			"/>
			<polygon class="st0" points="421,71.2 431,70.7 437.3,79.6 431.3,90.6 422,91.2 415.3,81.8 			"/>
			<polygon class="st0" points="445.9,91.7 451.6,99.8 445.7,110.8 436.3,111.3 429.1,101.1 433.7,92.5 			"/>
			<polygon class="st0" points="468.3,68.8 464.9,75.1 460.7,69.2 			"/>
			<polygon class="st0" points="410.4,155.8 399.2,156.5 404.3,147.1 			"/>
			<polygon class="st0" points="420.5,135.4 427.3,144.9 421.8,155.2 414,155.6 405.9,144.2 410.3,135.9 			"/>
			<polygon class="st0" points="383.7,157.4 374.2,158 378.4,150.1 			"/>
			<polygon class="st0" points="406.8,136.1 403.9,141.5 400.4,136.4 			"/>
			<polygon class="st0" points="369.5,116.9 369.5,117 382.4,116.3 388.6,125 382.9,135.4 371.9,136 364.6,125.9 			"/>
			<polygon class="st0" points="337.6,127.6 348.1,108.2 361.1,126.1 350.4,145.8 			"/>
			<polygon class="st0" points="477.6,194.6 466.8,195.1 460.8,186.8 466.3,176.6 478.7,175.9 483.8,183.1 			"/>
			<polygon class="st0" points="482.2,175.7 487.9,175.4 485.4,180.2 			"/>
			<polygon class="st0" points="436.4,178.4 433.7,183.5 430.3,178.7 			"/>
			<polygon class="st0" points="392.3,169.3 399,178.6 387,179.3 			"/>
			<polygon class="st0" points="217,112.7 227.7,93.7 240.7,112.6 230.2,132.1 			"/>
			<polygon class="st0" points="198.8,91 188.3,110 176.4,92.8 186.9,73.5 			"/>
			<polygon class="st0" points="311.5,128.7 321.6,110.1 334.1,127.8 324,146.4 			"/>
			<polygon class="st0" points="151,94.2 161.1,76.1 172.8,93 162.7,111.5 			"/>
			<polygon class="st0" points="164.6,114.3 174.7,95.7 186.7,112.9 176.3,131.7 			"/>
			<polygon class="st0" points="190.2,112.7 200.7,93.8 213.5,112.8 203.1,131.4 			"/>
			<polygon class="st0" points="444.3,163.6 439,156.1 448.6,155.6 			"/>
			<polygon class="st0" points="270.3,109.5 280.9,90.6 293.4,108.3 282.9,127.7 			"/>
			<polygon class="st0" points="307.1,89.5 319.7,107.3 309.5,125.9 297,108.1 			"/>
			<polygon class="st0" points="244.2,112.4 254.9,92.5 266.8,109.7 255.9,129.4 			"/>
			<polygon class="st0" points="556.8,96.4 546.9,114.8 534,96.2 544,77.6 			"/>
			<polygon class="st0" points="560.5,134.4 548.8,117.6 558.7,99.2 570.3,116 			"/>
			<polygon class="st0" points="429.6,68.8 422.1,69.1 425.4,62.9 			"/>
			<polygon class="st0" points="574.9,155.1 562.4,137.1 572.2,118.8 584.5,136.9 			"/>
			<polygon class="st0" points="525.6,160.5 535.3,142.6 547.1,159.4 537.6,177.2 			"/>
			<polygon class="st0" points="563.2,177.3 550.6,159.2 560.8,140.1 573.3,158.1 			"/>
			<polygon class="st0" points="524.9,106.8 524.9,106.5 514.2,107.1 508.2,98.6 514.1,87.5 523.8,86.9 530.4,96.4 			"/>
			<polygon class="st0" points="447,67.9 450.9,60.6 455.8,67.4 			"/>
			<polygon class="st0" points="486.7,67.8 495.6,67.4 491.6,74.8 			"/>
			<polygon class="st0" points="488.5,87.1 492,80.6 496.2,86.6 			"/>
			<polygon class="st0" points="432.8,111.5 423.2,112.1 427.5,104.1 			"/>
			<polygon class="st0" points="418.6,167.4 425.4,177 413.1,177.7 			"/>
			<polygon class="st0" points="420.7,157.2 418.3,161.7 415.3,157.5 			"/>
			<polygon class="st0" points="458.9,184.1 454.1,177.3 462.8,176.8 			"/>
			<polygon class="st0" points="441,176.1 444.7,169.3 449.2,175.6 			"/>
			<polygon class="st0" points="480.8,173.8 473.4,163.4 478.5,153.8 489.5,153.2 495.4,161.5 489.1,173.3 			"/>
			<polygon class="st0" points="492.6,173.1 497.3,164.2 503.2,172.5 			"/>
			<polygon class="st0" points="506.7,172.3 498.9,161.3 503.8,152.3 515.7,151.6 522.1,160.7 516.2,171.7 			"/>
			<polygon class="st0" points="435.5,156.4 442.7,166.5 437.5,176.3 429,176.8 420.2,164.5 424.2,157 			"/>
			<polygon class="st0" points="452.7,175.4 446.2,166.3 452.1,155.4 463.5,154.7 469.9,163.6 463.9,174.8 			"/>
			<path class="st0" d="M393.6,18l-5.9,10.9l-9.6,0.5l-6.9-9.7l5.2-9.5L374,8.9c7-1.1,12.2-1.8,14.8-1.9l-1.9,1.4L393.6,18z"/>
			<polygon class="st0" points="491.6,25.5 488.7,31 485.1,25.9 			"/>
			<polygon class="st0" points="449.1,19.2 453.5,25.5 445.4,25.9 			"/>
			<polygon class="st0" points="29.7,82.8 40.8,99.5 30.1,118.7 18.9,101.7 			"/>
			<polygon class="st0" points="465.7,26.9 462.4,33 458.4,27.3 			"/>
			<polygon class="st0" points="402.4,49.8 392.9,50.4 385.3,39.6 390,30.8 402.2,30.2 408.4,38.8 			"/>
			<polygon class="st0" points="471.2,45.6 464.3,35.8 469.2,26.7 481.5,26 487.1,34 481.1,45 			"/>
			<polygon class="st0" points="520,42.6 511.9,43.1 515.6,36.2 			"/>
			<path class="st0" d="M420.1,17.2l-5.6,10.3L404.4,28l-7.3-10.3l5.2-9.6l-1.6-0.9c3.7,0.2,8.2,0.5,13.2,0.9l-0.1,0.1L420.1,17.2z"
				/>
			<polygon class="st0" points="460.3,112 466.8,121.3 461.6,131.1 450.9,131.7 443.5,121.3 448.1,112.7 			"/>
			<polygon class="st0" points="375.8,181.9 382.3,181.5 379.4,187.1 			"/>
			<polygon class="st0" points="396.8,136.6 402.3,144.4 395.7,156.7 387.2,157.2 380,147.2 385.3,137.3 			"/>
			<polygon class="st0" points="439.3,196.5 429.9,197 434,189.2 			"/>
			<polygon class="st0" points="394.6,158.8 391.9,163.7 388.6,159.1 			"/>
			<polygon class="st0" points="468.1,197.1 476.5,196.6 472.8,203.6 			"/>
			<polygon class="st0" points="439.9,178.2 450.6,177.6 457.3,187 452.6,195.9 442.8,196.3 435.6,186.2 			"/>
			<polygon class="st0" points="386.5,31 383.3,36.9 379.4,31.4 			"/>
			<polygon class="st0" points="411.8,157.7 416.7,164.7 409.6,177.9 402.6,178.4 393.9,166.4 398.1,158.6 			"/>
			<polygon class="st0" points="413.4,29.6 410,35.9 405.8,30 			"/>
			<path class="st0" d="M389.4,7c2.1,0,5.5,0.1,9.9,0.3l-4.2,7.8L389.4,7z"/>
			<polygon class="st0" points="381.8,137.4 378,144.5 373.3,137.9 			"/>
			<path class="st0" d="M72.4,145.3l11.7,16.3l-7.3,12.9c-3.9-0.6-7.6-1.3-11.2-2.2l-5.2-7.8L72.4,145.3z"/>
			<path class="st0" d="M56.4,37.2l-0.8,0.6l10.6,15.6l-6.5,11.4l2.6,1.5L68,56.2l6.5,9.6l0.8-0.6l-6.8-10l11.1-19.4l12.2,17.8
				l-6.2,11.3l2.6,1.5l5.5-9.9L106.4,75L95.2,96l-0.1-0.1l-2.5,1.7l15.3,21.8l-11.7,20.7l-0.2-0.3l-2.4,1.8l1,1.3l-9,16l-11.5-16.1
				l-0.3,0.2l0.3-0.5l-2.5-1.6l-13.1,21L46.7,144l8.5-15.6l-2.6-1.4l-7.7,14L32,121.5l10.7-19.2l10,15l2.5-1.7L44.4,99.4l7.9-14.2
				l-2.6-1.5l-7.2,12.8L31.4,79.9l10.8-18.8l7.5,12.2l2.6-1.6l-8.4-13.6l11.4-19.9l-1.2-0.7c6.2-2.1,14.4-4.4,24.7-6.3L66.7,52.4
				L56.4,37.2z"/>
			<path class="st0" d="M104.6,30.6l-11.1,20L81.3,32.9l0.9-1.6l-0.7-0.4c7.1-1.2,15.1-2.1,24-2.7l-1.8,1.2L104.6,30.6z"/>
			<path class="st0" d="M36.2,45.7l-2.6,1.6l6.7,10.9l-10.9,19L19.2,61.7l-2.5,1.7L27.9,80L17,98.9l-6.8-10.3l-1.8,1.2
				c-0.5-23,13.6-40.2,42.1-51c0.4-0.1,0.8-0.3,1.2-0.4l-9.6,16.8L36.2,45.7z"/>
			<path class="st0" d="M157.9,30.6l-11.1,19.6l-13.4-19.4l0.9-1.6l-2.6-1.4l-0.1,0.3l-0.3-0.4l-2.5,1.7l1.2,1.7l-9.5,17.7
				l-12.4-18.3l1.2-2.2l-0.6-0.3c8.1-0.4,26.4-0.9,48.5-1.6l-1.5,1L157.9,30.6z"/>
			<polygon class="st0" points="463.2,195.3 456.1,195.7 459.2,189.8 			"/>
			<path class="st0" d="M17.2,104.6l11.3,17l-11.8,21.1l2.6,1.5l11.1-19.8l13,19.6l-8.8,16.1c-7.6-4.7-13.8-10.4-18.5-17.1
				c-5.5-7.8-8.2-16.1-9.4-23.8l1.6,0.9L17.2,104.6z"/>
			<path class="st0" d="M56.9,164.5l-2.8,4.5c-6.2-2.1-11.9-4.5-17-7.4l8-14.8L56.9,164.5z"/>
			<path class="st0" d="M158.6,26.3c0.6,0,1.2,0,1.7,0l-0.8,1.4L158.6,26.3z"/>
			<path class="st0" d="M6.4,117.5c-1.6-13.1,1.2-23.9,1.9-26.3l7.1,10.7L6.4,117.5z"/>
			<path class="st0" d="M262.4,25.8l-10.5,18.7l-12.2-17.3l-2.4,1.7l13.1,18.5L240,65.7l-13.3-19.1l9.6-17.4l-2.6-1.4l-8.9,16
				l-12.1-17.5l0.6-1.1l-0.8-0.4c17.6-0.5,34.5-1.1,48.6-1.6l-0.3,0.2L262.4,25.8z"/>
			<path class="st0" d="M331.3,38.9l-12.1-17l2.1-3.7l-1.4-0.8c5.2-0.7,10.2-1.5,15.1-2.3l5.2,7.3L331.3,38.9z"/>
			<path class="st0" d="M338.4,14.7c2.3-0.4,4.5-0.7,6.7-1.1l-3.2,6L338.4,14.7z"/>
			<path class="st0" d="M368.2,15.6l-2.4,1.7l1.8,2.5L356.5,40l-12.7-17.9l5.1-9.3c4.1-0.7,8.1-1.3,11.7-1.9c4.8-0.8,9.2-1.5,13-2.1
				l-4.4,8L368.2,15.6z"/>
			<polygon class="st0" points="138.7,116.4 149.4,97.1 161.1,114.5 150.5,133.7 			"/>
			<path class="st0" d="M315.7,22.1l-11.4,20.4l-12.9-17.8l1.9-3.5l-0.6-0.3c7.6-0.8,15.3-1.8,22.9-2.8l-1.8,1.3L315.7,22.1z"/>
			<path class="st0" d="M289.2,21.6l-2.4,1.8l1.1,1.6l-9.7,18L266,25.6l1.3-2.3l-0.6-0.3c7.5-0.3,15.3-1,23.2-1.8l-0.4,0.8
				L289.2,21.6z"/>
			<path class="st0" d="M316.4,18c0.6-0.1,1.1-0.2,1.7-0.2l-0.8,1.5L316.4,18z"/>
			<path class="st0" d="M94.7,176.4l2.4-1.8l-9.5-13.3l9.1-16.1l13,16.9l-8.1,14.6l0.1,0.1c-7.7-0.3-14.9-1-21.7-1.9l6-10.7
				L94.7,176.4z"/>
			<path class="st0" d="M187.1,29.4l1.2-2.2l-2.6-1.5l-0.5,0.9l-2.4,1.7l0.8,1.2L173.3,48l-11.8-17.5l1.8-3.2l-1.8-1
				c2.7-0.1,5.5-0.2,8.3-0.2c13.1-0.4,26.9-0.8,40.3-1.1l-11.6,21L187.1,29.4z"/>
			<polygon class="st0" points="417.9,199.6 425.3,199.2 422,205.3 			"/>
			<polygon class="st0" points="491.7,151 485,141.7 490.5,131.6 501,131 507.2,139.7 501.3,150.5 			"/>
			<polygon class="st0" points="503.2,128.9 496.8,119.9 502.2,109.7 512,109.2 518.5,118.6 513.3,128.4 			"/>
			<polygon class="st0" points="504.9,150.3 509.1,142.4 514.3,149.7 			"/>
			<polygon class="st0" points="516.8,128.2 520.5,121.3 524.9,127.7 			"/>
			<polygon class="st0" points="377.4,95.9 374.9,100.6 371.9,96.3 			"/>
			<polygon class="st0" points="422.1,114.1 434.2,113.5 439.9,121.5 434,132.6 422.7,133.2 416.5,124.5 			"/>
			<polygon class="st0" points="471.9,90.1 478.5,99.4 473.2,109.3 462.5,109.9 455.2,99.6 459.9,90.9 			"/>
			<polygon class="st0" points="414.9,127.4 419.2,133.4 411.4,133.8 			"/>
			<polygon class="st0" points="456.8,140.1 452.2,133.7 460.5,133.2 			"/>
			<polygon class="st0" points="456.3,91.1 453.2,96.9 449.4,91.5 			"/>
			<polygon class="st0" points="437.7,113.3 444.6,112.9 441.5,118.6 			"/>
			<polygon class="st0" points="391.9,95 399.2,105.3 394.7,113.6 384.6,114.2 376.9,103.3 381,95.7 			"/>
			<polygon class="st0" points="491.6,129.5 495.2,122.8 499.6,129.1 			"/>
			<polygon class="st0" points="401.1,108 404.7,113.1 398.2,113.4 			"/>
			<polygon class="st0" points="476.9,130.3 470.4,121.1 475.6,111.2 486.5,110.6 493.2,120.1 488.1,129.7 			"/>
			<polygon class="st0" points="453.6,102.5 458.9,110.1 449.2,110.6 			"/>
			<polygon class="st0" points="494.8,117.1 490,110.4 498.7,109.9 			"/>
			<polygon class="st0" points="515.5,109 523.9,108.6 520.1,115.6 			"/>
			<polygon class="st0" points="476.7,109.1 480.5,102.1 485.1,108.7 			"/>
			<polygon class="st0" points="390.8,52.5 396.6,60.6 391.1,70.7 378.7,71.4 372.6,62.9 377.8,53.3 			"/>
			<polygon class="st0" points="499.8,107.9 488.7,108.5 482,99.2 487.4,89.2 497.5,88.5 504.7,98.8 			"/>
			<polygon class="st0" points="477,59.1 481.8,66.1 473,66.5 			"/>
			<polygon class="st0" points="428.9,50.2 425.1,57.3 420.5,50.7 			"/>
			<polygon class="st0" points="513.3,66.5 522.3,66 518.2,73.6 			"/>
			<polygon class="st0" points="500.3,201.1 496.4,195.6 503.4,195.3 			"/>
			<polygon class="st0" points="515.2,85.4 518.5,79.3 522.5,85 			"/>
			<polygon class="st0" points="471.8,166.3 477.3,174 467.4,174.6 			"/>
			<polygon class="st0" points="511.9,179.6 508.1,174.2 515,173.8 			"/>
			<polygon class="st0" points="499.7,86.4 493.5,77.6 499.1,67.2 509.7,66.6 516.6,76.5 511.7,85.7 			"/>
			<polygon class="st0" points="442.9,49.3 449,57.9 443.5,68 433.1,68.6 427,60 432.4,50 			"/>
			<polygon class="st0" points="461,88.8 465.3,80.8 470.5,88.2 			"/>
			<polygon class="st0" points="436.4,134.5 448.7,133.8 455.2,143 449.7,153.5 437.6,154.2 430.9,144.7 			"/>
			<polygon class="st0" points="374.3,53.5 370.7,60.2 366.3,54 			"/>
			<polygon class="st0" points="501,88.3 510.6,87.7 506.3,95.8 			"/>
			<polygon class="st0" points="471.8,68.6 483.2,68 490,77.8 485,87.3 474.1,88 466.9,77.9 			"/>
			<polygon class="st0" points="471.5,160.7 467.1,154.5 475,154 			"/>
			<polygon class="st0" points="331.7,85.5 321.3,104.4 308.8,86.5 318.9,67.9 			"/>
			<polygon class="st0" points="282.5,87.7 292.9,69.1 305.2,86.7 295,105.4 			"/>
			<polygon class="st0" points="429.3,147.6 434.1,154.4 425.3,154.9 			"/>
			<path class="st0" d="M584.1,90.1l-11.6-16.3l6.8-12.6l-2.6-1.4l-6.1,11.3l-13.1-18.4l1.9-3.5l-2.6-1.4l-1.2,2.2l-4.4-6.2
				c19.1,8.4,33.6,18.2,44.5,28.2l-1.4-0.7L584.1,90.1z"/>
			<path class="st0" d="M119.8,175.2c-7.9,1.1-12.7,1.8-12.9,1.8c-0.6,0-1.3,0-1.9-0.1l6.8-12.2L119.8,175.2z"/>
			<path class="st0" d="M113.4,161.9l10.9-19.6l12.1,17.3l-7.7,14.2l0.4,0.2c-2.2,0.3-4.2,0.5-6.1,0.8l0.2-0.2L113.4,161.9z"/>
			<polygon class="st0" points="418,27.4 422,20 426.9,26.9 			"/>
			<polygon class="st0" points="440.8,28.2 436.8,35.6 431.8,28.6 			"/>
			<path class="st0" d="M145.1,172.1c-4.7,0.5-9,1-12.9,1.5l6.1-11.2L145.1,172.1z"/>
			<polygon class="st0" points="391.1,28.8 395.5,20.7 400.8,28.2 			"/>
			<polygon class="st0" points="455,46.6 445.1,47.2 438.7,38.3 444.3,28 454.8,27.4 460.8,36 			"/>
			<path class="st0" d="M220.5,156.5l10-18.5l11.3,16.7l-5.1,9.2l2.6,1.5l4.4-7.9l5.7,8.5c-8.4-0.1-16.9,0.1-25.4,0.3l2.2-1.5
				L220.5,156.5z"/>
			<path class="st0" d="M150.8,139.4l11.8,17.1l-8,14.5c-2.1,0.2-4.1,0.4-6.1,0.6l-8.6-12.3L150.8,139.4z"/>
			<path class="st0" d="M278,166.9c-4.2-0.3-8.4-0.5-12.7-0.7l5.4-9.9L278,166.9z"/>
			<polygon class="st0" points="430,48.1 419.1,48.8 411.9,38.6 416.9,29.4 428.3,28.8 435.2,38.5 			"/>
			<path class="st0" d="M245.3,154.4l10.8-19.4l12.7,18.4l-6.2,11.3l2.6,1.4c-4.9-0.2-9.8-0.3-14.8-0.3l1.8-1.2L245.3,154.4z"/>
			<path class="st0" d="M196.7,167.3l2.5-1.7l-6.5-9.7l10.7-19l13.6,19.7l-4.4,8.1l2.6,1.4l3.6-6.8l4.7,6.8
				c-12.9,0.4-25.7,1.2-37.8,2.1l5.2-9.3L196.7,167.3z"/>
			<path class="st0" d="M171.4,169.4c-4.5,0.4-8.9,0.8-13.2,1.2l6.3-11.3L171.4,169.4z"/>
			<path class="st0" d="M176.6,137.4l12.6,18.7l-6.5,11.6l1.1,0.6c-3,0.2-6,0.5-9,0.7l-8.7-12.7L176.6,137.4z"/>
			<polygon class="st0" points="108.1,71.8 95.4,53.3 106.4,33.4 118.8,51.8 			"/>
			<polygon class="st0" points="135.5,76.5 147.5,94.3 136.8,113.6 124.6,95.9 			"/>
			<polygon class="st0" points="135.3,70.8 122.3,51.6 131.8,33.8 145.2,53.1 			"/>
			<polygon class="st0" points="135.1,116.6 124,136.7 111.6,119 122.9,98.8 			"/>
			<polygon class="st0" points="200.4,48.8 211.1,29.3 223.2,46.8 212.4,66.2 			"/>
			<polygon class="st0" points="109.6,116.2 97.2,98.5 108.4,77.6 121,96 			"/>
			<path class="st0" d="M283.2,133.4l12.5,18l-8.9,16.2c-1.6-0.2-3.3-0.3-4.9-0.4l-9.5-13.8L283.2,133.4z"/>
			<polygon class="st0" points="375.4,51.4 365,52.1 358.4,42.9 369.5,22.6 381.7,39.8 			"/>
			<polygon class="st0" points="133.6,73.7 122.7,93.1 110,74.6 120.7,54.6 			"/>
			<polygon class="st0" points="318.6,62.3 306.2,45.2 317.6,24.8 329.7,41.9 			"/>
			<polygon class="st0" points="292.6,63.5 280.1,45.7 289.8,27.6 302.7,45.4 			"/>
			<polygon class="st0" points="345.9,59.5 333.2,41.7 342.2,25.2 354.9,43.1 			"/>
			<polygon class="st0" points="266.4,64.9 253.8,47.1 264.3,28.5 276.6,45.9 			"/>
			<polygon class="st0" points="227.4,88 214.3,69 225.1,49.5 238.3,68.6 			"/>
			<polygon class="st0" points="254.6,86.8 241.9,68.5 252.2,50 264.8,67.8 			"/>
			<polygon class="st0" points="186.6,67.7 175.2,50.8 185.4,32.3 196.9,48.9 			"/>
			<path class="st0" d="M508.4,43.4L497.7,44l-7.1-10.2l4.6-8.5l4.6-0.2c3.5,1,7,2.1,10.5,3.3l3.4,5L508.4,43.4z"/>
			<path class="st0" d="M483.7,23.9l-2.8-4c3.9,1,7.9,2.1,12,3.2l-0.2,0.3L483.7,23.9z"/>
			<path class="st0" d="M515,29.9c0.2,0.1,0.3,0.1,0.5,0.2l-0.2,0.3L515,29.9z"/>
			<path class="st0" d="M553.9,53l-10.2,18.9l-11.9-17.3l8-14.8l-2.6-1.4L530,51.9l-12.7-18.6l1.1-2l-0.8-0.4
				c10.4,3.6,21.1,7.7,32,12.4l-1.7,1.2L553.9,53z"/>
			<path class="st0" d="M480.2,24.1l-9.9,0.5l3.5-6.5c1.4,0.3,2.9,0.7,4.4,1.1l-0.9,0.6L480.2,24.1z"/>
			<path class="st0" d="M598.5,110.4L586,92.9L596.6,73c5.6,5.2,10.2,10.5,14,15.5l-0.5-0.3L598.5,110.4z"/>
			<path class="st0" d="M61.3,171.2c-1.4-0.4-2.9-0.8-4.3-1.2l1.7-2.7L61.3,171.2z"/>
			<path class="st0" d="M441.9,26.1l-11.4,0.6l-6.9-9.7l3.7-6.8l-1.2-0.6c5.5,0.7,11.6,1.5,18,2.6l3,4.2L441.9,26.1z"/>
			<path class="st0" d="M417.6,8.6c2.1,0.2,4.4,0.5,6.7,0.7l-2.7,4.9L417.6,8.6z"/>
			<path class="st0" d="M612.8,184.3l16.4-32.1C626.3,165.5,620,176,612.8,184.3z"/>
			<path class="st0" d="M309,170.6c-6-1.1-12.4-2-19-2.7l7.6-13.8L309,170.6z"/>
			<path class="st0" d="M613.4,131.2l-12.9-18.1l11.8-22.4c3.6,5,6.4,9.7,8.6,14.1c1.3,2.5,2.4,5,3.4,7.3l-0.6-0.3L613.4,131.2z"/>
			<path class="st0" d="M457,25.3l-6.3-9.1l1.4-2.7c5.9,1.1,12.2,2.4,18.7,3.9l-4,7.4L457,25.3z"/>
			<path class="st0" d="M448.3,12.9c0.2,0,0.4,0.1,0.7,0.1l-0.2,0.5L448.3,12.9z"/>
			<path class="st0" d="M424,208l4.8-8.9l11.9-0.6l6,8.5l-4.5,8.4l1.7,0.9c-6.8-1.4-13.8-3-21.1-4.9l2.4-1.7L424,208z"/>
			<path class="st0" d="M414.4,199.8l6.1,8.4l-0.8,1.6l2.6,1.4l0.1-0.3l0.3,0.4c-3.9-1-7.9-2.1-12-3.3s-8.1-2.4-12-3.7l2.1-3.8
				L414.4,199.8z"/>
			<path class="st0" d="M384.3,199.4c-2.3-0.9-4.6-1.7-6.8-2.5l2.2-4.1L384.3,199.4z"/>
			<path class="st0" d="M626.9,150.2l-11.6-16.3l10.1-19c5.4,14.3,5.6,24.6,5.6,25c-0.2,2.6-0.4,5.1-0.8,7.6l-1.5-0.8L626.9,150.2z"
				/>
			<path class="st0" d="M377.8,190l-3.1,5.7c-6.4-2.5-12.1-4.9-17.1-7l8.4-15.5L377.8,190z"/>
			<path class="st0" d="M337.2,170.2l-3.5,6.5l2.6,1.4l2.8-5.2l7.7,10.8c-7.3-3.4-11.5-5.7-11.6-5.7c-6.2-2.7-13.5-4.8-21.5-6.5
				l10.6-19.5L337.2,170.2z"/>
			<path class="st0" d="M340.7,170l10-18.5l13.3,18.9l-9.2,17c-1.9-0.9-3.7-1.7-5.4-2.4l1.3-0.9L340.7,170z"/>
			<path class="st0" d="M381.3,189.8l4.6-8.5l14.6-0.9l4.5,6.2l-6.4,11.9l-8,0.4l0.1,2l6.8-0.3l-1.5,2.7c-3-1-5.9-2-8.7-3l1-0.7
				L381.3,189.8z"/>
			<path class="st0" d="M580.2,206.9l2.5-1.7l-2.9-4.2l10.1-19l10,14.4c-1.1,0.8-2.2,1.6-3.3,2.4c-8,5.6-16,9.4-22,11.9l3.5-6.7
				L580.2,206.9z"/>
			<path class="st0" d="M601,161l11.7,17.1l-6.9,13.4c-1.2,1.1-2.4,2.1-3.6,3.1L591.4,179L601,161z"/>
			<path class="st0" d="M563.6,183l12.7,18.1l-5.6,10.6l0.4,0.2c-3.8,1.4-6.1,2-6.2,2c-0.3,0.1-0.6,0.2-0.9,0.3l-9.7-13.6L563.6,183
				z"/>
			<path class="st0" d="M468.3,218.2l0.1-0.2l10.8-0.3l2.6,3.6l2.4-1.7l-1.4-1.9l8.6-0.2l-1.8,3.3l2.6,1.4l2.6-4.8l13.1-0.3l3.7,5.2
				c-16.4,0.5-35.1-0.5-56.4-4L468,218L468.3,218.2z"/>
			<path class="st0" d="M511.6,217l4.8-0.1l-1.3,2.4l2.6,1.4l2.1-3.9l14.1-0.3v-0.6l1.8,2.5l2.4-1.7L527.8,202l10.2-19l12.8,18
				l-8.6,16.4l2.7,1.4l7.9-15l8.2,11.5c-12.9,3.6-29.2,6.5-49.1,7.2l2.4-1.7L511.6,217z"/>
			<path class="st0" d="M453.3,216.4l-5.4,0.1v0.5c-1-0.2-2-0.4-3-0.6l3.6-6.8L453.3,216.4z"/>
			<polygon class="st0" points="160.8,70.4 148.8,53 159.8,33.4 171.7,50.9 			"/>
			<polygon class="st0" points="500.2,65.1 503.9,58.2 508.4,64.7 			"/>
			<polygon class="st0" points="495.5,46.1 502,55.4 496.7,65.3 485.4,65.9 478.5,56.1 483.5,46.9 			"/>
			<polygon class="st0" points="507.3,45.4 503.5,52.5 499,45.9 			"/>
			<polygon class="st0" points="467.7,45.8 458.6,46.4 462.7,38.7 			"/>
			<polygon class="st0" points="469,47.8 475,56.4 469.5,66.7 459.3,67.2 452.5,57.7 457.4,48.5 			"/>
			<polygon class="st0" points="441.5,47.4 433.6,47.9 437.1,41.3 			"/>
			<polygon class="st0" points="476.6,53.4 472.5,47.5 480,47.1 			"/>
			<polygon class="st0" points="489,36.8 494.2,44.2 484.7,44.8 			"/>
			<polygon class="st0" points="560.3,96.3 570.9,76.8 582.5,93.1 571.8,113.1 			"/>
			<polygon class="st0" points="573.8,115.9 584.4,95.8 596.9,113.3 586.1,133.9 			"/>
			<polygon class="st0" points="588,136.7 598.9,116.1 611.8,134.1 600.7,155.2 			"/>
			<polygon class="st0" points="450.6,54.9 446.4,49.1 453.9,48.7 			"/>
			<polygon class="st0" points="511.9,64.5 505.5,55.2 510.8,45.2 521.3,44.6 528.3,54.7 523.4,63.9 			"/>
			<polygon class="st0" points="545.6,74.7 555.8,55.7 568.9,74.1 558.4,93.5 			"/>
			<polygon class="st0" points="532,93.5 520.1,76.3 530.2,57.5 542.1,74.9 			"/>
			<polygon class="st0" points="279,87.9 268.4,106.8 256.5,89.6 266.7,70.6 			"/>
			<polygon class="st0" points="215.2,109.9 202.3,90.8 212.7,71.9 225.8,91 			"/>
			<polygon class="st0" points="278.5,48.7 291,66.4 280.6,85 268.3,67.6 			"/>
			<polygon class="st0" points="406,49.6 410.3,41.6 415.6,49 			"/>
			<polygon class="st0" points="253,89.8 242.3,109.7 229.3,90.8 240.2,71.4 			"/>
			<polygon class="st0" points="111.4,159.3 98.3,142.4 109.9,121.9 122.3,139.6 			"/>
			<polygon class="st0" points="210.8,69.2 200.4,88 188.5,70.5 198.8,51.7 			"/>
			<polygon class="st0" points="185,70.7 174.4,90 162.7,73.1 173.5,53.7 			"/>
			<polygon class="st0" points="613.7,136.9 625.4,153.2 614.2,175 602.6,158 			"/>
			<polygon class="st0" points="416.9,50.9 423.5,60.2 418.6,69.3 406.9,69.9 400.1,60.4 404.8,51.7 			"/>
			<polygon class="st0" points="389.4,50.6 379,51.2 383.7,42.5 			"/>
			<polygon class="st0" points="398.1,57.7 394.3,52.3 401.3,51.9 			"/>
			<polygon class="st0" points="317,65.2 306.8,83.8 294.5,66.2 304.6,48.1 			"/>
			<polygon class="st0" points="369.1,63.1 360.1,79.7 347.8,62.3 356.8,45.8 			"/>
			<polygon class="st0" points="344.3,62.5 333.3,82.6 320.5,64.9 331.6,44.6 			"/>
			<polygon class="st0" points="477.8,215.8 469.5,216 473.1,209.2 			"/>
			<polygon class="st0" points="363,128.8 376.5,147.4 365.6,167.5 352.3,148.6 			"/>
			<polygon class="st0" points="322.4,149.3 311.6,169.1 299.2,151.1 309.9,131.6 			"/>
			<polygon class="st0" points="336,130.5 348.8,148.8 338.8,167.3 325.9,149.1 			"/>
			<polygon class="st0" points="451.5,197.9 448.2,204 444.2,198.3 			"/>
			<polygon class="st0" points="401.9,198.4 406.8,189.4 413,197.9 			"/>
			<polygon class="st0" points="426.8,178.9 432.1,186.4 426.4,197.2 416.5,197.7 408.4,186.4 412,179.8 			"/>
			<polygon class="st0" points="404,180.3 408.4,180 406.4,183.7 			"/>
			<polygon class="st0" points="373.5,160 385.1,159.3 390.4,166.6 383.4,179.5 374.4,180 374.4,180 367.5,170.2 373.5,159.2 			"/>
			<polygon class="st0" points="163,117.3 174.7,134.6 164.2,153.6 152.4,136.5 			"/>
			<polygon class="st0" points="137,119.3 148.9,136.7 138,156.7 125.9,139.4 			"/>
			<polygon class="st0" points="188.6,115.7 201.5,134.3 190.8,153.2 178.2,134.5 			"/>
			<polygon class="st0" points="215.4,115.6 228.6,135.1 218.6,153.7 205,134.1 			"/>
			<polygon class="st0" points="268.7,112.5 281.3,130.6 270.4,150.5 257.7,132.1 			"/>
			<polygon class="st0" points="242.6,115.4 254.2,132.3 243.4,151.7 232.1,134.9 			"/>
			<polygon class="st0" points="295.4,111.1 307.9,128.9 297.3,148.4 284.8,130.4 			"/>
			<polygon class="st0" points="491.5,175.2 504.5,174.4 510.3,182.5 504.5,193.2 495,193.7 487.3,182.9 			"/>
			<polygon class="st0" points="513.8,182.3 518.6,173.6 528.5,173 528.4,171 519.7,171.5 524.1,163.4 536,180.2 529.6,192.2 
				529.6,191.9 521,192.4 			"/>
			<polygon class="st0" points="528.6,194 525.8,199.2 522.4,194.3 			"/>
			<polygon class="st0" points="586.4,139.7 599.1,158.2 589.5,176.2 576.8,157.9 			"/>
			<polygon class="st0" points="485.7,185.8 491.5,193.9 481.1,194.4 			"/>
			<polygon class="st0" points="517.4,192.6 508,193 512.2,185.3 			"/>
			<polygon class="st0" points="549,162.2 561.7,180.3 552.3,198 539.5,180 			"/>
			<polygon class="st0" points="464.6,197.2 471.2,206.5 466,216.1 456.9,216.3 450.2,206.7 455,197.7 			"/>
			<polygon class="st0" points="575.3,160.9 587.9,179.2 577.8,198.2 565.2,180.1 			"/>
			<polygon class="st0" points="147.1,55.9 159.2,73.3 149.2,91.4 137.1,73.6 			"/>
			<polygon class="st0" points="480,196.5 492.8,195.8 498.7,204 492.5,215.5 481.4,215.7 474.7,206.3 			"/>
			<polygon class="st0" points="506.6,215.1 496,215.4 500.6,206.8 			"/>
			<polygon class="st0" points="533,214.5 520.9,214.8 526.2,204.9 			"/>
			<polygon class="st0" points="506.9,195.1 518.8,194.5 524.3,202.2 517.5,214.9 510.2,215.1 502.2,203.8 			"/>
			<path class="st0" d="M78.2,175.7c0.4,0.1,0.8,0.1,1.3,0.2"/>
			<path class="st0" d="M154,172.1c1.2-0.1,2.4-0.2,3.6-0.4"/>
			<path class="st0" d="M103.7,177.9c0.3,0,0.5,0,0.8,0"/>
			<path class="st0" d="M145.8,173c1.1-0.1,2.3-0.2,3.4-0.4l0,0"/>
			<path class="st0" d="M54.6,170.2c0.6,0.2,1.3,0.4,1.9,0.6"/>
			<path class="st0" d="M130.5,174.8c0.4,0,0.7-0.1,1.1-0.1"/>
			<path class="st0" d="M107,27L107,27c-0.2,0-0.4,0-0.5,0"/>
			<path class="st0" d="M120.5,176.1c0.3,0,0.6-0.1,0.9-0.1"/>
			<path class="st0" d="M264.5,22l0.1-0.3l0.4,0.2h-0.1C264.8,22,264.7,22,264.5,22z"/>
			<path class="st0" d="M291.1,20c-0.2,0-0.4,0-0.6,0.1"/>
			<path class="st0" d="M348.9,12c-1,0.2-2.1,0.3-3.2,0.5"/>
			<path class="st0" d="M172.1,170.4c0.8-0.1,1.6-0.1,2.4-0.2"/>
			<path class="st0" d="M210.6,23.8L210.6,23.8C210.7,23.8,210.7,23.8,210.6,23.8L210.6,23.8z"/>
			<path class="st0" d="M80.2,30c-0.2,0-0.5,0.1-0.7,0.1"/>
			<path class="st0" d="M52.7,36.8L53,37c-0.1,0.1-0.3,0.1-0.4,0.2L52.7,36.8z"/>
			<path class="st0" d="M263.2,21.6l0.3,0.4c-0.3,0-0.6,0-0.9,0L263.2,21.6z"/>
			<path class="st0" d="M572.2,212.6c0.5-0.2,1.1-0.4,1.7-0.7"/>
			<path class="st0" d="M480,18.6c-0.3-0.1-0.5-0.1-0.8-0.2"/>
			<path class="st0" d="M495.6,22.8c-0.7-0.2-1.4-0.4-2.1-0.6"/>
			<path class="st0" d="M450.6,12.3c-0.4-0.1-0.7-0.1-1.1-0.2"/>
			<path class="st0" d="M501.5,24.6c-1.5-0.5-3-0.9-4.5-1.3"/>
			<path class="st0" d="M447.5,11.7c-1.4-0.2-2.8-0.5-4.1-0.7"/>
			<path class="st0" d="M606.4,192.2c1.6-1.4,3.1-2.9,4.7-4.6"/>
			<path class="st0" d="M417.6,8.6c-1.3-0.1-2.5-0.2-3.7-0.4l-0.1,0.1l6.3,8.9l-5.6,10.3L404.4,28l-7.3-10.3l5.2-9.6l-1.6-0.9
				c-0.4,0-0.9,0-1.3-0.1l-4.2,7.8L389.4,7c-0.2,0-0.3,0-0.5,0c-0.1,0-0.2,0-0.3,0l-1.9,1.4l6.8,9.6l-5.9,10.9l-9.6,0.5l-6.9-9.7
				l5.2-9.5l-2.4-1.3c-0.1,0-0.2,0-0.3,0l-4.4,8l-1-1.4l-2.4,1.7l1.8,2.5l-11.1,20.2L343.8,22l5.1-9.3c-1.2,0.2-2.5,0.4-3.7,0.6
				l-3.2,6l-3.5-4.9c-1.1,0.2-2.2,0.3-3.3,0.5l5.2,7.3l-9,16.4l-12.1-17l2.1-3.7l-1.4-0.8c-0.6,0.1-1.2,0.2-1.8,0.3l-0.8,1.5
				l-0.9-1.2c-0.3,0-0.6,0.1-0.9,0.1l-1.8,1.3l1.9,2.7l-11.4,20.4l-12.9-17.8l1.9-3.5l-0.6-0.3c-0.9,0.1-1.9,0.2-2.8,0.3l-0.4,0.8
				l-0.3-0.4l-2.4,1.8l1.1,1.6l-9.7,18L266,25.6l1.3-2.3l-0.6-0.3c-0.6,0-1.2,0.1-1.7,0.1c-1.3,0.1-2.6,0.1-4,0.2l-0.3,0.2l1.7,2.4
				l-10.5,18.7l-12.2-17.3l-2.4,1.7l13.1,18.5L240,65.7l-13.3-19.1l9.6-17.4l-2.6-1.4l-8.9,16l-12.1-17.5l0.6-1.1l-0.8-0.4
				c-0.8,0-1.6,0-2.4,0.1L198.5,46l-11.4-16.6l1.2-2.2l-2.6-1.5l-0.5,0.9l-2.4,1.7l0.8,1.2L173.3,48l-11.8-17.5l1.8-3.2l-1.8-1
				c-0.4,0-0.7,0-1.1,0l-0.8,1.4l-0.9-1.4c-0.5,0-1,0-1.4,0l-1.5,1l2.2,3.3l-11.1,19.6l-13.4-19.4l0.9-1.6l-2.6-1.4l-0.1,0.3
				l-0.3-0.4l-2.5,1.7l1.2,1.7l-9.5,17.7l-12.4-18.3l1.2-2.2l-0.6-0.3c-0.6,0-1.2,0.1-1.7,0.1s-0.9,0.1-1.4,0.1l-1.8,1.2l0.8,1.2
				l-11.1,20L81.3,32.9l0.9-1.6l-0.7-0.4c-0.9,0.2-1.8,0.3-2.7,0.5l-12.1,21L56.4,37.2l-0.8,0.6l10.6,15.6l-6.5,11.4l2.6,1.5
				L68,56.2l6.5,9.6l0.8-0.6l-6.8-10l11.1-19.4l12.2,17.8l-6.2,11.3l2.6,1.5l5.5-9.9L106.4,75L95.2,96l-0.1-0.1l-2.5,1.7l15.3,21.8
				l-11.7,20.7l-0.2-0.3l-2.4,1.8l1,1.3l-9,16l-11.5-16.1l-0.3,0.2l0.3-0.5l-2.5-1.6l-13.1,21L46.7,144l8.5-15.6l-2.6-1.4l-7.7,14
				L32,121.5l10.7-19.2l10,15l2.5-1.7L44.4,99.4l7.9-14.2l-2.6-1.5l-7.2,12.8L31.4,79.9l10.8-18.8l7.5,12.2l2.6-1.6l-8.4-13.6
				l11.4-19.9l-1.2-0.7c-0.8,0.3-1.6,0.6-2.4,0.8l-9.6,16.8l-5.8-9.5l-2.6,1.6l6.7,10.9l-10.9,19L19.2,61.7l-2.5,1.7L27.9,80
				L17,98.9l-6.8-10.3l-1.8,1.2c0,0.2,0,0.4,0,0.6v0.1v0.1c0,0-0.1,0.2-0.2,0.5l7.1,10.7l-9,15.6c0.1,0.6,0.2,1.2,0.3,1.8l1.6,0.9
				l8.9-15.6l11.3,17l-11.8,21.1l2.6,1.5l11.1-19.8l13,19.6L34.5,160c0.8,0.5,1.7,1,2.6,1.5l8-14.8l11.7,17.7l-2.8,4.5
				c1,0.3,2,0.6,3,0.9l1.7-2.7l2.6,3.9c1.4,0.4,2.8,0.7,4.3,1.1l-5.2-7.8l11.9-19.2L84,161.4l-7.3,12.9c1,0.2,2.1,0.3,3.2,0.5
				l6-10.7l8.7,12.1l2.4-1.8l-9.5-13.3l9.1-16.1l13,16.9l-8.1,14.6l0.1,0.1c1.1,0,2.1,0.1,3.2,0.1l6.8-12.2l8,10.4
				c1-0.1,2-0.3,3.1-0.4l0.2-0.2l-9.8-12.7L124,142l12.1,17.3l-7.7,14.2l0.4,0.2c1-0.1,2.1-0.3,3.2-0.4l6.1-11.2l6.8,9.7
				c1.1-0.1,2.3-0.2,3.4-0.4l-8.6-12.3l10.9-20l11.8,17.1l-8,14.5c1.2-0.1,2.4-0.2,3.6-0.4l6.3-11.3l6.9,10.1
				c1.1-0.1,2.3-0.2,3.4-0.3l-8.7-12.7l10.5-19l12.6,18.7l-6.5,11.6l1.1,0.6c0.7-0.1,1.4-0.1,2-0.2l5.2-9.3l5.7,8.4l2.5-1.7
				l-6.5-9.7l10.7-19l13.6,19.7l-4.4,8.1l2.6,1.4l3.6-6.8l4.7,6.8c0.1,0,0.2,0,0.4,0l2.2-1.5l-5.7-8.2l10-18.5l11.3,16.7l-5.1,9.2
				l2.6,1.5l4.4-7.9l5.7,8.5c0.4,0,0.7,0,1.1,0l1.8-1.2l-6.9-10.2l10.8-19.4l12.7,18.4l-6.2,11.3l2.6,1.4h0.1l5.4-9.9l7.3,10.6
				c1.3,0.1,2.6,0.2,3.8,0.3l-9.5-13.8l10.9-19.9l12.5,18l-8.9,16.2c1.1,0.1,2.2,0.2,3.2,0.3l7.6-13.8l11.4,16.5
				c1.6,0.3,3.2,0.6,4.7,0.9l10.6-19.5l12.9,18.2l-3.5,6.5l2.6,1.4l2.8-5.2l7.7,10.8c0.8,0.4,1.7,0.8,2.6,1.2l1.3-0.9l-10-14.1
				l10-18.5l13.3,18.9l-9.2,17c0.9,0.4,1.8,0.8,2.8,1.2l8.4-15.5l11.8,16.8l-3.1,5.7c0.9,0.4,1.9,0.7,2.8,1.1l2.2-4.1l4.6,6.6
				c0.9,0.3,1.9,0.7,2.8,1l1-0.7l-6.9-9.8l4.6-8.5l14.6-0.9l4.5,6.2l-6.4,11.9l-8,0.4l0.1,2l6.8-0.3l-1.5,2.7c1,0.3,1.9,0.6,2.9,1
				l2.1-3.8l13.5-0.7l6.1,8.4l-0.8,1.6l2.6,1.4l0.1-0.3l0.3,0.4h0.1l2.4-1.7l-1-1.1l4.8-8.9l11.9-0.6l6,8.5l-4.5,8.4l1.7,0.9
				c0.4,0.1,0.7,0.1,1.1,0.2l3.6-6.8l4.8,6.7l-5.4,0.1v0.5c2.5,0.5,5,0.9,7.4,1.3L468,218l0.3,0.2l0.1-0.2l10.8-0.3l2.6,3.6l2.4-1.7
				l-1.4-1.9l8.6-0.2l-1.8,3.3l2.6,1.4l2.6-4.8l13.1-0.3l3.7,5.2c0,0,0,0,0.1,0l2.4-1.7l-2.6-3.6l4.8-0.1l-1.3,2.4l2.6,1.4l2.1-3.9
				l14.1-0.3v-0.6l1.8,2.5l2.4-1.7L527.8,202l10.2-19l12.8,18l-8.6,16.4l2.7,1.4l7.9-15l8.2,11.5c1-0.3,2.1-0.6,3.1-0.9l-9.7-13.6
				l9.3-17.7l12.7,18.1l-5.6,10.6l0.4,0.2c1.1-0.4,2.3-0.9,3.6-1.4l3.5-6.7l2,2.9l2.5-1.7l-2.9-4.2l10.1-19l10,14.4
				c0.8-0.6,1.6-1.2,2.4-1.9l-11-15.4l9.5-18l11.7,17.1l-6.9,13.4c2.4-2.2,4.8-4.6,7-7.2l16.4-32.1c0.3-1.5,0.6-3,0.9-4.6l-1.5-0.8
				l-1.7,3.3l-11.6-16.3l10.1-19c-0.4-0.9-0.7-1.9-1.1-2.8l-0.6-0.3l-10.3,19.4L600.4,113l11.8-22.4c-0.5-0.7-1.1-1.4-1.6-2.2
				l-0.5-0.3l-11.6,22.1L586,92.9L596.6,73c-0.4-0.3-0.7-0.7-1.1-1l-1.4-0.7L584,90.1l-11.6-16.3l6.8-12.6l-2.6-1.4l-6.1,11.3
				l-13.1-18.4l1.9-3.5l-2.6-1.4l-1.2,2.2l-4.4-6.2c-0.3-0.1-0.5-0.2-0.7-0.3c-0.3-0.1-0.5-0.2-0.8-0.3l-1.7,1.2L554,53l-10.2,18.9
				l-11.9-17.3l8-14.8l-2.6-1.4l-7.2,13.5l-12.7-18.6l1.1-2l-0.8-0.4c-0.7-0.2-1.3-0.5-2-0.7l-0.2,0.3l-0.3-0.5
				c-1.6-0.5-3.1-1.1-4.7-1.6l3.4,5l-5.3,9.9L497.7,44l-7.1-10.2l4.6-8.5l4.6-0.2c-2.3-0.7-4.6-1.3-6.8-2l-0.2,0.3l-9,0.5l-2.8-4
				c-0.9-0.2-1.8-0.5-2.7-0.7l-0.9,0.6l3,4.3l-9.9,0.5l3.5-6.5c-1-0.2-2-0.5-3-0.7l-4,7.4l-9.8,0.5l-6.3-9.1l1.4-2.7
				c-1-0.2-2.1-0.4-3.1-0.6l-0.2,0.5l-0.4-0.6c-1.4-0.2-2.8-0.5-4.2-0.7l3,4.2l-5.2,9.7l-11.4,0.6l-6.9-9.7l3.7-6.8l-1.2-0.6
				c-0.6-0.1-1.2-0.1-1.8-0.2l-2.7,4.9L417.6,8.6z M511.9,43.1l3.7-6.9l4.4,6.4L511.9,43.1z M425.3,199.2l-3.2,6l-4.1-5.7
				L425.3,199.2z M382.3,181.5l-3,5.5l-3.6-5.1L382.3,181.5z M30.1,118.7l-11.2-17l10.8-18.9l11.1,16.7L30.1,118.7z M453.5,25.5
				l-8,0.4l3.6-6.7L453.5,25.5z M488.7,31l-3.6-5.2l6.6-0.3L488.7,31z M487.1,34l-5.9,11l-9.9,0.6l-6.9-9.9l4.9-9.1l12.4-0.6
				L487.1,34z M462.4,33l-4-5.7l7.3-0.4L462.4,33z M408.4,38.8l-5.9,11l-9.5,0.6l-7.7-10.8l4.8-8.8l12.2-0.6L408.4,38.8z M405.8,30
				l7.6-0.4l-3.4,6.3L405.8,30z M383.3,36.9l-3.9-5.5l7.1-0.4L383.3,36.9z M385.3,137.3l11.5-0.6l5.5,7.8l-6.6,12.3l-8.5,0.5
				l-7.3-10L385.3,137.3z M378,144.5l-4.7-6.5l8.5-0.5L378,144.5z M398.1,158.6l13.7-0.8l4.9,6.9l-7.1,13.3l-7,0.4l-8.7-12
				L398.1,158.6z M391.9,163.7l-3.3-4.6l6-0.4L391.9,163.7z M429.9,197l4.2-7.8l5.2,7.4L429.9,197z M476.5,196.6l-3.7,6.9l-4.6-6.5
				L476.5,196.6z M435.6,186.2l4.3-8l10.7-0.6l6.7,9.5l-4.7,8.8l-9.8,0.5L435.6,186.2z M456.1,195.7l3.2-5.9l4,5.6L456.1,195.7z
				 M496.4,195.6l7-0.4l-3.1,5.8L496.4,195.6z M467.4,174.6l4.4-8.2l5.5,7.7L467.4,174.6z M515,173.8l-3.1,5.8l-3.8-5.4L515,173.8z
				 M511.7,85.7l-12,0.7l-6.2-8.8l5.6-10.4l10.6-0.5l6.9,9.9L511.7,85.7z M518.5,79.3l4,5.7l-7.3,0.4L518.5,79.3z M522.3,66
				l-4.1,7.6l-4.9-7.1L522.3,66z M481.8,66.1l-8.9,0.5l4-7.4L481.8,66.1z M432.4,50l10.5-0.6l6.1,8.5L443.5,68l-10.3,0.5L427,60
				L432.4,50z M425.1,57.3l-4.6-6.5l8.5-0.5L425.1,57.3z M377.8,53.3l12.9-0.8l5.8,8.1L391,70.7l-12.4,0.6l-6-8.5L377.8,53.3z
				 M370.7,60.2l-4.4-6.2l8-0.5L370.7,60.2z M308.8,86.5L319,67.8l12.7,17.6l-10.4,18.9L308.8,86.5z M305.2,86.7L295,105.4
				l-12.5-17.7l10.4-18.6L305.2,86.7z M425.3,154.9l3.9-7.3l4.8,6.8L425.3,154.9z M475,154l-3.6,6.6l-4.4-6.2L475,154z M430.9,144.7
				l5.5-10.2l12.3-0.7l6.5,9.2l-5.6,10.5l-12,0.7L430.9,144.7z M466.9,77.9l5-9.3l11.3-0.6l6.9,9.8l-5.1,9.5L474.1,88L466.9,77.9z
				 M470.5,88.2l-9.6,0.6l4.3-8L470.5,88.2z M510.6,87.7l-4.3,8.1l-5.2-7.5L510.6,87.7z M504.7,98.8l-4.9,9.1l-11.1,0.6l-6.6-9.3
				l5.3-10l10.2-0.6L504.7,98.8z M381,95.7l10.9-0.7l7.3,10.3l-4.5,8.3l-10.1,0.6l-7.7-10.9L381,95.7z M374.9,100.6l-3-4.3l5.5-0.3
				L374.9,100.6z M411.4,133.8l3.5-6.4l4.3,6L411.4,133.8z M460.5,133.2l-3.7,6.9l-4.6-6.4L460.5,133.2z M416.5,124.5l5.6-10.4
				l12.1-0.7l5.8,8.1l-6,11.1l-11.2,0.6L416.5,124.5z M501.3,150.5l-9.7,0.6l-6.6-9.3l5.4-10.1L501,131l6.2,8.6L501.3,150.5z
				 M509.1,142.4l5.2,7.3l-9.4,0.6L509.1,142.4z M513.3,128.4l-10.1,0.5l-6.4-9l5.4-10.1l9.8-0.5l6.5,9.4L513.3,128.4z M520.5,121.3
				l4.5,6.4l-8.2,0.4L520.5,121.3z M459.9,90.9l12-0.7l6.6,9.3l-5.3,9.9l-10.8,0.6l-7.3-10.3L459.9,90.9z M453.2,96.9l-3.8-5.4
				l6.9-0.4L453.2,96.9z M449.2,110.6l4.4-8.1l5.4,7.6L449.2,110.6z M498.7,109.9l-3.9,7.2l-4.8-6.7L498.7,109.9z M480.5,102.1
				l4.7,6.5l-8.4,0.5L480.5,102.1z M523.9,108.6l-3.8,7.1l-4.6-6.6L523.9,108.6z M499.6,129.1l-8.1,0.4l3.6-6.7L499.6,129.1z
				 M488.1,129.7l-11.1,0.6l-6.6-9.3l5.3-9.9l10.9-0.6l6.8,9.5L488.1,129.7z M444.6,112.9l-3.1,5.7l-3.8-5.3L444.6,112.9z
				 M404.7,113.1l-6.5,0.4l2.9-5.4L404.7,113.1z M448.1,112.7l12.2-0.7l6.6,9.2l-5.3,9.9l-10.7,0.6l-7.4-10.4L448.1,112.7z
				 M423.2,112.1l4.3-8l5.3,7.5L423.2,112.1z M472.1,111.4l-3.7,6.9l-4.6-6.5L472.1,111.4z M473.4,130.5l-8.3,0.4l3.7-6.9
				L473.4,130.5z M512.1,130.4l-3.4,6.3l-4.2-5.9L512.1,130.4z M483.1,139l-4.8-6.7l8.6-0.5L483.1,139z M437.5,132.4l4.4-8.2
				l5.4,7.6L437.5,132.4z M414.5,121.8l-4.9-6.9l8.9-0.5L414.5,121.8z M370.6,114.9l4.7-8.7l5.8,8.1L370.6,114.9z M395.4,94.8
				l9.8-0.6l-4.4,8.1L395.4,94.8z M408.7,94l11.2-0.7l5.7,8l-5.9,10.9l-11.4,0.6l-5.5-7.8L408.7,94z M382.1,93.6l3.8-7l4.6,6.5
				L382.1,93.6z M423.4,93.1l6.8-0.4l-3.1,5.7L423.4,93.1z M433.7,92.5l12.1-0.7l5.7,8.1l-5.9,11l-9.3,0.5l-7.3-10.2L433.7,92.5z
				 M409.8,91.9l3.9-7.2l4.8,6.7L409.8,91.9z M415.3,81.8l5.7-10.6l10-0.5l6.3,8.9l-5.9,11l-9.3,0.6L415.3,81.8z M439.2,82.3
				l5.3,7.5l-9.7,0.6L439.2,82.3z M483.9,89.4l-3.8,7.1l-4.7-6.5L483.9,89.4z M506.6,101.5l4,5.8l-7.3,0.4L506.6,101.5z M532.4,99.2
				l12.9,18.6L535,136.9l-13-18.5L532.4,99.2z M547.2,120.6l11.7,16.8l-10.2,19.1l-11.8-16.8L547.2,120.6z M533.4,139.8l-9.7,17.9
				l-4.5-6.3l7.3-0.4l-0.1-2l-8.6,0.5l-7.2-10.1l5-9.2l10.6-0.6L533.4,139.8z M479.6,151.8l3.8-7.1l4.7,6.6L479.6,151.8z M476.1,152
				l-10.4,0.6l-7-9.8l5.2-9.8l10.8-0.6l6.7,9.5L476.1,152z M500.2,152.5l-3.2,6l-4-5.6L500.2,152.5z M453.2,153.3l4-7.5l5,7
				L453.2,153.3z M428.9,142l-4.8-6.8l8.8-0.5L428.9,142z M386.4,135.2l4-7.5l5,7L386.4,135.2z M392.1,124.7l5-9.3l9-0.5l6.9,9.7
				l-5,9.3l-8.9,0.5L392.1,124.7z M390.1,122l-4.2-5.9l7.6-0.4L390.1,122z M362.7,123.2l-13-18l10.8-19.9l12.9,18.2L362.7,123.2z
				 M346.1,105.5l-10.5,19.3l-12.4-17.7l10.4-19L346.1,105.5z M335.2,85.3l11-20.1l12.3,17.4l-10.8,20L335.2,85.3z M362.1,82.4
				l4.6-8.4l9.9-0.5l7.4,10.4l-5.4,9.9l-8,0.5L362.1,82.4z M380.1,73.3l9.9-0.5l-4.4,8.2L380.1,73.3z M393.5,72.6l11.2-0.6l7.1,9.9
				l-5.5,10.2L394,92.9l-6.5-9.2L393.5,72.6z M408.2,71.9l9.2-0.5l-4.1,7.7L408.2,71.9z M367.7,71.9l3.3-6.1l4.1,5.7L367.7,71.9z
				 M398.5,63.4l4.8,6.7l-8.7,0.4L398.5,63.4z M442.4,70.1l-3.5,6.5l-4.3-6.1L442.4,70.1z M445.9,69.9l11.2-0.6l6.2,8.7l-5.8,11
				l-9.4,0.6l-7.2-10.2L445.9,69.9z M460.7,69.2l7.7-0.4l-3.4,6.4L460.7,69.2z M422.1,69.1l3.4-6.2l4.1,5.8L422.1,69.1z M450.9,60.6
				l4.8,6.8l-8.8,0.5L450.9,60.6z M495.6,67.4l-4,7.5l-4.9-7L495.6,67.4z M496.2,86.6l-7.7,0.5l3.5-6.5L496.2,86.6z M523.8,86.9
				l6.6,9.5l-5.6,10.3v-0.3l-10.7,0.6l-6-8.5l5.9-11L523.8,86.9z M534,96.2l10-18.6l12.9,18.8l-9.9,18.4L534,96.2z M558.7,99.2
				l11.5,16.8l-9.8,18.3l-11.7-16.8L558.7,99.2z M572.2,118.8l12.4,18.1l-9.6,18.3l-12.5-18L572.2,118.8z M573.3,158.1l-10.1,19.2
				l-12.6-18.1l10.2-19.1L573.3,158.1z M547.1,159.4l-9.5,17.8l-11.9-16.8l9.7-17.9L547.1,159.4z M522.1,160.7l-6,11l-9.4,0.6
				l-7.8-11l4.8-9l11.9-0.7L522.1,160.7z M503.2,172.5l-10.6,0.6l4.8-8.8L503.2,172.5z M489.1,173.3l-8.2,0.5l-7.4-10.4l5.1-9.6
				l10.9-0.6l5.9,8.3L489.1,173.3z M463.9,174.8l-11.2,0.7l-6.5-9.1l5.8-10.9l11.5-0.7l6.3,8.9L463.9,174.8z M424.2,157l11.2-0.7
				l7.2,10.2l-5.2,9.8l-8.5,0.5l-8.7-12.3L424.2,157z M418.3,161.7l-3-4.2l5.4-0.3L418.3,161.7z M413.1,177.7l5.6-10.3l6.8,9.6
				L413.1,177.7z M462.8,176.8l-3.9,7.2l-4.8-6.7L462.8,176.8z M444.7,169.3l4.5,6.4l-8.2,0.5L444.7,169.3z M399.2,156.5l5-9.3
				l6.2,8.7L399.2,156.5z M448.6,155.6l-4.3,8l-5.3-7.4L448.6,155.6z M487.9,175.4l-2.6,4.8l-3.2-4.5L487.9,175.4z M483.8,183.1
				l-6.2,11.5l-10.8,0.5l-5.9-8.3l5.5-10.2l12.4-0.7L483.8,183.1z M433.7,183.5l-3.3-4.7l6.1-0.4L433.7,183.5z M387,179.3l5.4-10
				l6.7,9.3L387,179.3z M374.2,158l4.3-7.9l5.3,7.3L374.2,158z M400.4,136.4l6.4-0.3l-2.9,5.4L400.4,136.4z M410.3,135.9l10.2-0.6
				l6.8,9.6l-5.5,10.2l-7.9,0.5l-8.1-11.4L410.3,135.9z M371.9,136l-7.3-10.1l4.9-9v0.1l12.9-0.7l6.1,8.7l-5.6,10.4L371.9,136z
				 M361.1,126.1l-10.7,19.7l-12.8-18.3l10.5-19.4L361.1,126.1z M334.1,127.8L324,146.4l-12.5-17.7l10.2-18.6L334.1,127.8z
				 M309.5,125.9L297,108.1l10.2-18.7l12.6,17.9L309.5,125.9z M293.4,108.3l-10.5,19.3l-12.6-18.1l10.6-18.9L293.4,108.3z
				 M266.8,109.7l-11,19.6l-11.6-16.9l10.7-19.9L266.8,109.7z M240.7,112.6l-10.5,19.5L217,112.7l10.6-19L240.7,112.6z M213.5,112.8
				l-10.4,18.5l-12.9-18.6l10.5-19L213.5,112.8z M176.4,92.8L187,73.5L198.8,91l-10.5,19L176.4,92.8z M172.8,93l-10.1,18.5L151,94.2
				l10.1-18.1L172.8,93z M186.7,112.9l-10.4,18.8l-11.7-17.4l10.2-18.6L186.7,112.9z M161.1,114.5l-10.5,19.3l-11.9-17.3l10.7-19.3
				L161.1,114.5z M136.8,113.6l-12.2-17.8l10.9-19.4l12,17.8L136.8,113.6z M137.1,73.6l10-17.7l12.1,17.4l-10.1,18.1L137.1,73.6z
				 M162.7,73.1l10.8-19.4l11.5,17L174.4,90L162.7,73.1z M188.5,70.5l10.3-18.8l12,17.5L200.4,88L188.5,70.5z M212.7,71.9l13.1,19
				l-10.6,18.9l-12.9-19L212.7,71.9z M229.3,90.8l10.9-19.4L253,89.8l-10.7,19.9L229.3,90.8z M256.5,89.6l10.2-19L279,87.9
				l-10.5,18.9L256.5,89.6z M268.3,67.6l10.2-19L291,66.4L280.6,85L268.3,67.6z M294.5,66.2l10.1-18.1L317,65.2l-10.2,18.6
				L294.5,66.2z M320.5,64.9l11.1-20.3l12.7,17.9l-11,20.1L320.5,64.9z M347.8,62.3l9-16.5l12.3,17.3l-9,16.6L347.8,62.3z
				 M394.3,52.3l7-0.4l-3.2,5.8L394.3,52.3z M404.8,51.7l12.1-0.7l6.6,9.3l-4.9,9.1L406.9,70l-6.8-9.5L404.8,51.7z M379,51.2
				l4.7-8.7l5.7,8L379,51.2z M410.3,41.6l5.3,7.4l-9.6,0.6L410.3,41.6z M453.9,48.7l-3.4,6.3l-4.1-5.8L453.9,48.7z M457.4,48.5
				l11.6-0.7l6,8.6l-5.6,10.4l-10.2,0.5l-6.8-9.6L457.4,48.5z M433.6,47.9l3.6-6.6l4.4,6.2L433.6,47.9z M480,47.1l-3.4,6.3l-4.1-5.9
				L480,47.1z M483.5,46.9l12-0.7l6.5,9.3l-5.3,9.9L485.4,66l-6.8-9.7L483.5,46.9z M503.9,58.2l4.5,6.5l-8.2,0.4L503.9,58.2z
				 M499,45.9l8.3-0.5l-3.8,7L499,45.9z M458.6,46.4l4.1-7.7l5,7.1L458.6,46.4z M494.2,44.2l-9.5,0.6l4.3-8L494.2,44.2z M528.3,54.7
				l-4.9,9.2l-11.5,0.6l-6.5-9.3l5.3-10l10.5-0.6L528.3,54.7z M542.1,74.9l-10,18.6l-11.9-17.1l10.1-18.8L542.1,74.9z M568.9,74.1
				l-10.5,19.4l-12.9-18.8l10.2-19L568.9,74.1z M582.5,93.1l-10.7,20l-11.5-16.8l10.5-19.5L582.5,93.1z M596.9,113.3l-10.8,20.6
				l-12.3-18l10.7-20L596.9,113.3z M611.8,134.1l-11.1,21L588,136.7l10.9-20.6L611.8,134.1z M602.6,158l11.2-21.1l11.6,16.3
				L614.2,175L602.6,158z M589.5,176.2l-12.7-18.3l9.6-18.2l12.6,18.5L589.5,176.2z M565.2,180.1l10.1-19.1l12.7,18.3l-10.1,19
				L565.2,180.1z M539.5,180l9.5-17.8l12.6,18.1l-9.3,17.7L539.5,180z M529.6,191.9l-8.6,0.4l-7.1-10.1l4.7-8.7l10-0.6l-0.1-2
				l-8.7,0.5l4.4-8.1l11.9,16.8l-6.4,12L529.6,191.9z M508,193l4.2-7.8l5.2,7.3L508,193z M495,193.7l-7.7-10.8l4.2-7.7l13.1-0.8
				l5.8,8.1l-5.8,10.7L495,193.7z M491.5,193.9l-10.3,0.5l4.6-8.6L491.5,193.9z M525.8,199.2l-3.5-4.9l6.3-0.3L525.8,199.2z
				 M520.9,214.8l5.3-9.9l6.8,9.6L520.9,214.8z M510.2,215.1l-8-11.2l4.7-8.7l11.9-0.6l5.5,7.7l-6.8,12.7L510.2,215.1z M496,215.4
				l4.7-8.6l6,8.4L496,215.4z M481.4,215.7l-6.7-9.4l5.3-9.8l12.8-0.7l5.9,8.2l-6.2,11.4L481.4,215.7z M469.5,216l3.6-6.8l4.7,6.6
				L469.5,216z M450.2,206.7l4.8-9l9.6-0.5l6.6,9.3l-5.1,9.6l-9.1,0.2L450.2,206.7z M444.2,198.3l7.3-0.4l-3.3,6.1L444.2,198.3z
				 M406.8,189.4l6.1,8.5l-11,0.6L406.8,189.4z M408.4,186.4l3.6-6.6l14.8-0.9l5.3,7.5l-5.7,10.8l-9.8,0.5L408.4,186.4z M408.4,180
				l-2,3.7l-2.5-3.4L408.4,180z M367.5,170.2l5.9-11v0.8l11.6-0.7l5.3,7.3l-6.9,12.9l-9,0.5l0,0L367.5,170.2z M352.3,148.6
				l10.7-19.7l13.4,18.6l-10.8,20.1L352.3,148.6z M325.9,149.1l10.1-18.6l12.8,18.3l-10,18.5L325.9,149.1z M299.2,151.1l10.7-19.5
				l12.5,17.7l-10.7,19.8L299.2,151.1z M284.8,130.4l10.5-19.3l12.6,17.8l-10.7,19.5L284.8,130.4z M257.7,132.1l11-19.7l12.6,18.1
				l-10.9,19.9L257.7,132.1z M232.1,134.9l10.5-19.5l11.6,16.9l-10.8,19.4L232.1,134.9z M205,134.1l10.4-18.5l13.2,19.5l-10,18.6
				L205,134.1z M178.2,134.5l10.4-18.8l12.9,18.6l-10.7,19L178.2,134.5z M152.4,136.5l10.5-19.2l11.7,17.4l-10.5,19L152.4,136.5z
				 M125.9,139.4l11.2-20.1l11.9,17.3l-10.9,20L125.9,139.4z M109.9,121.9l12.4,17.7l-11,19.7l-13-16.9L109.9,121.9z M111.6,119
				L123,98.8l12.2,17.8L124,136.7L111.6,119z M108.4,77.6L121,96l-11.4,20.2L97.2,98.5L108.4,77.6z M110,74.6l10.7-20.1l12.9,19.1
				L122.7,93L110,74.6z M118.8,51.8l-10.7,20.1L95.4,53.3l11-20L118.8,51.8z M145.2,53.1l-10,17.7l-12.9-19.2l9.5-17.8L145.2,53.1z
				 M171.7,50.9l-10.8,19.5L148.8,53l11-19.6L171.7,50.9z M196.9,48.9l-10.3,18.8l-11.5-16.9l10.3-18.5L196.9,48.9z M223.2,46.8
				l-10.7,19.5l-12-17.5l10.7-19.5L223.2,46.8z M238.3,68.6L227.4,88l-13.1-19l10.8-19.5L238.3,68.6z M252.2,50l12.6,17.8l-10.2,19
				l-12.7-18.4L252.2,50z M276.6,45.9l-10.2,19l-12.5-17.7l10.5-18.7L276.6,45.9z M302.7,45.4l-10.1,18.1l-12.5-17.8l9.7-18.1
				L302.7,45.4z M329.7,41.9l-11.1,20.4l-12.3-17.1l11.4-20.4L329.7,41.9z M354.9,43.1l-9,16.5l-12.7-17.9l9-16.4L354.9,43.1z
				 M381.7,39.8l-6.3,11.6L365,52.1l-6.6-9.2l11.1-20.2L381.7,39.8z M428.3,28.8l6.9,9.7l-5.2,9.6l-10.9,0.7l-7.2-10.2l5-9.2
				L428.3,28.8z M431.8,28.6l9-0.5l-4,7.4L431.8,28.6z M400.8,28.2l-9.7,0.5l4.4-8L400.8,28.2z M454.8,27.4l6,8.5L455,46.6l-10,0.6
				l-6.3-8.9l5.6-10.3L454.8,27.4z M422,20l4.9,6.9l-8.9,0.5L422,20z"/>
			<path class="st0" d="M416.8,7.6c-0.6-0.1-1.2-0.1-1.7-0.2"/>
			<path class="st0" d="M612.8,89.7C612.7,89.7,612.7,89.7,612.8,89.7"/>
			<path class="st0" d="M348.2,185.9l-0.3-0.4c0.2,0.1,0.4,0.2,0.5,0.2L348.2,185.9z"/>
			<path class="st0" d="M312.3,174.2l-2.6-1.4l0.5-1c1,0.2,2.1,0.4,3.1,0.6L312.3,174.2z"/>
			<path class="st0" d="M288.3,168.7c0.4,0,0.8,0.1,1.2,0.1"/>
			<path class="st0" d="M385.7,201.4l-0.4-0.6c0.3,0.1,0.5,0.2,0.8,0.3L385.7,201.4z"/>
			<path class="st0" d="M278.7,167.9c0.9,0.1,1.9,0.1,2.8,0.2"/>
			<path class="st0" d="M448,218.5V218c0.8,0.1,1.5,0.3,2.3,0.4L448,218.5z"/>
			<path class="st0" d="M630.9,148.9c0.1-0.3,0.1-0.6,0.2-0.9"/>
			<path class="st0" d="M626,113.8c-0.1-0.3-0.2-0.6-0.4-0.9"/>
			<path class="st0" d="M561.7,216.4l-0.2-0.3c0.4-0.1,0.8-0.2,1.2-0.3L561.7,216.4z"/>
			<path class="st0" d="M338.4,14.7l-0.6-0.9c2.7-0.4,5.4-0.9,8-1.3l-0.6,1.1C342.9,14,340.7,14.3,338.4,14.7z"/>
			<path class="st0" d="M50.5,38.8c-28.5,10.8-42.6,28-42,51l-0.7,0.5l0.6,0.9c-0.7,2.4-3.5,13.2-1.9,26.3l-0.7,1.3l1,0.6
				c1.2,7.6,3.9,15.9,9.4,23.8c4.7,6.7,10.9,12.3,18.5,17.1l-0.5,0.9c-7.8-4.8-14.1-10.6-18.9-17.4C7,132,4.9,119.4,4.9,109.3
				c0-10.4,2.3-18,2.6-18.9c0-0.6,0-1.3,0-1.9c0-27.7,21.1-43,45.1-51.5l-0.8,1.3C51.3,38.5,50.9,38.7,50.5,38.8z"/>
			<path class="st0" d="M354.8,187.5l-0.2,0.3l2.6,1.4l0.3-0.5c5,2.2,10.7,4.6,17.1,7v0.1l2.6,1.4l0.2-0.4c2.2,0.8,4.5,1.7,6.8,2.5
				l1,1.4c-15.3-5.5-28-11-36.9-15.1l0.9-0.7C351.1,185.8,352.9,186.6,354.8,187.5z"/>
			<path class="st0" d="M335.2,178.1c0.1,0.1,4.3,2.3,11.6,5.7l1.2,1.6c-8.3-3.9-13.1-6.4-13.2-6.5c-6.2-2.7-13.5-4.8-21.5-6.5
				l0.5-0.9C321.7,173.2,329,175.4,335.2,178.1z"/>
			<path class="st0" d="M54.1,169.1l-0.4,0.7l0.9,0.5c-6.6-2.1-12.6-4.7-17.9-7.7l0.5-0.9C42.2,164.5,47.9,167,54.1,169.1z"/>
			<path class="st0" d="M395.9,203.4l-0.2,0.4l2.6,1.4l0.5-0.9c3.9,1.3,7.9,2.5,12,3.7s8.1,2.3,12,3.3v0.1l0,0
				c7.3,1.9,14.3,3.5,21.1,4.9l0.9,0.5l0.2-0.3c1,0.2,2,0.4,3,0.6v1c-11.8-2.2-24.3-5.2-37.5-9c-8.6-2.5-16.8-5.2-24.3-7.9l1-0.7
				C390,201.4,392.9,202.4,395.9,203.4z"/>
			<path class="st0" d="M629.2,152.2l1.7-3.3c-2.9,16.7-10.9,29.4-19.8,38.8l1.7-3.4C620,176,626.3,165.5,629.2,152.2z"/>
			<path class="st0" d="M105.6,28.1c-9,0.6-17,1.5-24,2.7L80.2,30c10-1.7,19.2-2.6,26.3-3l-0.4,0.7L105.6,28.1z"/>
			<path class="st0" d="M596.6,198.8c1.1-0.7,2.2-1.5,3.3-2.4l0.3,0.5l2.5-1.7l-0.4-0.6c1.2-1,2.4-2,3.6-3.1l-0.2,0.4l0.8,0.4
				c-3.1,2.8-6.2,5.3-9.3,7.4c-8.6,6-17.1,10-23.3,12.4l0.7-1.4C580.6,208.2,588.6,204.4,596.6,198.8z"/>
			<path class="st0" d="M309,170.6l0.7,1l0.9-0.6l-0.4,0.8c-6.5-1.3-13.4-2.2-20.7-3l0.5-0.9C296.6,168.6,303,169.5,309,170.6z"/>
			<path class="st0" d="M454.7,218.4L454.7,218.4h0.6c21.2,3.5,40,4.5,56.4,4l0,0l0,0c19.9-0.6,36.2-3.6,49.1-7.2l0.6,0.9
				c-24.4,6.8-61.3,11.5-111.3,2.4L454.7,218.4L454.7,218.4z"/>
			<path class="st0" d="M54.1,37.6l-1.2-0.7c8.8-3.1,17.9-5.2,26.5-6.7l-0.6,1.1C68.5,33.1,60.3,35.4,54.1,37.6z"/>
			<path class="st0" d="M563.9,214.3c0.3-0.1,0.6-0.2,0.9-0.3c0.1,0,2.4-0.6,6.2-2l1.2,0.6c-4.3,1.6-7.1,2.3-7.1,2.3
				c-0.8,0.2-1.6,0.5-2.4,0.7l1.5-1.1L563.9,214.3z"/>
			<path class="st0" d="M129,174l1.5,0.8c-3.4,0.4-6.4,0.8-9.1,1.2l1.6-1.2C124.8,174.5,126.8,174.2,129,174z"/>
			<path class="st0" d="M145.1,172.1l0.7,0.9c-5.1,0.6-9.9,1.1-14.2,1.7l0.6-1.1C136.1,173.1,140.5,172.6,145.1,172.1z"/>
			<path class="st0" d="M281.8,167.1c1.7,0.1,3.3,0.3,4.9,0.4l-0.1,0.2l1.7,0.9c-2.2-0.2-4.5-0.4-6.8-0.6l0.7-0.4L281.8,167.1z"/>
			<path class="st0" d="M171.4,169.4l0.6,0.9c-5,0.4-9.8,0.9-14.4,1.4l0.6-1.1C162.5,170.2,166.9,169.8,171.4,169.4z"/>
			<path class="st0" d="M154.6,171l-0.6,1.1c-1.6,0.2-3.3,0.3-4.8,0.5l-0.7-0.9C150.5,171.5,152.5,171.3,154.6,171z"/>
			<path class="st0" d="M106.9,177c0.3,0,5-0.8,12.9-1.8l0.7,0.9c-8.3,1.1-13.3,1.9-13.6,1.9c-0.8,0-1.7-0.1-2.5-0.1l0.5-1
				C105.6,177,106.2,177,106.9,177z"/>
			<path class="st0" d="M61.3,171.2l0.8,1.2c-1.9-0.5-3.8-1-5.6-1.6L57,170C58.4,170.4,59.9,170.8,61.3,171.2z"/>
			<path class="st0" d="M76.8,174.4l-0.2,0.3l1.6,0.9c-4.1-0.6-8-1.3-11.8-2.2l-0.8-1.2C69.2,173.1,73,173.8,76.8,174.4z"/>
			<path class="st0" d="M101.8,176.8l1.9,1.1c-8.6-0.3-16.7-1-24.2-2.1l0.5-0.9C86.8,175.9,94.1,176.5,101.8,176.8z"/>
			<path class="st0" d="M174.8,169.1c2.9-0.2,5.9-0.5,9-0.7l1.5,0.8l0.6-1c12.1-0.9,24.9-1.6,37.8-2.1l0.1,0.2l0.3-0.2
				c8.5-0.3,17-0.4,25.4-0.3l0.3,0.5l0.7-0.5c5,0,9.9,0.2,14.8,0.3h0.1l0,0c4.3,0.2,8.5,0.4,12.7,0.7l0.7,1
				c-33.5-2.4-72.1-0.5-104.3,2.3l0.7-0.5L174.8,169.1z"/>
			<path class="st0" d="M212.5,24.8l-1.7-0.9c18.8-0.6,37-1.1,51.8-1.7l-1.5,1.1C247,23.7,230.1,24.2,212.5,24.8z"/>
			<path class="st0" d="M499.8,25.1l1.8-0.1v-0.4c2.6,0.8,5.2,1.6,7.9,2.4l0.9,1.3C506.7,27.2,503.2,26.1,499.8,25.1z"/>
			<path class="st0" d="M448.3,12.9l-0.8-1.2c0.6,0.1,1.3,0.2,2,0.3l-0.5,1C448.8,13,448.5,12.9,448.3,12.9z"/>
			<path class="st0" d="M389,6c3.9,0,13.1,0.2,26.2,1.4L414,8.3c-5-0.5-9.5-0.8-13.2-0.9l-1-0.5l-0.3,0.5c-4.4-0.2-7.8-0.3-9.9-0.3
				l-0.3-0.4L388.7,7c-2.6,0.1-7.7,0.8-14.8,1.9l-0.2-0.1L373.6,9c-3.8,0.6-8.2,1.3-13,2.1c-3.7,0.6-7.6,1.3-11.7,1.9l0.4-0.8
				l-0.4-0.2c4.1-0.7,7.9-1.3,11.5-1.9C374.7,7.7,385,6,389,6z"/>
			<path class="st0" d="M263.5,22.1c0.3,0,0.7,0,1,0l-0.5,0.8L263.5,22.1z"/>
			<path class="st0" d="M266.7,22.9L265,22c8.1-0.3,16.7-1,25.4-1.9l-0.6,1.1C282,22,274.2,22.6,266.7,22.9z"/>
			<path class="st0" d="M480.9,19.9l-0.9-1.3c4.4,1.1,8.8,2.3,13.4,3.6l-0.5,0.9C488.8,22,484.8,20.9,480.9,19.9z"/>
			<path class="st0" d="M496.3,23.2l-0.7-0.4c0.5,0.1,1,0.3,1.4,0.4H496.3L496.3,23.2z"/>
			<path class="st0" d="M596.6,73l0.2-0.3l-1.3-0.7c-10.9-10-25.4-19.9-44.5-28.2l-0.8-1.2l-0.7,0.5c-10.9-4.7-21.6-8.8-32-12.4
				l-1.8-1l-0.2,0.3c-0.2-0.1-0.3-0.1-0.5-0.2l-0.9-1.4c11.8,3.9,24.1,8.6,36.6,14c31.5,13.6,50.6,31.4,62,47.1l-2.1-1.1
				C606.8,83.5,602.2,78.3,596.6,73z"/>
			<path class="st0" d="M631,140c0-0.4-0.2-10.8-5.6-25l0.6-1.2c5.9,15.1,6,26.1,6,26.2l0,0c-0.2,2.8-0.5,5.5-0.9,8l-0.9-0.5
				C630.5,145.1,630.8,142.6,631,140z"/>
			<path class="st0" d="M169.7,26c-2.8,0.1-5.6,0.2-8.3,0.2l-0.8-0.5l-0.3,0.5c-0.6,0-1.2,0-1.7,0l-0.4-0.6l-1,0.7
				c-22.1,0.6-40.4,1.2-48.5,1.6L107,27c8.2-0.5,33.5-1.2,62.7-2c13.3-0.4,27.3-0.8,40.9-1.2l-0.6,1C196.6,25.2,182.8,25.6,169.7,26
				z"/>
			<path class="st0" d="M473.8,18.1l0.5-0.9c1.6,0.4,3.3,0.8,5,1.2l-1.1,0.8C476.7,18.8,475.2,18.5,473.8,18.1z"/>
			<path class="st0" d="M452.1,13.6l0.2-0.4l-1.7-0.9c6.5,1.2,13.4,2.6,20.7,4.2l-0.5,0.9C464.2,16,458,14.7,452.1,13.6z"/>
			<path class="st0" d="M319.9,17.5l-1.3-0.7l-0.5,1c-0.6,0.1-1.1,0.2-1.7,0.2l-0.2-0.3l-0.6,0.5c-7.5,1-15.2,2-22.9,2.8l-1.6-0.8
				c14.7-1.5,29.7-3.6,43.3-5.7l0.6,0.9C330.2,16,325.1,16.7,319.9,17.5z"/>
			<path class="st0" d="M426.1,9.6l-1.5-0.8l-0.3,0.6c-2.3-0.3-4.6-0.5-6.7-0.7l-0.8-1.1c7.7,0.8,16.6,1.9,26.5,3.5l0.8,1.1
				C437.7,11.1,431.7,10.3,426.1,9.6z"/>
			<path class="st0" d="M620.9,104.8c-2.2-4.3-5-9.1-8.6-14.1l0.5-1c3.8,5.2,6.7,10.1,9,14.7c1.5,2.9,2.8,5.7,3.8,8.4l-1.4-0.7
				C623.3,109.8,622.1,107.3,620.9,104.8z"/>
			<path class="st0" d="M122.9,174.8l-1.6,1.2c-0.3,0-0.6,0.1-0.9,0.1l-0.7-0.9C120.8,175,121.8,174.9,122.9,174.8z"/>
			<path class="st0" d="M132.2,173.6l-0.6,1.1c-0.4,0-0.7,0.1-1.1,0.1L129,174C130,173.8,131.1,173.7,132.2,173.6z"/>
			<path class="st0" d="M335.1,15.2l-0.6-0.9c1.1-0.2,2.2-0.3,3.3-0.5l0.6,0.9C337.3,14.9,336.2,15,335.1,15.2z"/>
			<path class="st0" d="M399.6,6.8l1,0.5c-0.4,0-0.9,0-1.3-0.1L399.6,6.8z"/>
			<path class="st0" d="M373.6,8.8l0.2,0.1c-0.1,0-0.2,0-0.3,0L373.6,8.8z"/>
			<path class="st0" d="M174.8,169.1l0.4,0.5l-0.7,0.5c-0.8,0.1-1.6,0.1-2.4,0.2l-0.6-0.9C172.5,169.3,173.7,169.2,174.8,169.1z"/>
			<path class="st0" d="M158.2,170.7l-0.6,1.1c-1.2,0.1-2.4,0.2-3.6,0.4l0.6-1.1C155.8,170.9,157,170.8,158.2,170.7z"/>
			<path class="st0" d="M348.8,13c-1.2,0.2-2.5,0.4-3.7,0.6l0.6-1.1c1.1-0.2,2.1-0.3,3.2-0.5l0.4,0.2L348.8,13z"/>
			<path class="st0" d="M148.5,171.7l0.7,0.9c-1.2,0.1-2.3,0.2-3.4,0.4l-0.7-0.9C146.2,171.9,147.4,171.8,148.5,171.7z"/>
			<path class="st0" d="M51.7,38.4l0.8-1.3c0.1-0.1,0.3-0.1,0.4-0.2l1.2,0.7C53.3,37.8,52.5,38.1,51.7,38.4z"/>
			<path class="st0" d="M37.1,161.7l-0.5,0.9c-0.9-0.5-1.7-1-2.6-1.5l0.5-0.9C35.4,160.7,36.2,161.2,37.1,161.7z"/>
			<path class="st0" d="M105,176.9l-0.5,1c-0.3,0-0.5,0-0.8,0l-1.9-1.1C102.8,176.9,103.9,176.9,105,176.9z"/>
			<path class="st0" d="M107,28c-0.5,0-0.9,0.1-1.4,0.1l0.6-0.4l0.4-0.7c0.1,0,0.3,0,0.4,0h0.1l1.7,0.9C108.1,27.9,107.5,28,107,28z
				"/>
			<path class="st0" d="M210.1,24.8l0.6-1h0.1l1.7,0.9C211.7,24.8,210.9,24.8,210.1,24.8z"/>
			<path class="st0" d="M78.8,31.3l0.6-1.1c0.2,0,0.5-0.1,0.7-0.1l1.4,0.8C80.6,31,79.7,31.1,78.8,31.3z"/>
			<path class="st0" d="M318.7,16.8l1.3,0.7c-0.6,0.1-1.2,0.2-1.8,0.3L318.7,16.8z"/>
			<path class="st0" d="M76.8,174.4c1,0.2,2.1,0.3,3.2,0.5l-0.5,0.9c-0.4-0.1-0.8-0.1-1.3-0.2l-1.6-0.9L76.8,174.4z"/>
			<path class="st0" d="M289.9,21.2l0.6-1.1c0.2,0,0.4,0,0.6-0.1l1.6,0.8C291.7,21,290.8,21.1,289.9,21.2z"/>
			<path class="st0" d="M265,23c-1.3,0.1-2.6,0.1-4,0.2l1.5-1.1c0.3,0,0.6,0,0.9,0l0.6,0.8l0.5-0.8c0.1,0,0.3,0,0.4,0h0.1l1.7,0.9
				C266.1,22.9,265.6,23,265,23z"/>
			<path class="st0" d="M54.1,169.1c1,0.3,2,0.6,3,0.9l-0.5,0.9c-0.7-0.2-1.3-0.4-1.9-0.6l-0.9-0.5L54.1,169.1z"/>
			<path class="st0" d="M65.6,172.3l0.8,1.2c-1.4-0.3-2.9-0.7-4.3-1l-0.8-1.2C62.7,171.6,64.2,171.9,65.6,172.3z"/>
			<path class="st0" d="M281.8,167.1l0.4,0.5l-0.7,0.4c-0.9-0.1-1.9-0.1-2.8-0.2l-0.7-1C279.3,166.9,280.6,167,281.8,167.1z"/>
			<path class="st0" d="M574.7,210.6L574,212c-0.6,0.2-1.2,0.5-1.7,0.7L571,212C572.1,211.6,573.3,211.1,574.7,210.6z"/>
			<path class="st0" d="M309.7,171.6l-0.7-1c1.6,0.3,3.2,0.6,4.7,0.9l-0.5,0.9c-1-0.2-2-0.4-3.1-0.6l0.4-0.8L309.7,171.6z"/>
			<path class="st0" d="M605.8,191.4c2.4-2.2,4.8-4.6,7-7.2l-1.7,3.4c-1.5,1.6-3.1,3.1-4.7,4.6l-0.8-0.4L605.8,191.4z"/>
			<path class="st0" d="M630.1,147.6l0.9,0.5c0,0.3-0.1,0.6-0.2,0.9l-1.7,3.3C629.6,150.7,629.9,149.2,630.1,147.6z"/>
			<path class="st0" d="M455.4,218.3h-0.6l0,0l0,0l-4.5,0.1c-0.7-0.1-1.5-0.3-2.3-0.4v-1C450.5,217.5,452.9,217.9,455.4,218.3z"/>
			<path class="st0" d="M349.4,185l-0.9,0.7c-0.2-0.1-0.4-0.2-0.5-0.2l-1.2-1.6C347.6,184.2,348.5,184.6,349.4,185z"/>
			<path class="st0" d="M624.2,112.1l1.4,0.7c0.1,0.3,0.2,0.6,0.4,0.9l-0.6,1.2C625,114,624.6,113.1,624.2,112.1z"/>
			<path class="st0" d="M387.1,200.4l-1,0.7c-0.3-0.1-0.5-0.2-0.8-0.3l-1-1.4C385.3,199.7,386.2,200,387.1,200.4z"/>
			<path class="st0" d="M549.5,43.1l0.7-0.5l0.8,1.2c-0.3-0.1-0.5-0.2-0.7-0.3C550,43.3,549.7,43.2,549.5,43.1z"/>
			<path class="st0" d="M563.9,214.3l0.2,0.3l-1.5,1.1c-0.4,0.1-0.8,0.2-1.2,0.3l-0.6-0.9C561.9,214.9,562.9,214.6,563.9,214.3z"/>
			<path class="st0" d="M444.2,12.2l-0.8-1.1c1.4,0.2,2.7,0.5,4.1,0.7l0.8,1.2C446.9,12.7,445.5,12.4,444.2,12.2z"/>
			<path class="st0" d="M452.1,13.6c-1-0.2-2.1-0.4-3.1-0.6l0.5-0.9c0.4,0.1,0.7,0.1,1.1,0.2l1.7,0.9L452.1,13.6z"/>
			<path class="st0" d="M316.2,17.6l0.2,0.3c-0.3,0-0.6,0.1-0.9,0.1L316.2,17.6z"/>
			<path class="st0" d="M610.6,88.6l2.1,1.1c0,0,0,0.1,0.1,0.1l-0.5,1C611.7,90,611.2,89.3,610.6,88.6z"/>
			<path class="st0" d="M388.7,7l0.5-0.4l0.3,0.4c-0.2,0-0.3,0-0.5,0C388.9,7,388.8,7,388.7,7z"/>
			<path class="st0" d="M499.8,25.1c-2.3-0.7-4.6-1.3-6.8-2l0.5-0.9c0.7,0.2,1.4,0.4,2.1,0.6l0.7,0.4v0.1h0.7c1.5,0.4,3,0.9,4.5,1.3
				V25L499.8,25.1z"/>
			<path class="st0" d="M470.7,17.4l0.5-0.9c1,0.2,2,0.5,3,0.7l-0.5,0.9C472.8,17.9,471.8,17.7,470.7,17.4z"/>
			<path class="st0" d="M510.3,28.4l-0.9-1.3c1.6,0.5,3.1,1,4.7,1.5L515,30C513.4,29.4,511.8,28.9,510.3,28.4z"/>
			<path class="st0" d="M478.2,19.2l1.1-0.8c0.3,0.1,0.5,0.1,0.8,0.2l0.9,1.3C480,19.7,479.1,19.4,478.2,19.2z"/>
			<path class="st0" d="M413.9,8.3l1.2-0.9c0.6,0.1,1.1,0.1,1.7,0.2l0.8,1.1C416.3,8.5,415.1,8.4,413.9,8.3z"/>
			<path class="st0" d="M265.3,166.2L265.3,166.2C265.2,166.2,265.3,166.2,265.3,166.2L265.3,166.2z"/>
			<path class="st0" d="M249.7,166.3l-0.3-0.5c0.4,0,0.7,0,1.1,0L249.7,166.3z"/>
			<path class="st0" d="M223.7,166.4l-0.1-0.2c0.1,0,0.2,0,0.4,0L223.7,166.4z"/>
			<path class="st0" d="M357.3,189.2l-2.6-1.4l0.2-0.3c0.9,0.4,1.8,0.8,2.8,1.2L357.3,189.2z"/>
			<path class="st0" d="M185.3,169.2l-1.5-0.8c0.7-0.1,1.4-0.1,2-0.2L185.3,169.2z"/>
			<path class="st0" d="M160.7,25.8l0.8,0.5c-0.4,0-0.7,0-1.1,0L160.7,25.8z"/>
			<path class="st0" d="M377.3,197.2l-2.6-1.4v-0.1c0.9,0.4,1.9,0.7,2.8,1.1L377.3,197.2z"/>
			<path class="st0" d="M158.2,25.7l0.4,0.6c-0.5,0-1,0-1.4,0L158.2,25.7z"/>
			<path class="st0" d="M5.7,118.8l0.7-1.3c0.1,0.6,0.2,1.2,0.3,1.8L5.7,118.8z"/>
			<path class="st0" d="M424.6,8.8l1.5,0.8c-0.6-0.1-1.2-0.1-1.8-0.2L424.6,8.8z"/>
			<path class="st0" d="M398.3,205.2l-2.6-1.4l0.2-0.4c1,0.3,1.9,0.6,2.9,1L398.3,205.2z"/>
			<path class="st0" d="M596.8,72.7l-0.2,0.3c-0.4-0.3-0.7-0.7-1.1-1L596.8,72.7z"/>
			<path class="st0" d="M515.6,29.8l1.8,1c-0.7-0.2-1.3-0.5-2-0.7L515.6,29.8z"/>
			<path class="st0" d="M8.5,90.6L8.5,90.6c0,0.1-0.1,0.3-0.2,0.6l-0.6-0.9l0.7-0.5C8.5,90.1,8.5,90.3,8.5,90.6L8.5,90.6z"/>
			<path class="st0" d="M286.8,167.6c1.1,0.1,2.2,0.2,3.2,0.3l-0.5,0.9c-0.4,0-0.8-0.1-1.2-0.1l-1.7-0.9L286.8,167.6z"/>
			<path class="st0" d="M602.7,195.1l-2.5,1.7l-0.3-0.5c0.8-0.6,1.6-1.2,2.4-1.9L602.7,195.1z"/>
			<path class="st0" d="M422.7,211.4L422.7,211.4C422.7,211.3,422.8,211.3,422.7,211.4L422.7,211.4z"/>
			<path class="st0" d="M444.8,216.7l-0.9-0.5c0.4,0.1,0.7,0.1,1.1,0.2L444.8,216.7z"/>
			<path class="st0" d="M511.7,222.4L511.7,222.4C511.7,222.3,511.8,222.3,511.7,222.4L511.7,222.4z"/>
		</g>
	</g>
</g>
</svg>
